<svg xmlns="http://www.w3.org/2000/svg" viewBox="0 0 588.78 488.67"><defs><style>.cls-1{fill:#d9d80c;}.cls-2{fill:#080752;}.cls-3{fill:#4eab9e;}</style></defs><title>Asset 2</title><g id="Layer_2" data-name="Layer 2"><g id="Brain"><g id="Green"><g id="Outline"><path class="cls-1" d="M194.79,25.14C150.37,33,110.46,57.84,76.93,88c-28,25.22-52.76,55.19-65.94,90.51S-2.61,255.11,15.78,288c21,37.64,66.57,59.94,109.2,53.46,11.3-1.72,25-4.44,32.37,4.3,3.46,4.11,4.35,9.71,6.18,14.76,5.59,15.45,20.11,25.85,34.89,33,16.45,8,34.64,13.25,52.87,12s36.49-9.68,46.9-24.71c3.4,18.67,20.33,31.66,37.11,40.51s35.34,16,47.61,30.46c8.51,10,10.81,25.58,21.75,32.92,10.16,6.81,38-3.09,43.9.37,9.12,5.33,2.49-8.36-.29-18.55s-9.71-18.67-16.46-26.79c24.39,9.38,52.22,18.69,75.74,7.3,21-10.17,31.51-33.62,39.74-55.44,11.6-30.73,22-64.88,10.92-95.8,24.59-9.19,31.45-41,28.7-67.14-6.41-61-44.21-114.93-90-155.76C461.71,41.56,420.25,15.82,374.16,6.05c-60.24-12.77-119.92,3.86-179.6,19"/><path class="cls-2" d="M194.4,23.7c-48.14,8.67-90.61,36.57-125.57,69.79C34.43,126.18,5.65,167.62.73,216c-2.41,23.66,1.05,48.16,12,69.45,9.56,18.69,25,34,43.27,44.26C74.06,339.8,95,345.1,115.81,343.92c10.33-.59,21.18-4.35,31.49-2.2,5.93,1.24,9.88,5,12,10.63,1.95,5.16,3.11,10.41,5.85,15.25,5.35,9.44,14,16.62,23.13,22.17a127.85,127.85,0,0,0,34.48,14.43c22.27,5.64,47.06,3.66,65.63-10.9a55.51,55.51,0,0,0,11.09-11.71l-2.74-.36c3.72,19.15,20.41,32,36.66,40.8,17.54,9.45,39.66,16.84,51,34.35,4.82,7.43,7.44,16.12,12.81,23.21,4.6,6.07,10,8.88,17.57,9.07s15.19-1.34,22.72-2.29c2.8-.35,5.88-.87,8.69-.44,2.14.32,4,2.38,6.32,1.75,2.68-.75,2.25-4.08,1.84-6.17-.89-4.5-2.7-8.81-4-13.19a61.23,61.23,0,0,0-6.74-15.5,138.68,138.68,0,0,0-10.74-14.13l-1.46,2.51c15.81,6.07,32.26,12,49.36,12.56,15.32.51,30-4.34,41.14-15,10.48-9.95,17.21-23.17,22.71-36.35,6.59-15.81,12.48-32.21,16.26-48.95,4.33-19.17,5.37-39.3-1.22-58.09l-1,1.85c30.64-11.81,32.89-51.49,28.4-79-6-37-23.47-71.15-46.17-100.61a345.77,345.77,0,0,0-83.91-77.42C423.09,18,384.88,3.11,344.27.49c-45.31-2.93-90.06,7.86-133.63,19q-8.25,2.08-16.48,4.2c-1.87.47-1.08,3.37.8,2.89C237.57,15.69,280.67,3.76,324.94,3a215,215,0,0,1,62.88,8,239.12,239.12,0,0,1,52.31,22.4C472.64,52,502.05,76.82,526.64,105c23.85,27.34,43.43,59.15,53.15,94.31,4.48,16.19,7.39,33.33,5.7,50.14-1.45,14.42-6.38,30-18,39.39a35.71,35.71,0,0,1-9.65,5.51,1.53,1.53,0,0,0-1,1.85c11.5,32.81-.44,68.14-12.46,99-5.07,13-11,26.27-20.2,36.94a52.7,52.7,0,0,1-39,18.62c-18.29.52-36.12-6-52.93-12.48-1.54-.59-2.31,1.49-1.46,2.51,6.58,7.93,13.15,16.06,16.08,26.13,1.1,3.8,2.42,7.54,3.58,11.33a31.41,31.41,0,0,1,1.18,4.58c.06.41.3,1.21.11,1.61s.32.28-.59.19-2.07-1.09-3.09-1.4a12.19,12.19,0,0,0-3-.41,50.49,50.49,0,0,0-8.42.65c-7,.92-14.05,2.25-21.14,2.18-2.93,0-6.09-.24-8.78-1.53-3.53-1.68-6.32-5.1-8.42-8.3-4.59-7-7.16-15.08-11.9-22C375.92,438.72,357.67,431,341.8,423c-17.9-9-38-21.29-42.17-42.56-.27-1.38-2.06-1.31-2.74-.36-13.69,19.4-38.64,26.28-61.33,23.52-13.09-1.59-25.8-6.06-37.57-11.92-9.73-4.84-19.16-11-26.08-19.48a43.89,43.89,0,0,1-7.79-14.62c-1.48-4.73-2.75-9.72-6.23-13.45-6.55-7-17.09-6.38-25.78-5.22-10.25,1.36-20.13,2.69-30.51,1.83a109.57,109.57,0,0,1-78.69-44.28C9.42,277.56,3.18,254.37,3,231.31,2.63,183.12,27.86,140,60.38,106.12c32.34-33.69,72.44-63,117.91-75.67,5.57-1.56,11.21-2.83,16.9-3.86,1.9-.34,1.1-3.23-.79-2.89Z"/></g><g id="Extra"><path class="cls-3" d="M367.8,344.91a28.42,28.42,0,0,0,14.06,44.41c5.79,1.81,12.63,2.05,16.64,6.6,4.38,5,3.16,12.55,4.24,19.1,1.59,9.58,8.61,17.55,16.88,22.62s17.78,7.66,27.15,10.2c10.77,2.91,21.63,5.84,32.76,6.57s22.71-.88,32.34-6.52c11.79-6.91,19.48-19,25.91-31.09,16.28-30.5,27.7-64.57,26-99.1-.36-7-1.71-14.8-7.38-18.91s-13.46-3-20.34-1.69l-61,11.57c-5.39,1-10.86,2.06-15.78,4.5s-8.92,6-13.89,8c-12,4.81-25.78-.89-38.41,1.82-8.1,1.73-15,6.78-21.7,11.7l-21.94,16.19"/><path class="cls-2" d="M366.51,344.15A29.89,29.89,0,0,0,377,389c3.81,1.92,7.92,2.65,12,3.7s7.86,2.59,9.81,6.45,1.7,8.52,2,12.71a30.87,30.87,0,0,0,3.58,12.52c9.66,17.72,31.64,22.36,49.55,27,19.26,5,41.36,8.44,59.31-2.54,7.84-4.8,13.92-11.89,18.92-19.5a201.24,201.24,0,0,0,13.91-25.88c8.65-18.66,15.21-38.39,17.92-58.83a130.92,130.92,0,0,0,1-29.8,30.46,30.46,0,0,0-3.24-12,15.82,15.82,0,0,0-9.72-7.66c-4.39-1.19-9-.73-13.47,0-5.4.88-10.77,2-16.15,3l-33.2,6.29c-5.56,1.06-11.12,2.09-16.67,3.17-5.05,1-10.1,2.17-14.69,4.56s-8.31,5.67-13,7.57-9.42,2.08-14.23,1.9c-9.79-.38-19.62-2.26-29.06,1.38a59.71,59.71,0,0,0-12.82,7.22c-4.44,3.13-8.77,6.41-13.14,9.64l-13.16,9.71c-1.54,1.14,0,3.74,1.51,2.59,8.64-6.37,17.19-12.89,25.95-19.1A58.55,58.55,0,0,1,402.22,326a35.54,35.54,0,0,1,13.89-2.25c9.41.16,19.22,2.46,28.39-.66,4.55-1.55,8.37-4.45,12.43-6.92A43.48,43.48,0,0,1,470.88,311c10.56-2.24,21.23-4.06,31.84-6.07l32.47-6.15c8.07-1.53,18.56-3.39,23.64,4.92,2.08,3.41,2.86,7.51,3.22,11.44a116.8,116.8,0,0,1,.28,14.25c-.64,19.92-5.47,39.51-12.63,58.05a258.88,258.88,0,0,1-12.47,27.21c-4.19,8-8.74,15.87-14.81,22.56a46.06,46.06,0,0,1-22.79,14.05c-9.6,2.49-19.7,2.17-29.41.55a263.69,263.69,0,0,1-30.19-7.4c-9.1-2.65-18.35-6-25.54-12.41a34.05,34.05,0,0,1-7.81-9.85,29.87,29.87,0,0,1-2.94-12.08c-.25-4.1-.37-8.37-2.16-12.16s-5.14-6-8.94-7.32-8.08-1.78-11.95-3.26a27.33,27.33,0,0,1-9.94-6.77A26.77,26.77,0,0,1,364,357.11a27.82,27.82,0,0,1,5.12-11.44c1.16-1.54-1.44-3-2.59-1.52Z"/></g><g id="Lines"><path class="cls-2" d="M3.85,237.57,27.3,206.31c1.16-1.55-1.44-3-2.59-1.52L1.26,236.05c-1.16,1.55,1.45,3,2.59,1.52Z"/><path class="cls-2" d="M65.26,331.8a27.84,27.84,0,0,1,27.33-5.68c1.84.61,2.62-2.28.8-2.9a30.88,30.88,0,0,0-30.25,6.46c-1.43,1.31.7,3.42,2.12,2.12Z"/><path class="cls-2" d="M61.17,291.91c1,4.72,4.89,7.81,9.22,9.42,5.14,1.92,10.49,1.48,15.84,1.1a39.91,39.91,0,0,1,9.46.09,21.5,21.5,0,0,1,8.24,3.49c4.71,3.06,9.14,6.56,15,6.68,7.12.14,13.6-3.95,19.29-7.77a1.5,1.5,0,0,0-1.51-2.59c-5.59,3.12-5.49,11-2.19,15.74,4.47,6.48,13.37,7.16,20.52,7.56,1.93.1,1.92-2.9,0-3-5.85-.33-13.63-.64-17.63-5.67-2.66-3.34-3.49-9.64.81-12l-1.51-2.59c-4.8,3.22-10.16,6.81-16.08,7.3-5.74.48-10-2.76-14.55-5.78a28.1,28.1,0,0,0-6.81-3.54,26.2,26.2,0,0,0-8.53-1.1c-5.42.06-11,1.26-16.35.15-4.52-.93-9.32-3.35-10.35-8.25-.4-1.89-3.29-1.09-2.89.8Z"/><path class="cls-2" d="M160.78,346.91c4.15-21.84,8.58-44.63,20.79-63.61a81.62,81.62,0,0,1,24.84-24.25c5.1-3.3,10.42-6.23,15.78-9.07,5.6-3,11.22-5.92,16.93-8.69,12.86-6.24,26.64-11.48,41.15-11.24a1.51,1.51,0,0,0,.39-3l-9.9-2.89.66,2.51a109.46,109.46,0,0,1,49.14-23.79,108.6,108.6,0,0,1,83.83,18c1.58,1.11,3.08-1.49,1.51-2.59a112.47,112.47,0,0,0-53.82-20A111.64,111.64,0,0,0,269.3,224.6a1.51,1.51,0,0,0,.66,2.5l9.91,2.89.4-2.94c-13.11-.22-25.69,3.89-37.51,9.23-6,2.71-11.84,5.74-17.68,8.79-5.57,2.91-11.13,5.84-16.52,9.1-10.4,6.28-19.77,13.89-26.95,23.77-6.6,9.09-11.21,19.48-14.69,30.11-4,12.41-6.6,25.25-9,38.06-.36,1.89,2.53,2.69,2.89.8Z"/><path class="cls-2" d="M393.16,211.66A21.46,21.46,0,0,0,404.67,196a1.54,1.54,0,0,0-1.05-1.85,1.51,1.51,0,0,0-1.84,1.05,18.7,18.7,0,0,1-10.14,13.83,1.5,1.5,0,1,0,1.52,2.59Z"/><path class="cls-2" d="M330.12,170.93c5.5.62,9.77,6.5,8.61,11.9-1.26,5.87-6.08,10.57-5,16.93.34,1.89,3.23,1.09,2.89-.8-.57-3.27,1.19-6.39,2.57-9.22s2.85-6,2.68-9.31a13.49,13.49,0,0,0-11.8-12.5c-1.91-.21-1.9,2.79,0,3Z"/><path class="cls-2" d="M352.36,22.16c9.71,8.12,21.87,18.8,20.88,32.76-1,14.13-15,22.72-26.41,28.2C340,86.37,333,89.28,326.74,93.5a50.52,50.52,0,0,0-14.25,14.44C305.16,119.15,302,132.86,302,146.15c0,16.84,4.65,33.25,9.69,49.17q.93,3,1.89,5.92c.59,1.83,3.48,1,2.89-.8C311.32,184.34,306,168,305.15,151c-.72-13.69,1.7-27.87,8.83-39.75A47.47,47.47,0,0,1,327.9,96.32c6.25-4.25,13.26-7.19,20.06-10.43,11.83-5.63,25.24-14,27.89-28,2.68-14.12-7.59-25.8-17.39-34.46q-2-1.73-4-3.4c-1.47-1.23-3.6.88-2.12,2.12Z"/><path class="cls-2" d="M227.62,203.4a42.22,42.22,0,0,0,28.29,30.1c1.85.57,2.64-2.33.8-2.89a39.19,39.19,0,0,1-26.2-28c-.44-1.88-3.34-1.08-2.89.8Z"/><path class="cls-2" d="M189.45,168.08c-.9,6.2,1.54,11.84,4.69,17s6.77,10.33,9.34,16a75.63,75.63,0,0,1,6.34,35.95,73.09,73.09,0,0,1-4.34,20.34c-.67,1.82,2.23,2.6,2.89.8a77,77,0,0,0,4-36.26,78.33,78.33,0,0,0-4.41-17.83,85.09,85.09,0,0,0-8.51-16.3c-3.62-5.56-8.1-12-7.08-19,.27-1.89-2.62-2.7-2.9-.8Z"/><path class="cls-2" d="M154.7,238.84c6.14-3.33,13.22.54,17.59,5,4.87,4.95,8.27,11.2,13.64,15.68a20.85,20.85,0,0,0,10,4.89c1.89.3,2.7-2.59.8-2.89-7.24-1.13-12.09-7.1-16.3-12.56-4.36-5.67-9-11.58-16.18-13.65a14.6,14.6,0,0,0-11.06.95c-1.7.92-.19,3.52,1.51,2.59Z"/><path class="cls-2" d="M160.72,272.48a84.5,84.5,0,0,0,23.82,2.25c1.92-.1,1.93-3.1,0-3a81,81,0,0,1-23-2.15c-1.88-.45-2.68,2.44-.8,2.9Z"/><path class="cls-2" d="M286.46,74.14c.57,7.68-2.63,14.71-6.5,21.15-4,6.75-8.71,13.08-12.3,20.1A107.6,107.6,0,0,0,259,138.48a96.2,96.2,0,0,0-3.09,24.35c.07,4.43.81,9,3.27,12.82a14.14,14.14,0,0,0,9.17,6.48c1.89.33,2.7-2.56.8-2.89-7.85-1.36-10.21-10-10.25-16.87a94.38,94.38,0,0,1,3.1-23.52,104.23,104.23,0,0,1,8.43-22.34c3.49-6.75,8-12.87,11.89-19.35,4.21-7,7.74-14.69,7.12-23-.14-1.91-3.14-1.93-3,0Z"/><path class="cls-2" d="M231.88,139.53A36.59,36.59,0,0,1,254.35,164a1.51,1.51,0,0,0,2.9-.8,39.78,39.78,0,0,0-24.57-26.55c-1.82-.66-2.6,2.24-.8,2.9Z"/><path class="cls-2" d="M109.13,61.05c-1.64,4.22-5.36,7.18-7.9,10.82S97.13,80,99,84.19c1.59,3.55,5.4,5.53,9.12,6,4.91.58,9.63-1.53,14-3.39q8.33-3.52,16.5-7.37c1.75-.82.23-3.41-1.51-2.59q-6.42,3-12.91,5.83c-4.16,1.8-8.55,4.1-13.12,4.54-3.29.32-7.21-.6-9-3.61-2.17-3.55,0-7.92,2.25-10.86,2.73-3.59,6-6.59,7.73-10.87.7-1.8-2.2-2.58-2.9-.8Z"/><path class="cls-2" d="M107.8,87c-7.12-.07-10.83,7-12.12,13.08-1.23,5.77-1.82,14.88-8.93,16.54-1.88.44-1.09,3.34.79,2.9,6.69-1.57,9.15-8.7,10.28-14.67.65-3.46,1.11-7.15,3-10.21,1.52-2.52,4-4.67,7-4.64a1.5,1.5,0,0,0,0-3Z"/><path class="cls-2" d="M55.73,136c-2.93,4.52-2,9.93,0,14.61,2.18,5,5.85,9.23,8.19,14.19a16.54,16.54,0,0,1,1.83,7.38,10,10,0,0,1-2.86,6.55c-1.73,1.9-3.74,3.52-5.32,5.56a16.69,16.69,0,0,0-3,6.47c-1.15,5-.37,10.22.18,15.27.52,4.76.77,9.46-.34,14.16-2,8.74-7.22,16.33-11.95,23.8C37.1,252.49,31.82,261.37,31,271.57h3a26,26,0,0,1,8.09-17.15,25.17,25.17,0,0,1,18.51-6.69A25.48,25.48,0,0,1,71.89,251a1.5,1.5,0,0,0,1.52-2.59,29.14,29.14,0,0,0-22.55-2.44,28.26,28.26,0,0,0-16.55,13.79A28.91,28.91,0,0,0,31,271.57c-.12,1.94,2.84,1.91,3,0,.72-8.89,5.29-16.82,9.92-24.22s9.86-14.9,12.58-23.4a36.87,36.87,0,0,0,1.66-13.44c-.31-5.07-1.35-10.1-1.16-15.2a16.92,16.92,0,0,1,1.54-6.87,21.35,21.35,0,0,1,4.73-5.77A18.7,18.7,0,0,0,67.69,177a13.11,13.11,0,0,0,.85-7.45c-.93-5.95-4.75-10.71-7.78-15.71-2.85-4.69-5.79-11.06-2.44-16.23,1.06-1.63-1.54-3.14-2.59-1.52Z"/><path class="cls-2" d="M37.54,165.09A21.82,21.82,0,0,1,60.39,162c1.74.81,3.27-1.78,1.52-2.59A25,25,0,0,0,35.42,163c-1.47,1.25.66,3.36,2.12,2.12Z"/><path class="cls-2" d="M66.13,176.59c5.81,1.85,8.93,7.82,10.14,13.42,1.68,7.75.32,15.81,1.82,23.6,1.37,7.18,4.74,13.83,8.57,20,4.13,6.64,8.72,13,13.25,19.4,5.06,7.12,10.25,14.21,14,22.13.74,1.56,3.17.45,2.74-1.16a29,29,0,0,1,2.46-21.28c.92-1.7-1.67-3.22-2.59-1.52a32.14,32.14,0,0,0-2.76,23.6l2.74-1.16c-3.39-7.14-8-13.62-12.53-20-4.69-6.6-9.43-13.19-13.79-20-4-6.28-7.63-13-9.13-20.34-1.61-7.92-.18-16.12-1.89-24-1.45-6.67-5.42-13.34-12.24-15.51-1.84-.58-2.63,2.31-.8,2.89Z"/><path class="cls-2" d="M92.34,236.64a35.38,35.38,0,0,1,8.3-21.69c1.24-1.46-.87-3.6-2.12-2.12a38.71,38.71,0,0,0-9.18,23.81c-.06,1.93,2.94,1.92,3,0Z"/><path class="cls-2" d="M100.64,173.23a40.12,40.12,0,0,1,24.27-11.64,39.87,39.87,0,0,1,36,16.26c1.12,1.56,3.72.06,2.59-1.51a43.39,43.39,0,0,0-22.77-16.23,42.86,42.86,0,0,0-42.23,11,1.5,1.5,0,0,0,2.12,2.12Z"/><path class="cls-2" d="M142.77,158.33A25.76,25.76,0,0,1,149,142.51c1.25-1.45-.86-3.59-2.12-2.12a29,29,0,0,0-7.06,17.94c-.06,1.93,2.94,1.93,3,0Z"/><path class="cls-2" d="M103.09,151.58a39.64,39.64,0,0,1,19.11-8c1.17-.15,2.13-1.59,1.06-2.56-2.71-2.47-2.22-6.58-.46-9.46,2.13-3.48,5.74-6,8.89-8.46,6.77-5.35,14-10.5,22.23-13.4a34.28,34.28,0,0,1,21.44-.91c6.61,2,12.49,6.44,15,13,3.4,9.09.62,19.19-2,28.09-.55,1.86,2.34,2.65,2.9.8,2.63-8.83,5.19-18.57,2.67-27.73-2.14-7.78-8-13.45-15.44-16.32a35.89,35.89,0,0,0-23.27-.52c-9.2,2.78-17.22,8.3-24.72,14.16-3.87,3-8.41,6.12-10.7,10.61-2,3.88-2,9.12,1.42,12.22l1.06-2.56a43.43,43.43,0,0,0-21.23,8.9c-1.52,1.18.62,3.29,2.12,2.12Z"/><path class="cls-2" d="M169.91,69.14a40.46,40.46,0,0,0,8.54,39.72c1.31,1.42,3.43-.7,2.12-2.12a37.42,37.42,0,0,1-7.76-36.81c.62-1.83-2.28-2.62-2.9-.79Z"/><path class="cls-2" d="M187.94,114.15c4.88-5.35,10.24-11.26,17.52-13.14,7.8-2,16,1.25,23.71-1.8A12.84,12.84,0,0,0,236.78,92c.7-1.8-2.2-2.58-2.89-.8-2.57,6.66-11.54,6.65-17.37,6.35-4.22-.21-8.51-.45-12.62.78a28.11,28.11,0,0,0-9.2,5,75,75,0,0,0-8.88,8.67c-1.3,1.43.82,3.55,2.12,2.12Z"/><path class="cls-2" d="M210.09,98a57.29,57.29,0,0,1,8.71-22.3c1.06-1.62-1.54-3.12-2.59-1.51a59.36,59.36,0,0,0-9,23c-.31,1.89,2.58,2.7,2.89.8Z"/><path class="cls-2" d="M190.76,25.93c.18,4.46,4.07,7.38,8.21,8,5,.79,10.4-.29,15.41-1,9.12-1.19,18.88-2.28,27.19,2.58a16.49,16.49,0,0,1,7.91,9.64,1.5,1.5,0,0,0,2.89-.79c-2.11-7.63-9.16-12.46-16.5-14.39-9.83-2.59-20,.1-29.86.94-2.68.23-5.52.49-8.12-.36-2.07-.68-4-2.39-4.13-4.7-.08-1.92-3.08-1.93-3,0Z"/><path class="cls-2" d="M244.81,50.92a50.1,50.1,0,0,1,45.55-6.34c1.82.65,2.61-2.25.8-2.89a52.9,52.9,0,0,0-47.87,6.64c-1.55,1.12-.06,3.72,1.52,2.59Z"/><path class="cls-2" d="M262.59,7.33a24.54,24.54,0,0,0-6.4,19.29,1.54,1.54,0,0,0,1.5,1.5,1.51,1.51,0,0,0,1.5-1.5,21.66,21.66,0,0,1,5.52-17.17C266,8,263.9,5.91,262.59,7.33Z"/><path class="cls-2" d="M312.22,2c.7,5.26,5.55,8.42,10.6,8.71,6.23.37,11.59-4,16.13-7.67,1.5-1.22-.63-3.33-2.12-2.12-3.69,3-8.05,6.67-13.07,6.81-3.47.1-8-1.85-8.54-5.73a1.55,1.55,0,0,0-1.5-1.5,1.5,1.5,0,0,0-1.5,1.5Z"/><path class="cls-2" d="M324.11,9.27a27,27,0,0,0-.76,27.27c2.31,4.12,6.51,7.66,6.47,12.73,0,4.49-3,8.7-6.63,11.16-4.95,3.35-11,4.4-16.8,5.42-1.89.34-1.09,3.23.8,2.89C317,67,328.3,64.25,332,53.75c1.75-4.94.26-9.55-2.64-13.68a44.77,44.77,0,0,1-4.16-6.41,23.15,23.15,0,0,1-2-7,24,24,0,0,1,3.5-15.87c1-1.63-1.55-3.14-2.59-1.52Z"/><path class="cls-2" d="M402,14.94l27.9,40.19c1.1,1.57,3.7.07,2.59-1.52l-27.9-40.18c-1.09-1.58-3.7-.08-2.59,1.51Z"/><path class="cls-2" d="M421.63,39.77a17.59,17.59,0,0,1,14.8,7.36,1.53,1.53,0,0,0,2.05.54,1.5,1.5,0,0,0,.54-2.05,20.69,20.69,0,0,0-17.39-8.85c-1.92,0-1.93,3,0,3Z"/><path class="cls-2" d="M375.47,53A35.85,35.85,0,0,1,392.11,35.4c1.72-.87.2-3.46-1.52-2.59a38.41,38.41,0,0,0-17.71,18.7,1.55,1.55,0,0,0,.54,2.06,1.52,1.52,0,0,0,2.05-.54Z"/><path class="cls-2" d="M429.41,64.91c4.06,4.66,5,11.06,4.86,17-.17,7.34-2,14.56-1.84,21.92a41.24,41.24,0,0,0,1.76,10.57A106,106,0,0,1,437,124.73a19.87,19.87,0,0,1-.23,9.17,13,13,0,0,1-5.34,6.91c-5.23,3.65-12.93,7-12.67,14.62.07,1.92,3.07,1.93,3,0-.23-6.61,7.79-9.44,12.13-12.72a15.63,15.63,0,0,0,5.53-7.28,20.75,20.75,0,0,0,.8-9.33c-.86-7.26-4.43-13.91-4.79-21.27-.36-7.55,1.57-15,1.8-22.49.21-7-1-14.16-5.73-19.55-1.27-1.46-3.38.67-2.12,2.12Z"/><path class="cls-2" d="M433.44,99.82c-6.1-3-10.09-8.84-15.77-12.47-4.6-2.94-11.37-4.57-16.32-1.51-6.14,3.81-5.24,11.81-5.23,18q0,12.25-1.17,24.47A252.63,252.63,0,0,1,390.71,156c-.4,1.89,2.49,2.69,2.89.8A257.52,257.52,0,0,0,399,110.66c.1-3.79.07-7.58.05-11.37,0-3,0-6.42,1.82-9,3.23-4.6,10-3.3,14.23-1,6.26,3.46,10.32,9.85,16.79,13.08,1.72.87,3.24-1.72,1.52-2.59Z"/><path class="cls-2" d="M345.23,119.21c2.35,7.14,5,15,11,20,2.75,2.32,6,3.59,9.22,5.16a16.65,16.65,0,0,1,4.09,2.56,7.25,7.25,0,0,1,1.38,1.65,3.05,3.05,0,0,1,.43.89,7.65,7.65,0,0,1-.57,1.5l-6.3,16.19c-.7,1.8,2.2,2.58,2.89.79L373,153.35a22.24,22.24,0,0,0,1.35-3.47,4.41,4.41,0,0,0-.81-2.71,11.27,11.27,0,0,0-3.28-3.49c-2.81-2-6.18-3.08-9.18-4.75a21.16,21.16,0,0,1-7.82-8,64.61,64.61,0,0,1-5.17-12.49c-.6-1.82-3.5-1-2.89.8Z"/><path class="cls-2" d="M435.47,137.75A56.52,56.52,0,0,1,460.36,167a55.82,55.82,0,0,1,2.82,10.79c.31,1.9,3.2,1.09,2.9-.8a59.38,59.38,0,0,0-19.53-35.05,58.24,58.24,0,0,0-9.56-6.78c-1.68-.95-3.2,1.64-1.52,2.59Z"/><path class="cls-2" d="M452.37,219.84a1.5,1.5,0,0,0,0-3,1.5,1.5,0,0,0,0,3Z"/><path class="cls-2" d="M452.31,216.28c-3.39-.34-7.06-.52-10.32.66a9.56,9.56,0,0,0-6.39,7.93c-.52,3.85.58,7.74-.16,11.58a19.35,19.35,0,0,1-4.78,9.43,18.8,18.8,0,0,1-10.21,5.8c-1.89.37-1.09,3.27.8,2.89a22.19,22.19,0,0,0,15.69-12.93,22.7,22.7,0,0,0,1.68-10.75c-.22-3.5-.77-7.89,2.53-10.2,3.12-2.18,7.58-1.77,11.16-1.41,1.91.19,1.9-2.81,0-3Z"/><path class="cls-2" d="M255.7,284.49c4.47,8.13,14.58,10.39,23.14,9.17,11-1.59,20.2-8.93,30.49-12.68,9.71-3.54,20-4.84,29.87-8a52.93,52.93,0,0,0,13.34-6.14A43.63,43.63,0,0,0,363,256.72c6.3-8.3,10.88-18.61,20-24.28l-1.51-2.59a55.23,55.23,0,0,1-40.26,9c-1.89-.32-2.7,2.57-.8,2.89A58.21,58.21,0,0,0,383,232.44c1.57-1.09.15-3.63-1.51-2.59-7.93,4.92-12.68,13.09-17.76,20.64A58.62,58.62,0,0,1,355,261.15a39.64,39.64,0,0,1-12.31,7.44c-9.29,3.66-19.27,5-28.82,7.77a84,84,0,0,0-14.41,5.73c-5,2.51-9.89,5.29-15.19,7.11-8.64,3-21,2.87-26-6.22-.93-1.69-3.52-.18-2.59,1.51Z"/><path class="cls-2" d="M281.25,290c-6.36,12.59-19.16,19.44-31.43,25.16-11.89,5.55-24.3,10.9-33,21.08a34.49,34.49,0,0,0-8.46,18.27c-.24,1.91,2.76,1.89,3,0,1.48-12.21,11.37-21.48,21.4-27.49,11.85-7.1,25.36-11.12,36.62-19.26a46.27,46.27,0,0,0,14.51-16.24c.87-1.72-1.72-3.24-2.59-1.52Z"/><path class="cls-2" d="M188,389a38.53,38.53,0,0,0,47.2-16.76,1.5,1.5,0,0,0-2.59-1.52,35.42,35.42,0,0,1-43.82,15.39c-1.8-.7-2.58,2.2-.79,2.89Z"/><path class="cls-2" d="M255.51,352.75a54.81,54.81,0,0,0,21.9-20.86l-1.69.69a37.47,37.47,0,0,0,28.88-5.67c4.06-2.8,7.18-6.45,10.39-10.14,2.92-3.34,6.16-7,10.54-8.37,5.2-1.64,10.48.59,15.54,1.72s10.1.95,14.63-1.9c4.13-2.6,7.25-6.46,10.36-10.13a123.84,123.84,0,0,1,11.3-11.72,121.92,121.92,0,0,1,30.51-20.19c1.75-.81.22-3.4-1.52-2.59a124.65,124.65,0,0,0-27.16,17.22,123.28,123.28,0,0,0-11.55,11c-3.41,3.7-6.41,7.82-10.11,11.24s-8.06,5.38-13.22,4.68-10.13-3.06-15.45-2.87c-10,.35-15.2,9.79-21.6,16a34.22,34.22,0,0,1-30.75,8.82,1.56,1.56,0,0,0-1.69.69A51.78,51.78,0,0,1,254,350.16c-1.71.9-.2,3.49,1.51,2.59Z"/><path class="cls-2" d="M389.58,274.73c3.43,8.07,13.77,11.71,21.62,8.12a1.51,1.51,0,0,0,.54-2.05,1.54,1.54,0,0,0-2.05-.54c-6.5,3-14.78-.6-17.52-7.05a1.53,1.53,0,0,0-2.06-.54,1.55,1.55,0,0,0-.53,2.06Z"/><path class="cls-2" d="M429,289a67.05,67.05,0,0,0,39.69-18.64,65.22,65.22,0,0,0,8.15-9.71c1.1-1.59-1.5-3.1-2.59-1.51a63.74,63.74,0,0,1-33.6,24.47A60.85,60.85,0,0,1,429,286c-1.9.2-1.92,3.2,0,3Z"/><path class="cls-2" d="M452.49,278.57c-5.07,5.54-5.24,14.22-1.24,20.41,4.39,6.78,12.36,10.16,20.21,10.54,8.46.4,17.05-2.21,24.62-5.82a68.15,68.15,0,0,0,18.45-13,66.86,66.86,0,0,0,14.39-20.81c.76-1.75-1.82-3.28-2.59-1.51A65.46,65.46,0,0,1,499,298.77c-12,6.88-30.7,12.65-42.3,2.07a15.69,15.69,0,0,1-5.22-9.76,13.15,13.15,0,0,1,3.1-10.39c1.3-1.42-.82-3.55-2.13-2.12Z"/><path class="cls-2" d="M474.09,307.54c-5.9-3.28-12.67-.61-17.76,2.92-2.69,1.87-5.2,4-8,5.64a26,26,0,0,1-8.63,3.08c-12.4,2.19-25.28-2.4-37.45,1.77-11.66,4-19,15.09-30.41,19.44-12.6,4.79-26.3,2.17-39.39,2.49-12.17.3-25.6,3.18-33.06,13.69-1.12,1.57,1.48,3.07,2.59,1.51,6.41-9,18.21-11.64,28.64-12.13,12.65-.6,25.49,1.82,37.94-1.38a43.93,43.93,0,0,0,16.14-8.44c4.62-3.58,9-7.61,14.14-10.42,11.08-6,23.79-2.54,35.73-3a36.36,36.36,0,0,0,9.93-1.61,33.06,33.06,0,0,0,9.23-5c5.1-3.73,12.21-9.65,18.87-5.95,1.68.94,3.2-1.65,1.51-2.59Z"/><path class="cls-2" d="M559.35,296.61a65.4,65.4,0,0,0-37.78-1c-4.07,1.12-7.92,2.83-11.88,4.27-4.44,1.61-9.17,2.87-13.75,1.1-1.8-.69-2.58,2.21-.8,2.9,8.12,3.12,16.3-1.78,23.83-4.33a62.39,62.39,0,0,1,25.22-3.05,61.74,61.74,0,0,1,14.36,3c1.84.61,2.63-2.29.8-2.89Z"/><path class="cls-2" d="M468.51,199.2a19.4,19.4,0,0,1,.11,30.21c-1.48,1.25.65,3.36,2.12,2.12a22.37,22.37,0,0,0-.11-34.46c-1.48-1.22-3.61.89-2.12,2.13Z"/><path class="cls-2" d="M475.81,222.26c13.65-1.13,27.51,7.23,32.59,20,.7,1.77,3.6,1,2.89-.8-5.54-14-20.41-23.47-35.48-22.23-1.91.16-1.93,3.16,0,3Z"/><path class="cls-2" d="M492.54,223.13a25.77,25.77,0,0,0,11.63-23.93c-.16-1.52-2.69-2.22-2.95-.4-.71,5,2.42,9,6.36,11.69s8.67,3.9,12.66,6.51a11.13,11.13,0,0,1,4.25,4.59c1.18,2.66.67,5.68.78,8.5.23,5.65,3.24,10.3,6.24,14.89,3.13,4.77,7,11.26,4,17-.89,1.71,1.7,3.23,2.59,1.51,2.61-5,1.21-10.68-1.26-15.45s-6.5-9.06-8-14.42c-.83-2.91-.41-5.84-.61-8.81a12.19,12.19,0,0,0-2.58-7c-2.94-3.68-7.55-5.46-11.73-7.3s-10.57-5.47-9.81-10.94l-2.94-.39A22.81,22.81,0,0,1,491,220.54c-1.62,1-.12,3.64,1.51,2.59Z"/><path class="cls-2" d="M537.27,257.68a50.18,50.18,0,0,1,25.64,8.7c1.6,1.09,3.1-1.51,1.51-2.59a53,53,0,0,0-27.15-9.11c-1.93-.09-1.93,2.91,0,3Z"/><path class="cls-2" d="M299.55,384.6A61.4,61.4,0,0,1,322.1,364c9.14-4.91,19.15-7.86,28.95-11.15a166.93,166.93,0,0,0,16.28-6.24c1.75-.8.23-3.39-1.52-2.59-19.12,8.74-41,11.51-57.34,25.74A63.43,63.43,0,0,0,297,383.09c-1,1.62,1.55,3.13,2.59,1.51Z"/><path class="cls-2" d="M350.48,428.77l16.35-2.22a1.51,1.51,0,0,0,1.05-1.85,1.55,1.55,0,0,0-1.85-1l-16.35,2.21a1.51,1.51,0,0,0-1,1.85,1.54,1.54,0,0,0,1.84,1Z"/><path class="cls-2" d="M476.16,93.71c2.82,1,4.54,3.63,5.19,6.43a13.17,13.17,0,0,1-1.85,9.52c-3.91,6.76-11,10.8-15.78,16.83-1.19,1.5.91,3.63,2.12,2.12,5.43-6.83,13.74-11.33,17.33-19.59a15,15,0,0,0,.7-11A11.34,11.34,0,0,0,477,90.82c-1.83-.63-2.61,2.27-.79,2.89Z"/><path class="cls-2" d="M473.41,117.61a26.88,26.88,0,0,0,11.32,20c1.58,1.12,3.08-1.48,1.52-2.59a23.68,23.68,0,0,1-9.84-17.4c-.13-1.91-3.14-1.93-3,0Z"/><path class="cls-2" d="M437.13,83.94a10.86,10.86,0,0,0,9.46.7,1.53,1.53,0,0,0,1.05-1.84,1.51,1.51,0,0,0-1.84-1,9.39,9.39,0,0,1-1.94.57l-.26,0c.17,0,.17,0,0,0l-.53,0c-.34,0-.68,0-1,0l-.47,0c-.18,0-.18,0,0,0l-.26,0c-.33-.06-.66-.14-1-.23l-.45-.14c-.06,0-.57-.23-.27-.1a8.67,8.67,0,0,1-1-.49,1.5,1.5,0,0,0-1.52,2.59Z"/><path class="cls-2" d="M454.85,76.39a29.28,29.28,0,0,1,31.4-8.11c1.82.65,2.6-2.25.79-2.9a32.22,32.22,0,0,0-34.31,8.89c-1.27,1.44.84,3.57,2.12,2.12Z"/><path class="cls-2" d="M547.32,133.58c2.09,3.93.1,8.63-1.41,12.4s-3.1,8.37-1.69,12.5,5.41,5.74,7.54,9.23,2.3,7.93,2,11.95c-.43,5.54-1.6,11-.51,16.54.37,1.9,3.26,1.09,2.89-.79-1.77-9.09,3-18.46-.83-27.34a15,15,0,0,0-3.53-5c-1.44-1.35-3.15-2.56-4.15-4.29-2.26-3.89-.09-8.83,1.41-12.58,1.79-4.49,3.3-9.57.88-14.13-.9-1.71-3.49-.19-2.59,1.51Z"/><path class="cls-2" d="M544.33,215.09a27.91,27.91,0,0,1,15.47,27c-.15,1.92,2.85,1.91,3,0a30.8,30.8,0,0,0-17-29.56c-1.73-.84-3.25,1.75-1.51,2.59Z"/><path class="cls-2" d="M569.31,206.09a25.52,25.52,0,0,0,13.41,10.1,1.5,1.5,0,0,0,.8-2.89,22.31,22.31,0,0,1-11.62-8.72,1.53,1.53,0,0,0-2-.54,1.51,1.51,0,0,0-.54,2.05Z"/><path class="cls-2" d="M506,163.74c3.09.06,5,3.13,5.65,5.85.9,3.95-.25,8.1-.06,12.1a24.13,24.13,0,0,0,7.72,16.24,23.48,23.48,0,0,0,9,5.26c1.85.57,2.64-2.32.8-2.89A21.23,21.23,0,0,1,516,188,22.33,22.33,0,0,1,514.65,178c.24-3.77.7-7.66-.81-11.24-1.39-3.25-4.17-5.92-7.86-6-1.93-.05-1.93,2.95,0,3Z"/><path class="cls-2" d="M515.08,175.84,520.41,164a1.56,1.56,0,0,0-.54-2.06,1.52,1.52,0,0,0-2,.54l-5.33,11.86a1.5,1.5,0,1,0,2.59,1.51Z"/><path class="cls-2" d="M366.67,343.25a28.14,28.14,0,0,0-6.36,26c2.59,10,10.87,16.65,20.08,20.39,6.34,2.57,13.12,3.8,19.82,5,1.88.34,2.69-2.55.79-2.89-10.19-1.86-21.14-3.81-29.38-10.58a24.53,24.53,0,0,1-8.9-23.06,24.13,24.13,0,0,1,6.07-12.73c1.32-1.41-.8-3.53-2.12-2.12Z"/><path class="cls-2" d="M398.69,391.52c-1.69,9.39-1.15,19.26,2.59,28.12a36.71,36.71,0,0,0,17.39,18.78,31.18,31.18,0,0,0,14,3.3,1.5,1.5,0,0,0,0-3,30.17,30.17,0,0,1-21.09-9,37.68,37.68,0,0,1-10.48-22.42,51.12,51.12,0,0,1,.49-15c.34-1.89-2.55-2.7-2.89-.8Z"/><path class="cls-2" d="M416.13,337.62c-9.91-2.32-20.31,1.43-27.57,8.31-7.85,7.44-11.67,18.18-12.85,28.71-.47,4.14-1,11.25,4.42,12.45,1.88.42,2.69-2.48.8-2.9-3.63-.8-2.49-7.23-2.2-9.76a51.92,51.92,0,0,1,3.51-13.81c3.52-8.45,9.91-15.73,18.62-19a25.06,25.06,0,0,1,14.48-1.13c1.87.44,2.68-2.45.79-2.89Z"/><path class="cls-2" d="M391.08,389.72c-2.57-7.35-1.14-15.43,2.85-22,4.18-6.87,11.12-11.58,18.66-14.11a49.8,49.8,0,0,1,13.68-2.49c1.92-.09,1.93-3.09,0-3-8.8.4-17.74,2.73-25,7.79A33,33,0,0,0,387.3,376.6a26.77,26.77,0,0,0,.89,13.92c.64,1.81,3.53,1,2.89-.8Z"/><path class="cls-2" d="M399,392.24a41,41,0,0,1,23.48-25.74,38.36,38.36,0,0,1,9.81-2.62c1.89-.23,1.92-3.24,0-3a44.13,44.13,0,0,0-31.63,20.41,41.71,41.71,0,0,0-4.56,10.15c-.55,1.85,2.35,2.65,2.9.8Z"/><path class="cls-2" d="M413.6,385.33c1.58,3.42,5.24,5.17,8.85,5.47,4.55.37,8.86-1.79,12.94-3.49a160,160,0,0,1,28-8.74c1.88-.4,1.08-3.29-.8-2.89a159.7,159.7,0,0,0-25.78,7.84c-3.89,1.55-7.82,3.75-12,4.24-3.32.38-7.05-.71-8.55-3.94-.81-1.75-3.39-.23-2.59,1.51Z"/><path class="cls-2" d="M418.1,400.27c16.2,7.92,33-3.22,46.71-11.13l13.8-8a1.5,1.5,0,0,0-1.51-2.59c-7.53,4.34-15,8.74-22.6,13-6.89,3.91-14.26,7.67-22.3,8.24a24.51,24.51,0,0,1-12.58-2.17c-1.73-.84-3.25,1.74-1.52,2.59Z"/><path class="cls-2" d="M399.05,393.11c.72,5.54,4.58,9.94,9.5,12.36,5.94,2.9,12.73,2.83,19.18,2.7,1.93,0,1.93-3,0-3-5.65.11-11.71.32-17-2-4.13-1.79-8.06-5.39-8.67-10.07a1.54,1.54,0,0,0-1.5-1.5,1.52,1.52,0,0,0-1.5,1.5Z"/><path class="cls-2" d="M400,409.31a47.86,47.86,0,0,0,56.62-3.39c1.49-1.23-.64-3.35-2.12-2.13A45.1,45.1,0,0,1,413,412.1a45.76,45.76,0,0,1-11.56-5.38c-1.62-1.05-3.13,1.55-1.51,2.59Z"/><path class="cls-2" d="M402.86,422.12c6.14,4.9,13.78,7.16,21.58,7.37,8.65.22,17.12-2.15,25.06-5.4,4.74-1.94,9.35-4.17,13.95-6.41,1.74-.85.22-3.44-1.51-2.59C447.82,422,432.07,429.46,416,425.35A29.34,29.34,0,0,1,405,420c-1.49-1.2-3.63.91-2.12,2.12Z"/><path class="cls-2" d="M432.42,440.38a49.68,49.68,0,0,0,39.91-9,46.5,46.5,0,0,0,8.52-8.3c1.19-1.5-.92-3.63-2.12-2.12a46.79,46.79,0,0,1-34.25,17.46,43.88,43.88,0,0,1-11.26-.9c-1.88-.4-2.69,2.49-.8,2.89Z"/><path class="cls-2" d="M438.25,373.07c9.41-5.63,20.54-.24,29.36,3.88,4.83,2.25,9.74,4.39,15,5.27a42.44,42.44,0,0,0,14.91-.18,41,41,0,0,0,15.59-6.48c1.59-1.08.09-3.68-1.51-2.59A39,39,0,0,1,483,379.26c-10.62-1.89-19.4-9-30-11-5.54-1-11.39-.75-16.33,2.2a1.5,1.5,0,0,0,1.52,2.59Z"/><path class="cls-2" d="M487.91,374.26c8.31-1.2,16.32,3,24.65,2.13,6.43-.69,13.14-5.08,13.21-12.18a1.5,1.5,0,0,0-3,0,8.76,8.76,0,0,1-4,6.9,15.29,15.29,0,0,1-9.42,2.4c-7.52-.21-14.66-3.24-22.25-2.15-1.91.28-1.1,3.17.79,2.9Z"/><path class="cls-2" d="M486.42,361.78c7.24,4.54,16,4.85,24.31,5.1s17.62-.29,22.7-7.75c1.08-1.6-1.51-3.11-2.6-1.52-4.57,6.73-13.82,6.47-21,6.24-7.48-.23-15.36-.57-21.89-4.66-1.64-1-3.15,1.57-1.51,2.59Z"/><path class="cls-2" d="M437.66,344.79c3.93,6.6,10.83,10.76,18.16,12.6,9.19,2.32,18.78,1,28-.68,9.62-1.73,19.5-4,29.31-2.58,8.95,1.3,17.29,5.59,26.39,6.07,7.64.4,16.3-2.13,20.19-9.26.93-1.69-1.66-3.21-2.59-1.51-3.21,5.88-10.26,7.91-16.57,7.8-8.55-.14-16.51-4.12-24.81-5.69-9.15-1.72-18.38-.35-27.43,1.3s-18.5,3.69-27.8,2.41c-8-1.08-16-4.89-20.22-12a1.5,1.5,0,0,0-2.59,1.51Z"/><path class="cls-2" d="M433.61,332a39,39,0,0,0,18.88,14,38.44,38.44,0,0,0,26.12-.64c1.78-.69,1-3.59-.8-2.89a35.2,35.2,0,0,1-41.61-12c-1.12-1.55-3.73-.06-2.59,1.51Z"/><path class="cls-2" d="M439.58,327.4a49.11,49.11,0,0,0,35.57,13.77,47.06,47.06,0,0,0,11.13-1.69,1.5,1.5,0,0,0-.8-2.89,46,46,0,0,1-43.77-11.31c-1.38-1.35-3.51.77-2.13,2.12Z"/><path class="cls-2" d="M463.36,329.82a66.9,66.9,0,0,0,41.56-8.74,1.5,1.5,0,0,0-1.52-2.59,64.26,64.26,0,0,1-40,8.33c-1.91-.23-1.9,2.78,0,3Z"/><path class="cls-2" d="M527.49,313a15.26,15.26,0,0,0,16.63,5.93c3-.94,5.6-2.83,8.13-4.69s5.21-3.88,8.38-4.29c1.89-.24,1.91-3.24,0-3-6.16.79-10.06,5.63-15.35,8.29a12.17,12.17,0,0,1-15.2-3.75c-1.1-1.57-3.7-.08-2.59,1.51Z"/><path class="cls-2" d="M505.21,331.5c5.33-6.78,15-3.24,21.59-.89a39.43,39.43,0,0,0,12.35,2.64,32.52,32.52,0,0,0,22.77-8.7c1.41-1.32-.71-3.43-2.12-2.12a29.56,29.56,0,0,1-21.43,7.79c-8.53-.4-16-6-24.62-5.63-4,.16-8.11,1.54-10.66,4.79-1.18,1.5.93,3.64,2.12,2.12Z"/><path class="cls-2" d="M505,343.51c7.14-3.21,15.29-2.37,22.81-1.24,7.21,1.09,14.51,2.5,21.82,1.58A26.75,26.75,0,0,0,560.93,340c1.62-1,.12-3.64-1.51-2.59-6.15,3.95-13.6,4.15-20.65,3.44-7.58-.75-15-2.66-22.68-2.54a31.59,31.59,0,0,0-12.57,2.64c-1.76.78-.23,3.37,1.52,2.59Z"/><path class="cls-2" d="M532.36,375.13A15.11,15.11,0,0,0,556,370.22c.82-1.73-1.76-3.26-2.59-1.51a12.5,12.5,0,0,1-8.15,6.83A12.33,12.33,0,0,1,534.48,373c-1.46-1.24-3.6.87-2.12,2.12Z"/><path class="cls-2" d="M507.07,392.34c7,1.89,14.16,1,21.21.13a147.22,147.22,0,0,0,21.4-3.66,1.5,1.5,0,0,0-.79-2.89,142.3,142.3,0,0,1-20.61,3.55c-6.75.79-13.74,1.79-20.41,0a1.51,1.51,0,0,0-.8,2.9Z"/><path class="cls-2" d="M496.47,404c3.6.05,6.94,1.45,10.2,2.84a37.87,37.87,0,0,0,10.41,3.27c8,1,15.9-2,23.24-4.95,1.77-.71,1-3.61-.8-2.9-7.17,2.85-15.09,6.06-22.95,4.77-7-1.14-12.87-5.92-20.1-6a1.5,1.5,0,0,0,0,3Z"/><path class="cls-2" d="M494.89,417.42a54.93,54.93,0,0,0,42.52-2c1.74-.83.22-3.42-1.52-2.59a51.91,51.91,0,0,1-40.2,1.73c-1.82-.68-2.6,2.22-.8,2.89Z"/><path class="cls-2" d="M491.05,431.71a126.27,126.27,0,0,0,35.64,0c1.9-.27,1.09-3.16-.8-2.89a121.75,121.75,0,0,1-34.05,0,1.54,1.54,0,0,0-1.84,1.05,1.5,1.5,0,0,0,1.05,1.84Z"/><path class="cls-2" d="M485.82,442c5.12-.27,9.45,2.86,14.19,4.25,4.13,1.21,8.77,1.27,12.17-1.7,1.46-1.28-.67-3.39-2.12-2.12-3,2.63-7.61,1.62-11,.34-4.33-1.65-8.47-4-13.25-3.77-1.92.1-1.94,3.1,0,3Z"/></g></g></g></g></svg>