<svg xmlns="http://www.w3.org/2000/svg" viewBox="0 0 759.18 491.87"><defs><style>.cls-1{fill:#d9d80c;}.cls-2{fill:#080752;}.cls-3{fill:#4eab9e;}</style></defs><title>Asset 17</title><g id="Layer_2" data-name="Layer 2"><g id="Community"><g id="_2_Outline" data-name="2 Outline"><path class="cls-1" d="M1.48,335.87q87.24,15.87,172.91,39.19c15.17,4.13,30.41,8.48,44.34,15.77,9.17,4.8,17.63,10.8,26.07,16.79l87.64,62.18a20.63,20.63,0,0,0,18.71,2.45,11.39,11.39,0,0,1,6.26-.4c5.5,1.36,11.32,4.8,16.39,2.28,6.43-3.2,5.47-12.54,3.53-19.46,12,5.74,24.26-.94,28.84-13.43,3.58,4.3,15.33,1.71,17.63-3.39s1.17-11.23-1.17-16.32c-17.13-37.18-48.24-68.53-82.48-79.38-37.37-11.85-75-22.36-113.38-30.26A1481.7,1481.7,0,0,1,2,246.76"/><path class="cls-2" d="M1.08,337.31q44,8,87.69,17.93t86.71,21.67c13.65,3.73,27.36,7.7,40.08,14,13,6.42,24.59,15.26,36.36,23.6L325.86,467c5.34,3.79,10.17,7.54,16.94,8a25,25,0,0,0,8.75-1.21c3.56-1.08,6.4-.21,9.8.93,5,1.71,10.95,3.34,15.36-.71,3.4-3.11,3.86-8.17,3.44-12.49a43.5,43.5,0,0,0-1.37-7.16L376.57,456a21.45,21.45,0,0,0,18.48.24c6.05-2.85,10.24-8.42,12.57-14.56l-2.51.66c3.38,3.74,9.82,2.93,14,1.22a11.59,11.59,0,0,0,5.63-4.26c1.83-3,2.05-6.93,1.63-10.28-.94-7.42-5.35-14.56-9-21a171.51,171.51,0,0,0-12.76-19.28,155.26,155.26,0,0,0-31.43-31.12A121.52,121.52,0,0,0,355,346.52a143.57,143.57,0,0,0-20.69-7.79c-35.38-11.07-71.18-20.87-107.5-28.37q-54-11.13-107-26.25-52.82-15-104.42-34-6.47-2.37-12.91-4.81c-1.81-.68-2.59,2.22-.8,2.9Q51.09,266.89,101.81,282t102.36,26.57c17.28,3.84,34.65,7.24,51.85,11.38s34.45,8.81,51.51,13.8q13,3.8,26,7.85a139.57,139.57,0,0,1,20.25,7.63,131,131,0,0,1,33.72,24.47,164.21,164.21,0,0,1,27,35.22q2.71,4.74,5.13,9.65c1.73,3.53,3.46,7.13,3.87,11.09.33,3.14.1,7.22-2.52,9.38a13.72,13.72,0,0,1-7.38,2.79c-2.19.2-4.76.06-6.32-1.67a1.52,1.52,0,0,0-2.51.66c-4.14,10.93-15.4,17.72-26.63,12.53a1.53,1.53,0,0,0-2.21,1.7c1.22,4.41,2.4,9.92.45,14.3-2.78,6.22-9.93,3.8-14.85,2.14-2.81-.94-5.47-1.71-8.44-1.25-3.17.49-6,1.72-9.23,1.69-7-.09-12-4.46-17.46-8.3l-71.89-51c-11.48-8.14-22.8-16.78-35.32-23.28-11.91-6.19-24.76-10.28-37.64-13.9-27.76-7.79-55.77-14.77-83.86-21.27q-42.39-9.79-85.16-17.81-5.3-1-10.6-2c-1.89-.34-2.7,2.55-.8,2.89Z"/></g><g id="_2_Lines" data-name="2 Lines"><path class="cls-2" d="M293.72,411.41a198.55,198.55,0,0,1,49.65,45.47c3.92,5.07,7.58,10.35,11,15.78,1,1.63,3.63.12,2.59-1.52a201.15,201.15,0,0,0-45.77-51q-7.69-6.06-15.94-11.36c-1.63-1.05-3.14,1.55-1.52,2.59Z"/><path class="cls-2" d="M330.09,402.39a461.11,461.11,0,0,1,36.49,40.3q4.83,6,9.46,12.19c1.14,1.53,3.75,0,2.59-1.52a465.91,465.91,0,0,0-35.49-42q-5.37-5.64-10.93-11.09c-1.38-1.35-3.5.77-2.12,2.12Z"/><path class="cls-2" d="M353.36,375.7c1.31,11.7,9.46,20.65,18.05,28,4.58,3.91,9.29,7.64,13.67,11.76a107.54,107.54,0,0,1,10.78,11.6,83.69,83.69,0,0,1,9.65,15.59c.84,1.74,3.43.22,2.6-1.52a91.83,91.83,0,0,0-18.26-25.23c-4.17-4.14-8.64-7.92-13.15-11.67a92.82,92.82,0,0,1-12.63-12c-3.91-4.73-7-10.39-7.71-16.56-.22-1.9-3.22-1.92-3,0Z"/><path class="cls-2" d="M301.29,440.27a8.54,8.54,0,0,1,10.54-6.3,1.51,1.51,0,0,0,.8-2.9,11.55,11.55,0,0,0-14.23,8.4c-.48,1.87,2.42,2.67,2.89.8Z"/><path class="cls-2" d="M307.19,444a10.3,10.3,0,0,0,7.78-1.61,10.41,10.41,0,0,0,4.15-6.23,1.55,1.55,0,0,0-1.05-1.85,1.53,1.53,0,0,0-1.85,1.05,6.63,6.63,0,0,1-1,2.53,5,5,0,0,1-.82,1.06c-.16.17-.33.33-.5.49l-.3.26-.12.09c.07-.06.07-.06,0,0a7,7,0,0,1-2.68,1.22,7.52,7.52,0,0,1-2.79.1,1.54,1.54,0,0,0-1.84,1.05,1.5,1.5,0,0,0,1,1.84Z"/><path class="cls-2" d="M309.45,439.69a9.37,9.37,0,0,0,1.26-.54,7.79,7.79,0,0,0,1.15-.79,7.36,7.36,0,0,0,1.62-1.81,1.5,1.5,0,0,0-.54-2.05,1.54,1.54,0,0,0-1.15-.15,1.63,1.63,0,0,0-.9.69c-.09.14-.18.27-.28.4l.23-.3a5.89,5.89,0,0,1-1.12,1.11L310,436a6,6,0,0,1-1.37.79l.36-.15-.37.14a1.52,1.52,0,0,0-1,1.85,1.54,1.54,0,0,0,.69.89,1.48,1.48,0,0,0,1.16.15Z"/><path class="cls-2" d="M340.62,436.55a9.67,9.67,0,0,1,10.67-5c1.88.47,2.68-2.43.8-2.89A12.68,12.68,0,0,0,338,435a1.54,1.54,0,0,0,.54,2.05,1.51,1.51,0,0,0,2.05-.53Z"/><path class="cls-2" d="M343.33,443.71a12.3,12.3,0,0,0,13.18-7.93,1.5,1.5,0,0,0-1-1.84,1.53,1.53,0,0,0-1.85,1,9.1,9.1,0,0,1-3.79,4.51,8.89,8.89,0,0,1-2.79,1.15c-.28.06-.57.12-.86.16l-.15,0-.39,0c-.27,0-.53,0-.8,0l-.47,0-.24,0a1.54,1.54,0,0,0-1.84,1.05,1.5,1.5,0,0,0,1,1.84Z"/><path class="cls-2" d="M344.17,439.17l6.85-4.26a1.5,1.5,0,1,0-1.51-2.59l-6.86,4.26a1.5,1.5,0,0,0,1.52,2.59Z"/><path class="cls-2" d="M365.52,425.87c3.19-3.79,7.62-9,13.25-7.51a1.5,1.5,0,0,0,.79-2.9,11.88,11.88,0,0,0-9.25,1.67,30.79,30.79,0,0,0-6.91,6.62,1.54,1.54,0,0,0,0,2.12,1.5,1.5,0,0,0,2.12,0Z"/><path class="cls-2" d="M370.3,433.57a16.3,16.3,0,0,0,18.84-10,1.51,1.51,0,0,0-1.05-1.85,1.54,1.54,0,0,0-1.85,1.05,13.44,13.44,0,0,1-15.14,7.94c-1.88-.4-2.69,2.49-.8,2.9Z"/><path class="cls-2" d="M367.35,430.87a12.3,12.3,0,0,0,9-1.35,1.5,1.5,0,1,0-1.51-2.59c-.3.17-.61.34-.93.49,0,0-.43.18-.12.06l-.49.18a14.71,14.71,0,0,1-1.85.46c-.11,0-.08,0,.08,0l-.26,0-.53,0c-.3,0-.61,0-.92,0s-.61,0-.91-.07c.37,0-.19,0-.25-.05l-.51-.11a1.5,1.5,0,1,0-.8,2.9Z"/><path class="cls-2" d="M374.71,425.56l6.64-3.72a1.5,1.5,0,1,0-1.52-2.59L373.2,423a1.5,1.5,0,0,0-.54,2,1.53,1.53,0,0,0,2,.54Z"/><path class="cls-2" d="M387.9,402a11.18,11.18,0,0,1,12.87-4.93c1.84.59,2.63-2.31.8-2.89a14.21,14.21,0,0,0-16.26,6.3A1.5,1.5,0,0,0,387.9,402Z"/><path class="cls-2" d="M393.85,411.08a9.9,9.9,0,0,1,3.17-1,18,18,0,0,0,3.43-.82c2.27-.91,4.31-2.65,4.38-5.27a1.5,1.5,0,0,0-3,0,1.68,1.68,0,0,1-.2.76,2.82,2.82,0,0,1-.18.29c-.14.23.05,0-.06.08a4.89,4.89,0,0,1-.45.46,4.83,4.83,0,0,1-1,.66,2.1,2.1,0,0,1-.26.13c-.42.2.12,0-.12.05l-.7.23c-2.19.61-4.47.67-6.49,1.84a1.5,1.5,0,0,0,1.52,2.59Z"/><path class="cls-2" d="M393.07,405.79c.06-.09.11-.15,0,0l.21-.26c.14-.16.27-.32.42-.47a10.72,10.72,0,0,1,.85-.8l.27-.22c-.12.1-.06.05,0,0s.33-.23.51-.35a11.49,11.49,0,0,1,1.08-.61l.25-.12s.28-.13.14-.06l.2-.08.26-.1c.39-.14.79-.25,1.19-.35l.61-.12.14,0,.15,0a11.39,11.39,0,0,1,1.31-.05,1.52,1.52,0,0,0,1.5-1.5,1.54,1.54,0,0,0-1.5-1.5,12.44,12.44,0,0,0-10.23,5.17,1.51,1.51,0,0,0,.54,2.05,1.54,1.54,0,0,0,2.05-.54Z"/><path class="cls-3" d="M409.57,441.79a22.63,22.63,0,0,1,14.26-7.27,10.78,10.78,0,0,1-14.29,7.79"/><path class="cls-2" d="M410.64,442.85A21.2,21.2,0,0,1,423.83,436l-1.45-1.9a9.28,9.28,0,0,1-12.44,6.74,1.5,1.5,0,0,0-.79,2.89,12.26,12.26,0,0,0,16.12-8.83c.2-.86-.42-2-1.44-1.9a24.33,24.33,0,0,0-15.32,7.71c-1.29,1.43.82,3.56,2.13,2.12Z"/><path class="cls-3" d="M366.78,469.54a4.1,4.1,0,0,0-.7,1.57,1.44,1.44,0,0,0,.65,1.5,2.06,2.06,0,0,0,1.3.06,12.68,12.68,0,0,0,6.85-3.22c1.79-1.83,2.65-4.74,1.55-7.05l-10,6.39"/><path class="cls-2" d="M365.48,468.78a4.92,4.92,0,0,0-.91,2.6,2.94,2.94,0,0,0,1.29,2.46,3.88,3.88,0,0,0,2.9.21,18.09,18.09,0,0,0,2.19-.58c3.19-1.07,6-3.16,7.09-6.45a7.36,7.36,0,0,0-.31-5.38,1.51,1.51,0,0,0-2.05-.54l-10,6.4a1.53,1.53,0,0,0-.54,2.05,1.51,1.51,0,0,0,2.05.54l10-6.4-2.05-.54c-.09-.2.1.3.12.36s.07.29.11.43,0,.2,0,.05c0,.1,0,.2,0,.3s0,.3,0,.46,0,.4,0,.6c0-.26,0,.16-.05.21a6.45,6.45,0,0,1-.32,1l-.09.21c-.1.18-.19.37-.3.54s-.16.27-.25.4l-.18.25q.1-.15-.06.06a8.12,8.12,0,0,1-1.48,1.32,11.63,11.63,0,0,1-4,1.65,9.36,9.36,0,0,1-1.15.23c.12,0,.08,0-.11,0l.08,0,.13.13c-.12-.12-.12-.12,0,0s0-.2,0,.12a2.43,2.43,0,0,1,0-.27c0,.15,0,.13,0-.07a6,6,0,0,1,.47-.89,1.5,1.5,0,0,0-2.59-1.51Z"/><path class="cls-3" d="M347.56,462.83a4.59,4.59,0,0,0-5.78.35,5.19,5.19,0,0,0-1,5.81,6,6,0,0,0,5,3.34,5.62,5.62,0,0,0,5.75-3.83c.65-2.42-1.17-5.3-3.66-5.43"/><path class="cls-2" d="M348.32,461.53a6.09,6.09,0,0,0-7.92.92,6.75,6.75,0,0,0-.5,8.11,7.59,7.59,0,0,0,7.71,3.11,6.8,6.8,0,0,0,5.47-5.72,5.9,5.9,0,0,0-5.27-6.38,1.5,1.5,0,0,0,0,3c.43,0-.26-.09.14,0l.27.07.25.09c-.31-.12.09.06.13.08s.46.31.25.14a4.54,4.54,0,0,1,.58.58c-.16-.19,0,0,0,0l.18.29c.05.07.3.58.19.32a4.2,4.2,0,0,1,.21.66l.06.27c-.06-.31,0,.08,0,.15s0,.28,0,.42,0,.3,0,0a4.09,4.09,0,0,1-.17.69s-.1.27,0,.06c-.05.11-.11.22-.17.33s-.12.21-.19.31-.28.36-.12.17c-.16.18-.33.36-.51.53l-.23.19c.18-.14,0,0,0,0-.22.13-.42.27-.65.38l-.27.13-.27.1c-.22.07-.44.12-.66.17l-.24,0c.2,0-.28,0-.25,0a5.15,5.15,0,0,1-.68,0c-.29,0,.34.08-.15,0l-.46-.1a4.55,4.55,0,0,1-2.23-1.3,4.27,4.27,0,0,1-.71-1c-.14-.26-.06-.13,0-.06-.05-.15-.1-.29-.14-.44s-.05-.2-.08-.3-.06-.48,0-.21a6.54,6.54,0,0,1,0-.77l0-.3c0,.25,0-.08,0-.14a2.91,2.91,0,0,1,.49-1.27,2.88,2.88,0,0,1,2-1.36c.07,0,.39,0,.12,0l.45,0h.38c.1,0,.09,0,0,0l.22,0,.36.09s.43.17.19.06a4.52,4.52,0,0,1,.76.46,1.52,1.52,0,0,0,2.06-.53,1.55,1.55,0,0,0-.54-2.06Z"/></g><g id="_1_Outline" data-name="1 Outline"><path class="cls-1" d="M239.55,2.61,219.63,165.15c-2.15,17.55-4.45,35.58-12.93,51.1-12.21,22.34-35.25,36.15-53.91,53.48a172.78,172.78,0,0,0-46.24,72c-1.54,4.64-2.88,9.61-1.7,14.36s5.8,9,10.59,8c2.39-.48,4.46-2.13,6.88-2.41,4.14-.49,5.36.57,6.39,4.61,3.52,13.86,20.17,11.84,23.06,9.61.88-.67,11.56,12,26.28,4.48,6.67,8.16,19.07,12,28.68,7.67s16.51-13.09,21.5-22.37,8.44-19.31,13.43-28.59c4.71-8.74,12-17.48,21.94-18.25,2.19-.16,5.17,2.84,7.36,2.59,4.18-.48,4.56-7.19,5.54-10.37,5.56-18.06,12.32-35.65,16-54.18q25.14-127,50.27-253.95"/><path class="cls-2" d="M238.05,2.61,223.37,122.42c-2.38,19.4-4.27,38.94-7.34,58.24a127,127,0,0,1-6.53,26,77.12,77.12,0,0,1-12.75,21.49c-10.26,12.36-23.3,22-35.55,32.24a186.75,186.75,0,0,0-33.6,36.09,173.55,173.55,0,0,0-22.29,44.23c-2.48,7.39-4.52,16.88,2.42,22.57a9.64,9.64,0,0,0,9.28,1.93c2.27-.76,7-3.87,9.15-1.36.84,1,1,2.6,1.37,3.79a16.44,16.44,0,0,0,2,4.2,15.16,15.16,0,0,0,5.57,5,21.29,21.29,0,0,0,13.13,1.83c.91-.15,3.69-.49,4.22-1.41.15-.25-.95.32-1,0a3.76,3.76,0,0,0,.55.35l2,1.42c4.38,3.06,9.44,5.26,14.86,5.19a23,23,0,0,0,10-2.57l-1.81-.24c7.71,9.22,21.31,12.74,32.13,7.11,12.48-6.49,19.57-19.46,25.09-31.8,3.14-7,6-14.26,9.88-20.91,3.23-5.5,7.49-10.88,13.32-13.76,2.58-1.27,5.74-2.38,8.43-1,2.16,1.12,4.35,2.5,6.81,1.4,4.31-1.93,4.41-8.2,5.62-12.1,4.79-15.41,10.43-30.59,14.17-46.31,1.94-8.13,3.39-16.38,5-24.58l4.86-24.56,19.75-99.76,19.75-99.76,2.4-12.1c.37-1.88-2.52-2.69-2.9-.79L322,100l-19.15,96.74-9.65,48.75c-1.58,8-3.08,16-5.19,23.82-2,7.55-4.42,15-6.86,22.43-2.23,6.81-5,13.67-6.55,20.66-.47,2.11-.76,4.74-2.15,6.49-1.82,2.27-4.47-.23-6.45-1-2.45-1-5.31-.28-7.72.6a25.42,25.42,0,0,0-7.6,4.5c-4.8,4-8.31,9.43-11.16,14.95-6.7,13-10.83,27.62-20.57,38.83-4.13,4.75-9.49,9.28-15.69,10.94A23.5,23.5,0,0,1,185.93,385a25,25,0,0,1-6.82-5.73,1.53,1.53,0,0,0-1.82-.23,19.51,19.51,0,0,1-18.54-.57,51,51,0,0,1-4.77-3.14c-1-.73-1.82-1.26-3.07-.7a16.77,16.77,0,0,1-10,1,13.18,13.18,0,0,1-10.73-9.79c-.65-2.32-1.52-4.78-4.05-5.55-3.3-1-6.34.59-9.31,1.76-3.9,1.55-7.55-.5-9.52-4-2.22-3.95-1.38-8.83-.21-13,4.48-15.87,12.31-31.14,21.5-44.77a178.5,178.5,0,0,1,32.64-36.07c12-10.18,24.8-19.52,35.31-31.29a84,84,0,0,0,13-19,102.67,102.67,0,0,0,8-24.8c1.7-8.45,2.72-17,3.77-25.57l3.6-29.38L239.27,17.11l1.78-14.5c.24-1.91-2.77-1.9-3,0Z"/></g><g id="_1_Lines" data-name="1 Lines"><path class="cls-2" d="M163.73,283.59a32.64,32.64,0,0,1-5.42,16.3c-3.29,4.94-7.82,9-11.58,13.53a110.7,110.7,0,0,0-17.14,29,108.59,108.59,0,0,0-5.48,18.08c-.4,1.89,2.49,2.69,2.89.8a107.41,107.41,0,0,1,12.15-31.7A105.69,105.69,0,0,1,149,315.38c3.71-4.5,8.06-8.48,11.43-13.25a35.55,35.55,0,0,0,6.32-18.54c.11-1.93-2.89-1.92-3,0Z"/><path class="cls-2" d="M153.89,375.83c-1.33-8.44,1.83-16.8,6-24,4.39-7.6,9.68-14.71,14.62-21.95l8.84-12.95c1.09-1.6-1.51-3.1-2.59-1.51L164.6,339c-4.93,7.22-10,14.56-12.53,23A33.14,33.14,0,0,0,151,376.63c.3,1.9,3.19,1.1,2.89-.8Z"/><path class="cls-2" d="M215.33,321a385.16,385.16,0,0,0-31.44,44.32q-4,6.57-7.72,13.31c-.94,1.69,1.65,3.21,2.59,1.52A382.94,382.94,0,0,1,208,335.11q4.59-6.08,9.44-12c1.21-1.48-.9-3.61-2.13-2.12Z"/><path class="cls-2" d="M189.21,259.9c-2.2,4.79-7.68,6.37-12.06,8.5s-8.92,5.85-9,11.26a1.5,1.5,0,0,0,3,0c.06-5.14,5.46-7.79,9.48-9.59,4.33-1.93,9-4.1,11.15-8.65.8-1.75-1.78-3.27-2.59-1.52Z"/><path class="cls-2" d="M213,273.78a23.34,23.34,0,0,0-16.53,22.57c0,1.93,3,1.94,3,0a20.28,20.28,0,0,1,14.33-19.67c1.84-.56,1.06-3.46-.8-2.9Z"/><path class="cls-2" d="M227.19,280.74A22.3,22.3,0,0,1,213,300.87c-1.8.66-1,3.56.8,2.89a25.38,25.38,0,0,0,16.38-23c0-1.93-3-1.93-3,0Z"/><path class="cls-2" d="M204.78,294.16a15.16,15.16,0,0,1,2.13.06l.35,0,.45.07c.38.07.75.15,1.12.24a16.42,16.42,0,0,1,2,.66l.21.08q-.19-.07.06,0l.48.23a10.78,10.78,0,0,1,1,.54,1.52,1.52,0,0,0,2.05-.54,1.54,1.54,0,0,0-.53-2.06,17.56,17.56,0,0,0-9.34-2.35,1.5,1.5,0,0,0,0,3Z"/><path class="cls-2" d="M210.09,289l.3-.05c-.14,0-.11,0,.07,0l.55,0a9.14,9.14,0,0,1,1.17,0c.37,0,.73,0,1.09.07s-.08,0,.23,0l.61.11a11.47,11.47,0,0,1,4,1.56,1.5,1.5,0,1,0,1.51-2.59,15.16,15.16,0,0,0-10.32-2,1.5,1.5,0,0,0-1,1.84,1.54,1.54,0,0,0,1.85,1.05Z"/><path class="cls-2" d="M213.05,283.1l8,.24a1.51,1.51,0,0,0,1.5-1.5,1.54,1.54,0,0,0-1.5-1.5l-8-.24a1.5,1.5,0,0,0,0,3Z"/><path class="cls-2" d="M248.44,301.11a17.45,17.45,0,0,1,1.18,18c-.91,1.7,1.68,3.22,2.59,1.52A20.46,20.46,0,0,0,251,299.59c-1.09-1.57-3.7-.07-2.59,1.52Z"/><path class="cls-2" d="M190.38,366.36c.17,5.43,4.75,9.38,9.84,10.36,6.28,1.2,12.35-1.21,18.46-2.29,1.89-.34,1.09-3.23-.8-2.89-5.15.91-10.24,2.9-15.54,2.46-4.16-.34-8.81-3-9-7.64-.06-1.93-3.06-1.93-3,0Z"/><path class="cls-2" d="M199.91,362.56a17.3,17.3,0,0,1,15.14,5.57c1.29,1.44,3.41-.68,2.12-2.12a20,20,0,0,0-17.26-6.45,1.56,1.56,0,0,0-1.5,1.5c0,.73.69,1.61,1.5,1.5Z"/><path class="cls-2" d="M200.19,368.82q.93,0,1.86.06l.4,0c.18,0,.17,0,0,0l.27,0,.85.16a17.71,17.71,0,0,1,1.73.47l.87.32c.41.16-.27-.12.13.06l.48.22a1.55,1.55,0,0,0,2.06-.54,1.52,1.52,0,0,0-.54-2,18,18,0,0,0-8.1-1.78,1.5,1.5,0,0,0,0,3Z"/><path class="cls-2" d="M170.82,350.78a16.11,16.11,0,0,1,12.89,4.49l.66-2.51-1.37.39a1.5,1.5,0,0,0,.79,2.9l1.38-.39a1.52,1.52,0,0,0,.66-2.51,19,19,0,0,0-15-5.37,1.54,1.54,0,0,0-1.5,1.5,1.5,1.5,0,0,0,1.5,1.5Z"/><path class="cls-2" d="M161.18,357.33a11.92,11.92,0,0,0,17.48,8.35c1.71-.91.2-3.5-1.51-2.59a9.08,9.08,0,0,1-8.55,0,9.28,9.28,0,0,1-4.53-6.52,1.51,1.51,0,0,0-1.84-1,1.54,1.54,0,0,0-1,1.85Z"/><path class="cls-2" d="M169.77,356.66l7.33,2.19a1.5,1.5,0,1,0,.8-2.9l-7.33-2.19a1.51,1.51,0,0,0-1.84,1.05,1.53,1.53,0,0,0,1,1.85Z"/><path class="cls-2" d="M144.37,331.68a12.54,12.54,0,0,1,14.16,4,1.54,1.54,0,0,0,2.05.54,1.52,1.52,0,0,0,.54-2.06,15.55,15.55,0,0,0-17.55-5.34,1.54,1.54,0,0,0-1,1.84,1.5,1.5,0,0,0,1.84,1.05Z"/><path class="cls-2" d="M138.75,336a14.67,14.67,0,0,0,11.79,10.36,1.56,1.56,0,0,0,1.84-1.05,1.51,1.51,0,0,0-1-1.85,11.55,11.55,0,0,1-6.08-2.69,13.52,13.52,0,0,1-1.26-1.25,7.77,7.77,0,0,1-.94-1.24,11.8,11.8,0,0,1-.87-1.55s-.19-.43-.1-.21c-.06-.14-.11-.29-.17-.43-.1-.29-.19-.59-.28-.89a1.5,1.5,0,0,0-2.89.8Z"/><path class="cls-2" d="M146.34,336.1a12.81,12.81,0,0,1,1.52,0,3.21,3.21,0,0,1,.76.07h-.07l.16,0,.37.07a12.42,12.42,0,0,1,1.48.4l.3.12.21.08q.23.09-.06,0a3.12,3.12,0,0,1,.69.33,1.5,1.5,0,1,0,1.51-2.59,12.72,12.72,0,0,0-6.87-1.43,1.54,1.54,0,0,0-1.5,1.5,1.51,1.51,0,0,0,1.5,1.5Z"/><path class="cls-2" d="M130.52,306.1l.33-.06c.18,0-.24,0,.05,0l.66,0c.22,0,.43,0,.65,0l.26,0c.43,0-.3,0,.12,0a10.26,10.26,0,0,1,1.22.28l.62.22c.22.08-.31-.15.06,0l.3.14a8.43,8.43,0,0,1,1.08.63c.09.06.17.13.27.19s-.15-.13.05,0,.34.28.49.43.31.31.46.47.11.14.17.2c.28.32-.16-.23.09.11a8.57,8.57,0,0,1,.68,1.12,1.52,1.52,0,0,0,2.06.54,1.54,1.54,0,0,0,.53-2.06,10.26,10.26,0,0,0-10.94-5.2,1.51,1.51,0,0,0-1,1.85,1.54,1.54,0,0,0,1.84,1.05Z"/><path class="cls-2" d="M130,310.8l3.06,1.53a1.57,1.57,0,0,0,1.16.16,1.54,1.54,0,0,0,.89-.69,1.47,1.47,0,0,0,.15-1.16,1.51,1.51,0,0,0-.68-.9l-3.06-1.53a1.62,1.62,0,0,0-1.16-.15,1.5,1.5,0,0,0-1.05,1.85,1.47,1.47,0,0,0,.69.89Z"/><path class="cls-2" d="M124.23,311.79a12.73,12.73,0,0,0,12,6,1.54,1.54,0,0,0,1.5-1.5,1.51,1.51,0,0,0-1.5-1.5,9.3,9.3,0,0,1-1.49.07c-.24,0-.47,0-.71,0l-.26,0-.27,0a12.28,12.28,0,0,1-1.45-.36l-.66-.24a3.5,3.5,0,0,1-.51-.23,9.54,9.54,0,0,1-4.07-3.61,1.5,1.5,0,1,0-2.59,1.51Z"/><path class="cls-2" d="M191.74,269.42c7.61,5.05,16.78.8,23-4.39,3.5-2.94,6.72-6.21,10.13-9.25q5.47-4.87,11.2-9.43,6.49-5.16,13.3-9.9c1.58-1.09.08-3.69-1.51-2.59a271.42,271.42,0,0,0-21.79,16.89c-3.45,3-6.79,6.08-10.13,9.19-3,2.81-6.19,5.63-10,7.32-4,1.77-8.88,2.07-12.66-.43-1.61-1.07-3.11,1.53-1.51,2.59Z"/><path class="cls-2" d="M206.13,266.93c-2.53,1.91-5,3.92-7.45,5.9l-4,3.26-1.78,1.41-.79.61-.14.11-.4.3a1.55,1.55,0,0,0-.54,2.06,1.51,1.51,0,0,0,2,.54c2.53-1.91,5-3.92,7.44-5.91l4.05-3.25,1.78-1.41.79-.62.13-.1.41-.31a1.54,1.54,0,0,0,.54-2,1.51,1.51,0,0,0-2.05-.54Z"/><path class="cls-3" d="M138,373.7a13,13,0,0,0,10.88,2.5c.43-.09,1-.44.77-.83-.1-.22-.38-.28-.63-.32l-10.44-1.46"/><path class="cls-2" d="M137,374.77a14.72,14.72,0,0,0,9.73,3.23c1.63-.07,4.8-.34,4.5-2.7-.16-1.23-1.25-1.62-2.32-1.77l-3.06-.43-6.81-1a1.56,1.56,0,0,0-1.85,1.05,1.51,1.51,0,0,0,1.05,1.84l5.56.78,2.73.39,1.36.19.68.09.26,0c.19,0,.2.05,0,0l-.53-.54c-.23-.75-.11-1.18.35-1.29l-.33.08c-.24.05-.49.1-.73.13s-.74.07-1.08.08a11,11,0,0,1-2.66-.22,11.43,11.43,0,0,1-4.77-2.15,1.55,1.55,0,0,0-2.12,0,1.52,1.52,0,0,0,0,2.13Z"/><path class="cls-3" d="M112.49,351.12a2.65,2.65,0,0,0-3.32.73,5.82,5.82,0,0,0-1.11,3.48,9.39,9.39,0,0,0,.92,5,5.19,5.19,0,0,0,4.07,2.81,8.22,8.22,0,0,0,3.61-.89,6,6,0,0,0,2.51-1.57,4.35,4.35,0,0,0,.58-3.66,8.08,8.08,0,0,0-7.77-6.1"/><path class="cls-2" d="M113.25,349.82a4.07,4.07,0,0,0-4.64.5,6.29,6.29,0,0,0-2,4.42c-.36,3.25.48,6.79,3.24,8.79a6.06,6.06,0,0,0,4.69,1,11.7,11.7,0,0,0,2.31-.73,13,13,0,0,0,2.26-1.07c2.94-2,2.72-5.91,1-8.67a9.68,9.68,0,0,0-8.16-4.63,1.5,1.5,0,0,0,0,3,6.55,6.55,0,0,1,4.87,2.22c1,1.11,2.22,3.45,1.24,5a5,5,0,0,1-2.44,1.45,5.08,5.08,0,0,1-3.15.47,3.88,3.88,0,0,1-2-1.57,6.4,6.4,0,0,1-1-3.09,7.28,7.28,0,0,1,.43-3.56,1.92,1.92,0,0,1,.85-.92,3,3,0,0,1,.48-.11s.36,0,.21,0l.2.11a1.5,1.5,0,0,0,1.52-2.59Z"/><path class="cls-3" d="M149.22,311.75c2.37,3.19,6.29,4.78,10.12,5.85s7.82,1.79,11.22,3.84a15.62,15.62,0,0,0,3.86,2.06c1.41.38,3.19,0,3.79-1.37a3.07,3.07,0,0,0-.77-3.25,8.91,8.91,0,0,0-3-1.82q-9.6-4.15-19.47-7.69c-1.4-.5-2.95-1-4.34-.46s-2.19,2.62-1,3.55"/><path class="cls-2" d="M147.93,312.51c3.19,4.14,8,5.78,12.93,7.05a37,37,0,0,1,8,2.64c2.17,1.12,4.1,3,6.68,2.93a4.19,4.19,0,0,0,4.39-3.84c.08-2.69-2.14-4.37-4.35-5.37-5.56-2.49-11.27-4.72-17-6.83-2.6-1-6.22-2.91-9-1.36-2,1.14-2.84,4.09-1.06,5.79,1.4,1.33,3.52-.79,2.12-2.12-.25-.24,0-.74.31-1,.72-.55,2-.13,2.74.11,2.22.68,4.39,1.57,6.56,2.39q6.54,2.47,12.95,5.24c1.07.46,4.21,1.53,3.66,3.24s-3.06.31-3.88-.18a31.32,31.32,0,0,0-5.42-2.82,58.28,58.28,0,0,0-5.93-1.73c-4-1-8.51-2.25-11.14-5.68a1.55,1.55,0,0,0-2.05-.54,1.52,1.52,0,0,0-.54,2.06Z"/></g><g id="_3_Outline" data-name="3 Outline"><path class="cls-1" d="M149.42,489.54C214.14,458.31,279.3,426.82,337,384c26.89-20,52.13-42.39,81.11-59.18,16.35-9.47,33.71-17.05,51-24.6C496,288.46,521.33,272,549.84,265c9.56-2.33,25.28-5.34,30-1.89,16.87,12.35,16.49,18.23,12.18,21.79-6.6,5.44-10.24,6.95-20.46,7.66-9.33.66-19.61,3.28-25.13,10.83,9,3.32,19-.07,27.78-3.89s18.06-8.21,27.55-6.81S620,304.4,615.75,313c14.36,2.65,11.13,22.11-4.07,31,6.22,17.14-7.44,36.08-24.17,43.34s-35.65,6.46-53.84,7.85c-74.56,5.71-140.38,49.38-199.61,95"/><path class="cls-2" d="M150.18,490.84c36.77-17.75,73.57-35.52,109.2-55.48,17.71-9.91,35.13-20.37,52-31.61s33-23.37,48.92-35.86,31.92-25.15,49.07-36.05C427,320.65,445.94,312,465,303.62c18.21-8,35.6-17.56,53.67-25.8a186.76,186.76,0,0,1,28-10.45c7.73-2.12,15.82-3.95,23.85-4.29,2.8-.12,6.14-.27,8.59,1.31a53.26,53.26,0,0,1,10.08,8.7c2.11,2.31,5.4,6.31,3,9.49-1.49,2-4,3.56-6.15,4.83a24.64,24.64,0,0,1-9.22,3.11c-8.07,1.21-15.95,1.18-23.39,5.07a24.71,24.71,0,0,0-8.31,7,1.52,1.52,0,0,0,.9,2.2c14.82,5.15,28.48-5.12,42.09-9.25,6.79-2.06,14.37-2.76,20.47,1.49,4.72,3.3,8.49,9.46,5.89,15.22a1.52,1.52,0,0,0,.89,2.2c6,1.22,9,6,7.89,12-1.27,7-6.4,12.69-12.32,16.24a1.52,1.52,0,0,0-.68,1.69c6.85,19.72-11.2,37.82-28.52,43.55-11.18,3.71-23.05,4.39-34.73,5a295.66,295.66,0,0,0-32.56,3.09c-43.29,7.05-83.53,26.39-120.3,49.69C373.11,459.07,353,473.8,333.3,489c-1.5,1.16,0,3.77,1.52,2.59,35.85-27.62,73.25-54.08,114.77-72.52a269.7,269.7,0,0,1,64.08-19.84,293.83,293.83,0,0,1,34.15-3.28c11.53-.59,23.26-1.34,34.31-4.92,10.41-3.37,19.58-9.55,25.9-18.59,5.86-8.36,8.53-18.91,5.1-28.77l-.69,1.69c6.93-4.16,12.9-11.11,13.89-19.38.86-7.09-3.12-12.95-10.18-14.37l.9,2.2c2.57-5.69.77-11.68-3.31-16.16-4.61-5.05-11.11-7.14-17.83-6.63-16.61,1.24-32,16.87-49.1,10.93l.89,2.2c5.36-7.05,14.78-9.33,23.17-10,7.15-.59,13.53-1.59,19.41-6,3.15-2.34,6.34-4.88,5.61-9.24-.95-5.59-6.53-10.14-10.63-13.48-2.75-2.24-5.26-4.52-8.85-5.08a39.52,39.52,0,0,0-10.42.12,137.23,137.23,0,0,0-24.93,5.43c-19.24,6-37,15.73-55,24.67-18.94,9.42-38.7,17-57.48,26.79S392.69,339.1,376,351.9c-16.48,12.64-32.56,25.8-49.49,37.85s-34.63,23.3-52.63,33.85c-36.09,21.17-73.64,39.71-111.29,57.92l-13.93,6.73c-1.73.84-.21,3.42,1.52,2.59Z"/></g><g id="_3_Lines" data-name="3 Lines"><path class="cls-2" d="M545,303a37.43,37.43,0,0,1-25.29,10,1.5,1.5,0,0,0,0,3,40.6,40.6,0,0,0,27.41-10.84c1.42-1.32-.71-3.43-2.12-2.12Z"/><path class="cls-2" d="M532.39,276a14.14,14.14,0,0,0,6.33,8.78c3.54,2.36,7.79,3.36,11.87,4.31,1.88.43,2.68-2.46.8-2.9-6.27-1.45-14.68-3.57-16.11-11-.36-1.89-3.26-1.09-2.89.8Z"/><path class="cls-2" d="M566.1,307.6a25.11,25.11,0,0,0,10,20.28,1.51,1.51,0,0,0,2.05-.54,1.53,1.53,0,0,0-.54-2,22,22,0,0,1-8.47-17.69c0-1.93-3-1.93-3,0Z"/><path class="cls-2" d="M580,304.83a16.68,16.68,0,0,1,6.87,14.4c-.11,1.93,2.89,1.92,3,0a19.73,19.73,0,0,0-8.36-17,1.51,1.51,0,0,0-2.05.53,1.54,1.54,0,0,0,.54,2.06Z"/><path class="cls-2" d="M574,311.3l2,5.85a1.5,1.5,0,0,0,2.89-.8l-2-5.85a1.55,1.55,0,0,0-1.85-1.05,1.52,1.52,0,0,0-1,1.85Z"/><path class="cls-2" d="M581.47,316.28l2.52,5.8a1.49,1.49,0,0,0,.9.69,1.54,1.54,0,0,0,1.15-.15,1.52,1.52,0,0,0,.69-.9,1.7,1.7,0,0,0-.15-1.15l-2.52-5.8a1.52,1.52,0,0,0-.9-.69,1.5,1.5,0,0,0-1.84,1,1.73,1.73,0,0,0,.15,1.16Z"/><path class="cls-2" d="M569.62,338a18.71,18.71,0,0,0,5.83,19.78,1.55,1.55,0,0,0,2.12,0,1.51,1.51,0,0,0,0-2.12,15.79,15.79,0,0,1-5.06-16.86c.59-1.85-2.3-2.63-2.89-.8Z"/><path class="cls-2" d="M584.78,334.31a16.39,16.39,0,0,1,3.42,17.79,1.55,1.55,0,0,0,.54,2,1.51,1.51,0,0,0,2-.54,19.45,19.45,0,0,0-3.89-21.42,1.5,1.5,0,0,0-2.12,2.12Z"/><path class="cls-2" d="M575.94,341.65a12.42,12.42,0,0,0,4.91,9.59,1.5,1.5,0,0,0,2-.54,1.54,1.54,0,0,0-.54-2.05c.12.09.1.08,0,0l-.25-.21-.38-.35a10.73,10.73,0,0,1-.79-.86s-.18-.24-.08-.1-.12-.17-.11-.16-.2-.29-.3-.43a10.2,10.2,0,0,1-.57-1c-.08-.15-.15-.31-.23-.47.09.2,0,.06,0-.06l-.09-.24a10.59,10.59,0,0,1-.33-1.05c-.05-.19-.09-.38-.13-.57s0-.17,0-.26,0-.27,0-.05a11.5,11.5,0,0,1-.08-1.16,1.5,1.5,0,0,0-3,0Z"/><path class="cls-2" d="M581,335.81l1.26,6.23a1.51,1.51,0,0,0,1.85,1,1.53,1.53,0,0,0,1-1.84L583.9,335a1.5,1.5,0,0,0-1.84-1,1.53,1.53,0,0,0-1,1.84Z"/><path class="cls-2" d="M571.74,379a13.73,13.73,0,0,0,3,8.09,1.52,1.52,0,0,0,2.13,0,1.56,1.56,0,0,0,0-2.13c-.11-.13-.1-.12,0,0l-.14-.2c-.09-.12-.18-.26-.27-.39s-.3-.47-.43-.71-.3-.56-.44-.85a2,2,0,0,0-.1-.21c.08.17.08.18,0,0l-.15-.38a11.56,11.56,0,0,1-.48-1.72c0-.14-.06-.28-.08-.41l0-.24c0,.2,0,.22,0,.05,0-.32,0-.64-.06-1a1.5,1.5,0,0,0-3,0Z"/><path class="cls-2" d="M576.57,381.43l2.49,3.74a1.59,1.59,0,0,0,.9.69,1.53,1.53,0,0,0,1.15-.15,1.48,1.48,0,0,0,.69-.9,1.45,1.45,0,0,0-.15-1.15l-2.49-3.74a1.56,1.56,0,0,0-.89-.69,1.5,1.5,0,0,0-1.85,1,1.49,1.49,0,0,0,.15,1.15Z"/><path class="cls-2" d="M580.84,375.75l.25.18s.24.18.1.06.1.1.13.12l.18.16a9.16,9.16,0,0,1,.81.84c0,.06.21.29,0,0a1.43,1.43,0,0,1,.14.2c.11.15.21.3.31.46a11.2,11.2,0,0,1,.55,1c.06.14,0,.1,0,0,0,.09.08.19.11.28s.12.35.17.53a9.43,9.43,0,0,1,.25,1.08c.07.38,0-.2,0,0s0,.21,0,.31,0,.36,0,.55a8.92,8.92,0,0,1-.08,1.16,1.5,1.5,0,0,0,1.5,1.5,1.54,1.54,0,0,0,1.5-1.5,10.26,10.26,0,0,0-4.49-9.59,1.51,1.51,0,0,0-2.05.54,1.53,1.53,0,0,0,.54,2.05Z"/><path class="cls-3" d="M612.73,348.28a6.6,6.6,0,0,0-8.26-1.4,8,8,0,0,0-3.65,7.81,10.18,10.18,0,0,0,5,7.27c1.27.74,2.9,1.23,4.16.48a4.76,4.76,0,0,0,1.81-3.24,34,34,0,0,0,.66-10.5"/><path class="cls-2" d="M613.8,347.22A8.07,8.07,0,0,0,605,345a9.13,9.13,0,0,0-5.71,7.71,10.84,10.84,0,0,0,3.74,9.09,9.43,9.43,0,0,0,4.7,2.46,4.41,4.41,0,0,0,4.69-2.34,17.65,17.65,0,0,0,1.43-6.17,34.42,34.42,0,0,0,.08-7,1.54,1.54,0,0,0-1.5-1.5,1.52,1.52,0,0,0-1.5,1.5,33,33,0,0,1-.55,9.82c-.18.88-.39,2.34-1.36,2.72s-2.52-.54-3.34-1.16a8.34,8.34,0,0,1-3.45-6.05,6.47,6.47,0,0,1,3-5.86,5.12,5.12,0,0,1,6.44,1.17,1.52,1.52,0,0,0,2.13,0,1.54,1.54,0,0,0,0-2.12Z"/><path class="cls-3" d="M617.35,315.46a13.21,13.21,0,0,0,2.4,9.85,1.85,1.85,0,0,0,1,.78c.82.21,1.51-.62,1.82-1.4a7.17,7.17,0,0,0-4.76-9.19"/><path class="cls-2" d="M615.9,315.06a15,15,0,0,0,.45,6.8,15.35,15.35,0,0,0,1.34,3.05c.59,1,1.35,2.26,2.54,2.61,2.67.77,4-2.33,4.17-4.42a8.63,8.63,0,0,0-1.28-5.26,8.37,8.37,0,0,0-5-3.79,1.5,1.5,0,1,0-.79,2.89l.46.14c.08,0,.45.18.21.07a6.78,6.78,0,0,1,1,.53l.16.12c.2.13-.16-.14,0,0l.36.31.34.34.18.2s.19.24.1.12l.09.12.12.17.29.46c.08.14.15.28.22.43l.09.18c.12.25,0-.07,0,.09s.21.6.29.91c0,.15.06.31.1.47s0,.29,0,0a2.45,2.45,0,0,1,0,.27,7,7,0,0,1,0,1,1.36,1.36,0,0,1,0,.2c0-.06.06-.29,0,0s-.07.35-.11.53-.09.31-.15.46-.12.28,0,.15-.06.09-.06.09-.11.19-.17.27.1-.14,0,0l-.06,0h0c-.08.05-.08.05,0,0a.31.31,0,0,1,.19,0s.11,0,.15,0,.12.17,0,0a.85.85,0,0,0-.16-.17c.12.14,0-.07-.06-.09a11.32,11.32,0,0,1-.71-1.09,10.7,10.7,0,0,1-1-2.17,12.57,12.57,0,0,1-.35-1.34,8.12,8.12,0,0,1-.19-1.24c0-.46-.05-.92,0-1.38,0-.26,0-.52,0-.78s0-.38.07-.55a1.55,1.55,0,0,0-1-1.84,1.52,1.52,0,0,0-1.85,1Z"/><path class="cls-2" d="M533.42,372a15.89,15.89,0,0,0-11.27,18.16c.38,1.89,3.27,1.09,2.89-.79a12.84,12.84,0,0,1,9.18-14.47c1.87-.48,1.07-3.37-.8-2.9Z"/><path class="cls-2" d="M614.75,313.12A213.86,213.86,0,0,1,550.33,337c-6.4,1.26-12.87,2.22-19.36,2.88-1.91.2-1.93,3.2,0,3a217.38,217.38,0,0,0,67.7-18.23q9-4.08,17.6-9a1.5,1.5,0,0,0-1.52-2.59Z"/><path class="cls-2" d="M412.17,373.58c-2.36-9.17,7.23-15.7,12.51-21.53,4.93-5.43,8.9-13,16.13-15.66,1.79-.67,1-3.57-.8-2.89-6.29,2.34-10.3,7.66-14.34,12.73a86.65,86.65,0,0,1-7.22,7.87,39.84,39.84,0,0,0-7.22,8.59,15.81,15.81,0,0,0-2,11.69c.48,1.86,3.38,1.07,2.89-.8Z"/><path class="cls-2" d="M417.6,369.43c2.47-3.22,6.73-4.38,10.49-5.29,4.09-1,8.23-1.95,11.63-4.56s5.47-6,8-9.12,5.84-6.19,10.06-6.28c1.93,0,1.93-3,0-3-7.25.15-11.51,6.41-15.59,11.51-2.21,2.78-4.65,5.25-8,6.59s-6.72,1.77-10,2.79c-3.59,1.11-6.87,2.82-9.19,5.84-1.18,1.53,1.43,3,2.59,1.52Z"/><path class="cls-2" d="M435.71,379.48c7.45-4.92,15-9.91,23.23-13.38,8.84-3.72,18.15-4.77,27.62-5.54,1.91-.15,1.93-3.15,0-3-9.73.79-19.31,1.84-28.4,5.63-8.53,3.56-16.28,8.62-24,13.7-1.61,1.06-.11,3.66,1.51,2.59Z"/><path class="cls-2" d="M463.05,390.31a28.86,28.86,0,0,1,35.52-21,1.5,1.5,0,0,0,.79-2.9,31.86,31.86,0,0,0-39.2,23.11c-.47,1.88,2.42,2.67,2.89.8Z"/><path class="cls-2" d="M438.62,398.54c8.83-3.35,17.68-6.7,26.78-9.25a123.87,123.87,0,0,1,28.49-4.54c5.57-.23,11.14-.15,16.7.06,1.93.07,1.93-2.93,0-3a167.67,167.67,0,0,0-29.8,1.11,148.6,148.6,0,0,0-27.66,7.1c-5.14,1.77-10.22,3.7-15.3,5.62-1.79.68-1,3.58.79,2.9Z"/><path class="cls-2" d="M510.6,331.39a15.68,15.68,0,0,0-18.23,14,1.5,1.5,0,0,0,3,0,12.84,12.84,0,0,1,14.43-11.13,1.56,1.56,0,0,0,1.85-1,1.51,1.51,0,0,0-1-1.84Z"/><path class="cls-2" d="M502.22,344.59l7.81-4.3a1.51,1.51,0,0,0,.54-2.05,1.54,1.54,0,0,0-2.06-.54L500.7,342a1.51,1.51,0,0,0-.54,2.05,1.54,1.54,0,0,0,2.06.54Z"/><path class="cls-2" d="M461.77,311.39c3.89,4.4,8.78,9.17,15.18,8.19,6.87-1.06,10.73-7.46,13.75-13,.92-1.7-1.67-3.22-2.59-1.52-2.56,4.74-5.7,10.59-11.56,11.6-5.32.92-9.51-3.78-12.66-7.35-1.28-1.45-3.4.68-2.12,2.12Z"/><path class="cls-2" d="M470.86,310.19a9.3,9.3,0,0,0,12.54-5.29,1.5,1.5,0,1,0-2.89-.79,5.4,5.4,0,0,1-1.25,2,7.29,7.29,0,0,1-.58.53c-.2.18.08-.05-.05.05l-.27.19c-.22.15-.45.28-.68.41l-.29.15-.24.11-.19.08-.37.12a6.66,6.66,0,0,1-.7.19l-.33.07s-.47.06-.12,0l-.71.05c-.24,0-.48,0-.72,0-.08,0-.46-.07-.12,0l-.32-.06a5.53,5.53,0,0,1-.7-.18l-.37-.13c-.3-.11.2.09-.12-.06a1.55,1.55,0,0,0-2.05.54,1.5,1.5,0,0,0,.53,2.05Z"/><path class="cls-2" d="M496,347.18c4.31,1.09,9.15,2.28,13.48.6,3.51-1.37,6.37-4.31,6.63-8.2.12-1.93-2.88-1.92-3,0-.18,2.76-2.69,4.8-5.17,5.56-3.64,1.13-7.58.05-11.15-.86-1.87-.47-2.67,2.42-.79,2.9Z"/><path class="cls-2" d="M319.21,370a8.82,8.82,0,0,1,2,.58l-.36-.15a9,9,0,0,1,1.54.81l.33.23.16.13c-.37-.26-.13-.1,0,0s.45.39.66.6a1.51,1.51,0,0,0,2.12,0,1.53,1.53,0,0,0,0-2.12,10.5,10.5,0,0,0-5.62-2.93,1.61,1.61,0,0,0-1.16.15,1.57,1.57,0,0,0-.69.89,1.53,1.53,0,0,0,1,1.85Z"/><path class="cls-2" d="M309.85,372.88a12.47,12.47,0,0,0,17.44,8,1.51,1.51,0,0,0,.53-2.05,1.54,1.54,0,0,0-2.05-.54,9.59,9.59,0,0,1-13-6.17,1.5,1.5,0,0,0-2.89.79Z"/><path class="cls-2" d="M321.25,364.71a8.65,8.65,0,0,1,7.3,2.05A8.75,8.75,0,0,1,331.3,374a1.51,1.51,0,0,0,1.5,1.5,1.53,1.53,0,0,0,1.5-1.5,11.62,11.62,0,0,0-3.77-9.51,11.78,11.78,0,0,0-10.07-2.69,1.51,1.51,0,0,0-1,1.84,1.54,1.54,0,0,0,1.84,1Z"/><path class="cls-2" d="M342.44,351.46a24.61,24.61,0,0,1,11.71,2.26,1.53,1.53,0,0,0,2.05-.54,1.51,1.51,0,0,0-.54-2.05,27.68,27.68,0,0,0-13.22-2.67,1.5,1.5,0,0,0,0,3Z"/><path class="cls-2" d="M543.58,275l4.57,5.39a1.5,1.5,0,0,0,2.12,0,1.55,1.55,0,0,0,0-2.12l-4.57-5.39a1.49,1.49,0,0,0-2.12,0,1.53,1.53,0,0,0,0,2.12Z"/><path class="cls-2" d="M550.55,269A11.84,11.84,0,0,1,558,282.65c-.47,1.88,2.42,2.68,2.9.8a14.92,14.92,0,0,0-9.53-17.36c-1.83-.62-2.62,2.28-.79,2.89Z"/></g><g id="_2_Outline-2" data-name="2 Outline"><path class="cls-1" d="M218.73,390.83c9.17,4.8,17.63,10.8,26.07,16.79l87.64,62.18a20.63,20.63,0,0,0,18.71,2.45,11.39,11.39,0,0,1,6.26-.4c5.5,1.36,11.32,4.8,16.39,2.28,6.43-3.2,5.47-12.54,3.53-19.46,12,5.74,24.26-.94,28.84-13.43,3.58,4.3,15.33,1.71,17.63-3.39s1.17-11.23-1.17-16.32c-17.13-37.18-48.24-68.53-82.48-79.38"/><path class="cls-2" d="M218,392.13c12.84,6.75,24.46,15.64,36.26,24l36.69,26,36.68,26c2.82,2,5.52,4.12,8.77,5.36a21.69,21.69,0,0,0,8.74,1.36,23.87,23.87,0,0,0,4.45-.64,28.21,28.21,0,0,1,5-1.19c3.09-.16,6.12,1.36,9,2.27,3.32,1,7,1.77,10.29.39a9.78,9.78,0,0,0,5.27-5.25c2.17-5.06,1.1-11.12-.31-16.23L376.57,456a21.43,21.43,0,0,0,18.58.2c6-2.87,10.18-8.41,12.47-14.52l-2.51.66c2.61,3,7.34,2.94,10.9,2.19s7.71-2.68,9.25-6.27c2.39-5.58,1.16-11.91-1.25-17.25a156.21,156.21,0,0,0-8-15.23c-11.27-19.15-26.28-36.37-44.45-49.26a113.41,113.41,0,0,0-31.05-15.78c-1.85-.59-2.63,2.31-.8,2.9,18.93,6,35.68,17.82,49.5,31.92A163.33,163.33,0,0,1,409,400.05q4.44,6.75,8.23,13.91c2.53,4.78,5.48,9.85,6.2,15.3.35,2.7.25,6-1.22,8.42a8.61,8.61,0,0,1-4.2,3.08c-3,1.23-8.28,2.26-10.76-.58a1.52,1.52,0,0,0-2.51.66,22.7,22.7,0,0,1-10.8,12.58,18.13,18.13,0,0,1-15.83-.05,1.53,1.53,0,0,0-2.21,1.7c1.2,4.3,2.23,9.38.68,13.73a7,7,0,0,1-3.91,4.21c-2.82,1.14-6,.21-8.73-.68-2.9-.93-5.87-2.3-9-2.25s-5.8,1.47-8.81,1.77a19.71,19.71,0,0,1-8.58-1c-3.13-1.12-5.75-3.3-8.43-5.2l-70.52-50c-12.73-9-25.26-18.76-39.11-26-1.71-.9-3.23,1.69-1.52,2.59Z"/></g><g id="_2_Lines-2" data-name="2 Lines"><path class="cls-2" d="M293.72,411.41a198.55,198.55,0,0,1,49.65,45.47c3.92,5.07,7.58,10.35,11,15.78,1,1.63,3.63.12,2.59-1.52a201.15,201.15,0,0,0-45.77-51q-7.69-6.06-15.94-11.36c-1.63-1.05-3.14,1.55-1.52,2.59Z"/><path class="cls-2" d="M330.09,402.39a461.11,461.11,0,0,1,36.49,40.3q4.83,6,9.46,12.19c1.14,1.53,3.75,0,2.59-1.52a465.91,465.91,0,0,0-35.49-42q-5.37-5.64-10.93-11.09c-1.38-1.35-3.5.77-2.12,2.12Z"/><path class="cls-2" d="M353.36,375.7c1.31,11.7,9.46,20.65,18.05,28,4.58,3.91,9.29,7.64,13.67,11.76a107.54,107.54,0,0,1,10.78,11.6,83.69,83.69,0,0,1,9.65,15.59c.84,1.74,3.43.22,2.6-1.52a91.83,91.83,0,0,0-18.26-25.23c-4.17-4.14-8.64-7.92-13.15-11.67a92.82,92.82,0,0,1-12.63-12c-3.91-4.73-7-10.39-7.71-16.56-.22-1.9-3.22-1.92-3,0Z"/><path class="cls-2" d="M301.29,440.27a8.54,8.54,0,0,1,10.54-6.3,1.51,1.51,0,0,0,.8-2.9,11.55,11.55,0,0,0-14.23,8.4c-.48,1.87,2.42,2.67,2.89.8Z"/><path class="cls-2" d="M307.19,444a10.3,10.3,0,0,0,7.78-1.61,10.41,10.41,0,0,0,4.15-6.23,1.55,1.55,0,0,0-1.05-1.85,1.53,1.53,0,0,0-1.85,1.05,6.63,6.63,0,0,1-1,2.53,5,5,0,0,1-.82,1.06c-.16.17-.33.33-.5.49l-.3.26-.12.09c.07-.06.07-.06,0,0a7,7,0,0,1-2.68,1.22,7.52,7.52,0,0,1-2.79.1,1.54,1.54,0,0,0-1.84,1.05,1.5,1.5,0,0,0,1,1.84Z"/><path class="cls-2" d="M309.45,439.69a9.37,9.37,0,0,0,1.26-.54,7.79,7.79,0,0,0,1.15-.79,7.36,7.36,0,0,0,1.62-1.81,1.5,1.5,0,0,0-.54-2.05,1.54,1.54,0,0,0-1.15-.15,1.63,1.63,0,0,0-.9.69c-.09.14-.18.27-.28.4l.23-.3a5.89,5.89,0,0,1-1.12,1.11L310,436a6,6,0,0,1-1.37.79l.36-.15-.37.14a1.52,1.52,0,0,0-1,1.85,1.54,1.54,0,0,0,.69.89,1.48,1.48,0,0,0,1.16.15Z"/><path class="cls-2" d="M340.62,436.55a9.67,9.67,0,0,1,10.67-5c1.88.47,2.68-2.43.8-2.89A12.68,12.68,0,0,0,338,435a1.54,1.54,0,0,0,.54,2.05,1.51,1.51,0,0,0,2.05-.53Z"/><path class="cls-2" d="M343.33,443.71a12.3,12.3,0,0,0,13.18-7.93,1.5,1.5,0,0,0-1-1.84,1.53,1.53,0,0,0-1.85,1,9.1,9.1,0,0,1-3.79,4.51,8.89,8.89,0,0,1-2.79,1.15c-.28.06-.57.12-.86.16l-.15,0-.39,0c-.27,0-.53,0-.8,0l-.47,0-.24,0a1.54,1.54,0,0,0-1.84,1.05,1.5,1.5,0,0,0,1,1.84Z"/><path class="cls-2" d="M344.17,439.17l6.85-4.26a1.5,1.5,0,1,0-1.51-2.59l-6.86,4.26a1.5,1.5,0,0,0,1.52,2.59Z"/><path class="cls-2" d="M365.52,425.87c3.19-3.79,7.62-9,13.25-7.51a1.5,1.5,0,0,0,.79-2.9,11.88,11.88,0,0,0-9.25,1.67,30.79,30.79,0,0,0-6.91,6.62,1.54,1.54,0,0,0,0,2.12,1.5,1.5,0,0,0,2.12,0Z"/><path class="cls-2" d="M370.3,433.57a16.3,16.3,0,0,0,18.84-10,1.51,1.51,0,0,0-1.05-1.85,1.54,1.54,0,0,0-1.85,1.05,13.44,13.44,0,0,1-15.14,7.94c-1.88-.4-2.69,2.49-.8,2.9Z"/><path class="cls-2" d="M367.35,430.87a12.3,12.3,0,0,0,9-1.35,1.5,1.5,0,1,0-1.51-2.59c-.3.17-.61.34-.93.49,0,0-.43.18-.12.06l-.49.18a14.71,14.71,0,0,1-1.85.46c-.11,0-.08,0,.08,0l-.26,0-.53,0c-.3,0-.61,0-.92,0s-.61,0-.91-.07c.37,0-.19,0-.25-.05l-.51-.11a1.5,1.5,0,1,0-.8,2.9Z"/><path class="cls-2" d="M374.71,425.56l6.64-3.72a1.5,1.5,0,1,0-1.52-2.59L373.2,423a1.5,1.5,0,0,0-.54,2,1.53,1.53,0,0,0,2,.54Z"/><path class="cls-2" d="M387.9,402a11.18,11.18,0,0,1,12.87-4.93c1.84.59,2.63-2.31.8-2.89a14.21,14.21,0,0,0-16.26,6.3A1.5,1.5,0,0,0,387.9,402Z"/><path class="cls-2" d="M393.85,411.08a9.9,9.9,0,0,1,3.17-1,18,18,0,0,0,3.43-.82c2.27-.91,4.31-2.65,4.38-5.27a1.5,1.5,0,0,0-3,0,1.68,1.68,0,0,1-.2.76,2.82,2.82,0,0,1-.18.29c-.14.23.05,0-.06.08a4.89,4.89,0,0,1-.45.46,4.83,4.83,0,0,1-1,.66,2.1,2.1,0,0,1-.26.13c-.42.2.12,0-.12.05l-.7.23c-2.19.61-4.47.67-6.49,1.84a1.5,1.5,0,0,0,1.52,2.59Z"/><path class="cls-2" d="M393.07,405.79c.06-.09.11-.15,0,0l.21-.26c.14-.16.27-.32.42-.47a10.72,10.72,0,0,1,.85-.8l.27-.22c-.12.1-.06.05,0,0s.33-.23.51-.35a11.49,11.49,0,0,1,1.08-.61l.25-.12s.28-.13.14-.06l.2-.08.26-.1c.39-.14.79-.25,1.19-.35l.61-.12.14,0,.15,0a11.39,11.39,0,0,1,1.31-.05,1.52,1.52,0,0,0,1.5-1.5,1.54,1.54,0,0,0-1.5-1.5,12.44,12.44,0,0,0-10.23,5.17,1.51,1.51,0,0,0,.54,2.05,1.54,1.54,0,0,0,2.05-.54Z"/><path class="cls-3" d="M409.57,441.79a22.63,22.63,0,0,1,14.26-7.27,10.78,10.78,0,0,1-14.29,7.79"/><path class="cls-2" d="M410.64,442.85A21.2,21.2,0,0,1,423.83,436l-1.45-1.9a9.28,9.28,0,0,1-12.44,6.74,1.5,1.5,0,0,0-.79,2.89,12.26,12.26,0,0,0,16.12-8.83c.2-.86-.42-2-1.44-1.9a24.33,24.33,0,0,0-15.32,7.71c-1.29,1.43.82,3.56,2.13,2.12Z"/><path class="cls-3" d="M366.78,469.54a4.1,4.1,0,0,0-.7,1.57,1.44,1.44,0,0,0,.65,1.5,2.06,2.06,0,0,0,1.3.06,12.68,12.68,0,0,0,6.85-3.22c1.79-1.83,2.65-4.74,1.55-7.05l-10,6.39"/><path class="cls-2" d="M365.48,468.78a4.92,4.92,0,0,0-.91,2.6,2.94,2.94,0,0,0,1.29,2.46,3.88,3.88,0,0,0,2.9.21,18.09,18.09,0,0,0,2.19-.58c3.19-1.07,6-3.16,7.09-6.45a7.36,7.36,0,0,0-.31-5.38,1.51,1.51,0,0,0-2.05-.54l-10,6.4a1.53,1.53,0,0,0-.54,2.05,1.51,1.51,0,0,0,2.05.54l10-6.4-2.05-.54c-.09-.2.1.3.12.36s.07.29.11.43,0,.2,0,.05c0,.1,0,.2,0,.3s0,.3,0,.46,0,.4,0,.6c0-.26,0,.16-.05.21a6.45,6.45,0,0,1-.32,1l-.09.21c-.1.18-.19.37-.3.54s-.16.27-.25.4l-.18.25q.1-.15-.06.06a8.12,8.12,0,0,1-1.48,1.32,11.63,11.63,0,0,1-4,1.65,9.36,9.36,0,0,1-1.15.23c.12,0,.08,0-.11,0l.08,0,.13.13c-.12-.12-.12-.12,0,0s0-.2,0,.12a2.43,2.43,0,0,1,0-.27c0,.15,0,.13,0-.07a6,6,0,0,1,.47-.89,1.5,1.5,0,0,0-2.59-1.51Z"/><path class="cls-3" d="M347.56,462.83a4.59,4.59,0,0,0-5.78.35,5.19,5.19,0,0,0-1,5.81,6,6,0,0,0,5,3.34,5.62,5.62,0,0,0,5.75-3.83c.65-2.42-1.17-5.3-3.66-5.43"/><path class="cls-2" d="M348.32,461.53a6.09,6.09,0,0,0-7.92.92,6.75,6.75,0,0,0-.5,8.11,7.59,7.59,0,0,0,7.71,3.11,6.8,6.8,0,0,0,5.47-5.72,5.9,5.9,0,0,0-5.27-6.38,1.5,1.5,0,0,0,0,3c.43,0-.26-.09.14,0l.27.07.25.09c-.31-.12.09.06.13.08s.46.31.25.14a4.54,4.54,0,0,1,.58.58c-.16-.19,0,0,0,0l.18.29c.05.07.3.58.19.32a4.2,4.2,0,0,1,.21.66l.06.27c-.06-.31,0,.08,0,.15s0,.28,0,.42,0,.3,0,0a4.09,4.09,0,0,1-.17.69s-.1.27,0,.06c-.05.11-.11.22-.17.33s-.12.21-.19.31-.28.36-.12.17c-.16.18-.33.36-.51.53l-.23.19c.18-.14,0,0,0,0-.22.13-.42.27-.65.38l-.27.13-.27.1c-.22.07-.44.12-.66.17l-.24,0c.2,0-.28,0-.25,0a5.15,5.15,0,0,1-.68,0c-.29,0,.34.08-.15,0l-.46-.1a4.55,4.55,0,0,1-2.23-1.3,4.27,4.27,0,0,1-.71-1c-.14-.26-.06-.13,0-.06-.05-.15-.1-.29-.14-.44s-.05-.2-.08-.3-.06-.48,0-.21a6.54,6.54,0,0,1,0-.77l0-.3c0,.25,0-.08,0-.14a2.91,2.91,0,0,1,.49-1.27,2.88,2.88,0,0,1,2-1.36c.07,0,.39,0,.12,0l.45,0h.38c.1,0,.09,0,0,0l.22,0,.36.09s.43.17.19.06a4.52,4.52,0,0,1,.76.46,1.52,1.52,0,0,0,2.06-.53,1.55,1.55,0,0,0-.54-2.06Z"/></g><g id="_4_Outline" data-name="4 Outline"><path class="cls-1" d="M617.25,487.71a1300.83,1300.83,0,0,0-123.7-168.43c-9.83-11.35-19.95-22.65-27.18-35.81-13.86-25.21-16-55.29-13.73-84,3.55-44.13,18.48-89.6,51.95-118.58,6.41-5.55,14.27-10.66,22.69-9.73s15.73,11,11.05,18.1c11-5.79,25.72-3.28,34.18,5.81a17.8,17.8,0,0,1,28.61,14.05c8.37-.74,15.7,6.69,17.84,14.82s.39,16.72-1.36,24.94c-6.8,31.87-13.75,64.18-28.76,93.1-5,9.6-11,19.83-9.1,30.47S591,290.63,598.28,298.7c12.25,13.57,19.65,30.72,29.63,46,32.6,50,90.6,77.8,128.2,124.17"/><path class="cls-2" d="M618.54,487q-28.69-46.47-61.21-90.44c-21.56-29.13-44.48-57.11-68.14-84.54-11.65-13.51-22.36-27.56-28.35-44.56-5.67-16.08-7.59-33.24-7.49-50.22.19-31.24,6-63.44,19.7-91.7a138,138,0,0,1,26-37.31c5.56-5.6,11.83-11.57,19.39-14.3,7.05-2.55,15-1.14,18.67,5.94a8.55,8.55,0,0,1,0,8.71c-.84,1.34.77,2.71,2.05,2a28,28,0,0,1,32.36,5.58,1.5,1.5,0,0,0,1.82.23,16.3,16.3,0,0,1,26.35,12.76,1.5,1.5,0,0,0,1.5,1.5c6.76-.45,12.3,4.37,15.11,10.19,3.59,7.46,2.22,16.39.65,24.18-3.18,15.79-6.66,31.59-10.91,47.13s-9.44,30.9-16.55,45.39c-6.22,12.66-15.72,26.48-9.35,41,2.62,6,7.2,10.83,11.68,15.47a126.78,126.78,0,0,1,14,16.82c8.48,12.53,14.92,26.29,23.55,38.72C645,372,665.75,390.14,686.8,407.39c21.22,17.38,43.13,34.22,61.52,54.7q3.46,3.86,6.73,7.88c1.22,1.5,3.33-.64,2.13-2.12-17.59-21.61-39.4-39.12-60.91-56.59s-43.16-35.15-60-57.25c-9.1-11.95-15.83-25.28-23.64-38a122.35,122.35,0,0,0-13.31-18.34c-4.57-5.06-9.8-9.64-13.68-15.3a24.64,24.64,0,0,1-3.91-20.64c1.94-7.71,6.24-14.57,9.76-21.62a253.11,253.11,0,0,0,16.75-44.93c4.36-15.63,7.79-31.51,11.11-47.38,1.66-7.88,3.17-16.24,1-24.19-1.55-5.79-5.45-11.3-10.83-14.1a16.07,16.07,0,0,0-8.46-1.82l1.5,1.5A19.28,19.28,0,0,0,571.76,93.8l1.81.24a31,31,0,0,0-36-6.05l2.06,2.06c3.43-5.54,1-12.34-3.64-16.39-5.69-5-13.3-4.89-20-2-7.54,3.21-13.86,9.11-19.54,14.89a132.42,132.42,0,0,0-14.7,17.93c-18.1,26.39-26.95,58.29-30.13,89.85-1.74,17.3-1.92,34.88.87,52.08A116.16,116.16,0,0,0,471.84,295c10.7,15.23,23.79,28.77,35.71,43q18.39,22,35.78,44.8,34.67,45.44,65.23,93.8,3.74,5.89,7.39,11.83c1,1.64,3.61.13,2.59-1.52Z"/></g><g id="_4_Lines" data-name="4 Lines"><path class="cls-2" d="M539.16,89.31c-16.61,12.37-21.37,33.37-30.68,50.78a65.26,65.26,0,0,1-9.85,14.12c-1.33,1.4.79,3.53,2.12,2.12,14-14.83,17.63-35.75,28.78-52.37A48.46,48.46,0,0,1,540.67,91.9c1.53-1.14,0-3.75-1.51-2.59Z"/><path class="cls-3" d="M521.76,71.28c-3,.64-4.69,4.32-3.74,7.22s4,4.82,7,5.07a13.67,13.67,0,0,0,8.59-2.67c1-.65,2-1.59,1.86-2.75a3.42,3.42,0,0,0-1.89-2.28,31.35,31.35,0,0,0-12.26-4.48"/><path class="cls-2" d="M521.36,69.83a7.13,7.13,0,0,0-5.1,7.14c.09,3.54,2.77,6.29,6,7.49,3.6,1.37,7.67.37,10.91-1.48,1.53-.87,3.3-2,3.76-3.83.51-2-1-3.57-2.53-4.57a32.26,32.26,0,0,0-12.62-4.64,1.55,1.55,0,0,0-1.84,1,1.51,1.51,0,0,0,1,1.85,30.29,30.29,0,0,1,8.83,2.63,17,17,0,0,1,3.72,2.15c.3.26.59.52.45.93s-.87.93-1.31,1.22c-2.29,1.51-5.14,2.69-7.93,2.26-2.23-.34-4.58-1.77-5.26-4a4.22,4.22,0,0,1,2.73-5.28c1.87-.45,1.08-3.35-.8-2.89Z"/><path class="cls-3" d="M576.78,93.43a37.37,37.37,0,0,0,13.29,3.4c1,.06,2.18-.09,2.46-1,.34-1.14-1.12-1.93-2.28-2.19a53.58,53.58,0,0,0-14-1.21"/><path class="cls-2" d="M576,94.72a40.51,40.51,0,0,0,7.55,2.65c1.32.31,2.66.54,4,.72a15,15,0,0,0,3.48.21,3.22,3.22,0,0,0,2.76-1.72,2.74,2.74,0,0,0-.67-3.11,5.91,5.91,0,0,0-3-1.38c-1.4-.29-2.82-.53-4.24-.72a56.58,56.58,0,0,0-9.65-.44c-1.92.08-1.93,3.08,0,3a55.21,55.21,0,0,1,8.72.32c1.42.17,2.83.41,4.22.71a6.17,6.17,0,0,1,1.34.36c.15.07.31.22.46.27s0,.34,0-.15.34-.2-.21-.11a7.28,7.28,0,0,1-1.68-.07,32.71,32.71,0,0,1-4-.59,36,36,0,0,1-7.7-2.54,1.54,1.54,0,0,0-2,.54,1.51,1.51,0,0,0,.54,2Z"/><path class="cls-3" d="M602.27,110.17a16.22,16.22,0,0,0-4.33,3,4.89,4.89,0,0,0,2.73,8.59,16.29,16.29,0,0,0,6-.18,12.73,12.73,0,0,0,4.4-1.25,4.3,4.3,0,0,0,2.33-3.71c-.13-2.32-2.64-3.71-4.9-4.27s-4.82-.86-6.32-2.63"/><path class="cls-2" d="M601.51,108.88c-3.17,1.69-6.66,4-6.77,8-.09,3.78,3.48,6.12,6.87,6.47a23.06,23.06,0,0,0,5.91-.46,10.81,10.81,0,0,0,5.12-1.89,5.55,5.55,0,0,0,2.28-4.45,5.33,5.33,0,0,0-2.3-4,11.9,11.9,0,0,0-4.68-1.93c-1.68-.37-3.49-.68-4.68-2s-3.41.68-2.12,2.12c1.84,2.05,4.57,2.39,7.09,3,1.55.41,4.46,1.64,3.52,3.74a4.23,4.23,0,0,1-2.91,2.07,26,26,0,0,1-4.37.76c-2.24.23-5.66.12-6.58-2.46-1.12-3.12,3-5.28,5.14-6.42,1.7-.91.19-3.51-1.52-2.59Z"/><path class="cls-3" d="M550.06,143.65a7.22,7.22,0,0,0-3.55.06,2.51,2.51,0,0,0-1.75,2.76,3.36,3.36,0,0,0,1.46,1.68c7,4.76,16.54,3.22,24.25,6.66,1.77.79,3.52,1.86,5.45,1.81s4-1.91,3.26-3.71a138.31,138.31,0,0,0-30.3-8.69"/><path class="cls-2" d="M550.46,142.21c-2.64-.39-6.22-.35-7.12,2.83-.78,2.8,2,4.52,4.12,5.57,4.89,2.44,10.4,2.71,15.68,3.66a30.89,30.89,0,0,1,7.71,2.37c2.39,1.13,5.13,2.23,7.63.72,1.82-1.1,3.7-4.59,1.09-5.9a68.68,68.68,0,0,0-9-3.39,138.68,138.68,0,0,0-21.25-5.29c-1.89-.32-2.7,2.57-.8,2.89a140,140,0,0,1,30.3,8.68l-1-1c.49,1.65-2,1.91-3,1.66a33.32,33.32,0,0,1-4.54-1.91,41.59,41.59,0,0,0-9.54-2.21,53.29,53.29,0,0,1-9.54-1.95,16,16,0,0,1-4.1-2c-.61-.45-1.09-.94-.34-1.53s2.14-.36,3-.23c1.88.28,2.7-2.61.79-2.89Z"/><path class="cls-2" d="M489.39,110.74a11.86,11.86,0,0,1,15.69,6.92c.66,1.8,3.56,1,2.9-.8a14.85,14.85,0,0,0-19.39-9,1.54,1.54,0,0,0-1,1.84,1.51,1.51,0,0,0,1.85,1Z"/><path class="cls-2" d="M488.09,117.27a25,25,0,0,1,10,2.88,1.54,1.54,0,0,0,2.06-.54,1.52,1.52,0,0,0-.54-2,28.5,28.5,0,0,0-11.48-3.29,1.51,1.51,0,0,0-1.5,1.5,1.53,1.53,0,0,0,1.5,1.5Z"/><path class="cls-2" d="M480.64,122.14a27.49,27.49,0,0,0,8.63,2.33,1.5,1.5,0,0,0,1.5-1.5,1.54,1.54,0,0,0-1.5-1.5l-.57-.06c-.47-.06.3,0-.17,0l-1-.17c-.64-.12-1.27-.27-1.9-.43s-1.24-.37-1.85-.58c-.31-.12-.63-.23-.94-.36l-.17-.07-.53-.23a1.54,1.54,0,0,0-2,.54,1.52,1.52,0,0,0,.54,2Z"/><path class="cls-2" d="M488.59,128.78a20.76,20.76,0,0,0,15.84-1.15,1.5,1.5,0,0,0-1.52-2.59,17.7,17.7,0,0,1-13.53.85,1.5,1.5,0,0,0-.79,2.89Z"/><path class="cls-2" d="M536.36,107.44A19.14,19.14,0,0,1,552,113.22c1.33,1.4,3.45-.72,2.12-2.12a22,22,0,0,0-17.71-6.66,1.54,1.54,0,0,0-1.5,1.5,1.52,1.52,0,0,0,1.5,1.5Z"/><path class="cls-2" d="M538.33,112.47a30.13,30.13,0,0,1,9.53,1.85,1.51,1.51,0,0,0,1.85-1,1.54,1.54,0,0,0-1.05-1.84,32.83,32.83,0,0,0-10.33-2,1.5,1.5,0,0,0,0,3Z"/><path class="cls-2" d="M529,114a13.46,13.46,0,0,0,18.48,5.64c1.7-.91.19-3.5-1.52-2.59a10.57,10.57,0,0,1-14.36-4.56c-.89-1.72-3.48-.2-2.6,1.51Z"/><path class="cls-2" d="M566.43,122.81A15.59,15.59,0,0,1,579,126.88c1.41,1.32,3.53-.8,2.12-2.12a18.8,18.8,0,0,0-15.51-4.84,1.51,1.51,0,0,0-1,1.84,1.53,1.53,0,0,0,1.85,1Z"/><path class="cls-2" d="M565.24,126.33c.06,0,.61-.09.25,0l.52,0a9.35,9.35,0,0,1,1.06,0l.52,0,.26,0c-.18,0-.18,0,0,0,.35.07.69.13,1,.23s.67.21,1,.33c.16.06.17.06,0,0l.24.11.47.23a10.3,10.3,0,0,1,.9.55s.49.35.23.15l.41.34a1.5,1.5,0,1,0,2.12-2.12,11.68,11.68,0,0,0-9.81-2.68,1.5,1.5,0,0,0-1.05,1.84,1.55,1.55,0,0,0,1.85,1Z"/><path class="cls-2" d="M558.15,129.54a22.35,22.35,0,0,0,21.47,4.75c1.84-.58,1-3.48-.79-2.89a19.31,19.31,0,0,1-18.56-4c-1.43-1.3-3.56.82-2.12,2.12Z"/><path class="cls-2" d="M591.74,157.17a15.48,15.48,0,0,1,12,3.54,1.55,1.55,0,0,0,2.12,0,1.51,1.51,0,0,0,0-2.12,18.73,18.73,0,0,0-14.92-4.31,1.52,1.52,0,0,0-1.05,1.85,1.54,1.54,0,0,0,1.85,1Z"/><path class="cls-2" d="M587,162.86l10.29,1.19a1.52,1.52,0,0,0,1.5-1.5,1.54,1.54,0,0,0-1.5-1.5L587,159.86a1.51,1.51,0,0,0-1.5,1.5,1.53,1.53,0,0,0,1.5,1.5Z"/><path class="cls-2" d="M595.13,114.05c-4.32,2.6-6.7,7-8.3,11.66-1.8,5.23-2.9,10.63-5,15.77-4.78,11.57-12.36,23.21-10.24,36.3,1,6,4.12,11.61,9.32,14.84,1.64,1,3.15-1.57,1.51-2.59-4.28-2.66-6.8-7.27-7.77-12.12-1.16-5.75.1-11.71,2-17.15,2-5.66,4.81-11,7.19-16.44a128,128,0,0,0,5-15.11c1.41-4.78,3.29-9.87,7.78-12.57a1.5,1.5,0,0,0-1.52-2.59Z"/><path class="cls-2" d="M569.74,94.82l-18.43,34c-5.21,9.59-11.52,20.06-9.35,31.43A18.94,18.94,0,0,0,550.18,173c1.64,1,3.15-1.57,1.52-2.59C548,168,545.8,164,544.92,159.8c-1-4.83-.1-9.75,1.53-14.33,1.9-5.3,4.77-10.21,7.45-15.15l8.62-15.9,9.81-18.09c.92-1.7-1.67-3.21-2.59-1.51Z"/><path class="cls-2" d="M486.12,190.61A56.82,56.82,0,0,0,518.63,221c1.81.66,2.6-2.24.79-2.9a53.94,53.94,0,0,1-30.71-29c-.77-1.77-3.36-.24-2.59,1.51Z"/><path class="cls-2" d="M531.17,196c.32,14.69-14,26.13-10.59,41.26a15.85,15.85,0,0,0,5.16,8.73c1.47,1.22,3.61-.89,2.12-2.12-6.61-5.48-5.25-14.92-2.43-22,3.4-8.48,9-16.39,8.74-25.89,0-1.92-3-1.93-3,0Z"/><path class="cls-2" d="M531.72,219.28a42,42,0,0,0,13.4,10,1.55,1.55,0,0,0,2.06-.54,1.52,1.52,0,0,0-.54-2.05,39.71,39.71,0,0,1-12.79-9.57,1.52,1.52,0,0,0-2.13,0,1.54,1.54,0,0,0,0,2.12Z"/><path class="cls-2" d="M510,159.43a34.69,34.69,0,0,0-.26,31.83c.88,1.73,3.46.21,2.59-1.51a31.59,31.59,0,0,1,.26-28.81c.9-1.7-1.69-3.22-2.59-1.51Z"/><path class="cls-2" d="M517.58,169.57l-.8,11.86a1.51,1.51,0,0,0,1.5,1.5,1.54,1.54,0,0,0,1.5-1.5l.8-11.86a1.5,1.5,0,0,0-3,0Z"/><path class="cls-2" d="M524.22,168.93a22.44,22.44,0,0,1-2.39,21c-1.1,1.6,1.5,3.1,2.59,1.52a25.25,25.25,0,0,0,2.69-23.31c-.7-1.77-3.6-1-2.89.8Z"/></g><g id="_3_Outline-2" data-name="3 Outline"><path class="cls-1" d="M418.1,324.8c16.35-9.47,33.71-17.05,51-24.6C496,288.46,521.33,272,549.84,265c9.56-2.33,25.28-5.34,30-1.89,16.87,12.35,16.49,18.23,12.18,21.79-6.6,5.44-10.24,6.95-20.46,7.66-9.33.66-19.61,3.28-25.13,10.83,9,3.32,19-.07,27.78-3.89s18.06-8.21,27.55-6.81S620,304.4,615.75,313c14.36,2.65,11.13,22.11-4.07,31,6.22,17.14-7.44,36.08-24.17,43.34s-35.65,6.46-53.84,7.85"/><path class="cls-2" d="M418.86,326.09c9.07-5.24,18.45-9.92,27.95-14.33s19-8.31,28.35-12.64c17.93-8.25,35.08-18.18,53.4-25.57a161.69,161.69,0,0,1,26.32-8.18,112.07,112.07,0,0,1,11.77-2c3.25-.35,6.76-.68,10,0a8.72,8.72,0,0,1,3.61,1.86c1.87,1.4,3.7,2.87,5.44,4.42a30.28,30.28,0,0,1,6.13,6.9,8.26,8.26,0,0,1,1.07,2.52,2.46,2.46,0,0,1,.13.89c0,.18,0,.35,0,.53,0,.39,0,0,0,.3a3.39,3.39,0,0,1-.69,1.62c-.21.33,0,0-.14.2s-.22.25-.33.38-.53.51-.81.75a29.56,29.56,0,0,1-8.13,5.22,37.24,37.24,0,0,1-10.67,2c-8.08.61-16.46,2.17-23,7.32a23.2,23.2,0,0,0-4.11,4.29,1.52,1.52,0,0,0,.9,2.2c11.75,4.21,23.6-1.85,34.26-6.34,5.59-2.35,11.5-4.54,17.64-4.57a18,18,0,0,1,13.25,5.36c3.31,3.38,5.43,8.44,3.3,13a1.51,1.51,0,0,0,.89,2.2c4.27.83,7.54,3.55,8,8,.55,4.86-1.72,9.83-4.7,13.55a28.52,28.52,0,0,1-7.78,6.69,1.51,1.51,0,0,0-.68,1.69c4.27,12.07-1.65,24.61-10.44,33-10.65,10.15-25.33,13.39-39.56,14.69-8.83.81-17.72,1-26.57,1.64-1.91.15-1.93,3.15,0,3,16.23-1.22,33-.67,48.61-5.78,13-4.25,24.61-13.31,30-26.2a29.47,29.47,0,0,0,.9-21.11l-.69,1.69a29.55,29.55,0,0,0,12.72-14.61c1.82-4.79,2-10.64-1.33-14.82a12.79,12.79,0,0,0-7.68-4.32l.9,2.2c4.44-9.51-3.87-19.6-12.92-22.13-6-1.68-12.58-.43-18.36,1.51-6.15,2.06-11.92,5.1-18,7.3-6.71,2.41-14,3.94-20.94,1.46l.89,2.2c5-6.74,14-9.14,22-9.92,4-.39,8-.54,11.95-1.65a26.74,26.74,0,0,0,8.68-4.47c3.33-2.49,6.52-5.19,5.43-9.78a15.91,15.91,0,0,0-3.61-6.33,56.92,56.92,0,0,0-9-8.22,16.89,16.89,0,0,0-4.54-2.91,16.4,16.4,0,0,0-4.35-.75,54.25,54.25,0,0,0-11.45.77,144.9,144.9,0,0,0-25.73,6.3c-19.16,6.54-36.87,16.48-55,25.34-9.39,4.59-19,8.65-28.57,12.92-9.85,4.4-19.63,9-29.13,14.13-2.37,1.28-4.73,2.59-7.06,3.94a1.5,1.5,0,0,0,1.51,2.59Z"/></g><g id="_3_Lines-2" data-name="3 Lines"><path class="cls-2" d="M545,303a37.43,37.43,0,0,1-25.29,10,1.5,1.5,0,0,0,0,3,40.6,40.6,0,0,0,27.41-10.84c1.42-1.32-.71-3.43-2.12-2.12Z"/><path class="cls-2" d="M532.39,276a14.14,14.14,0,0,0,6.33,8.78c3.54,2.36,7.79,3.36,11.87,4.31,1.88.43,2.68-2.46.8-2.9-6.27-1.45-14.68-3.57-16.11-11-.36-1.89-3.26-1.09-2.89.8Z"/><path class="cls-2" d="M566.1,307.6a25.11,25.11,0,0,0,10,20.28,1.51,1.51,0,0,0,2.05-.54,1.53,1.53,0,0,0-.54-2,22,22,0,0,1-8.47-17.69c0-1.93-3-1.93-3,0Z"/><path class="cls-2" d="M580,304.83a16.68,16.68,0,0,1,6.87,14.4c-.11,1.93,2.89,1.92,3,0a19.73,19.73,0,0,0-8.36-17,1.51,1.51,0,0,0-2.05.53,1.54,1.54,0,0,0,.54,2.06Z"/><path class="cls-2" d="M574,311.3l2,5.85a1.5,1.5,0,0,0,2.89-.8l-2-5.85a1.55,1.55,0,0,0-1.85-1.05,1.52,1.52,0,0,0-1,1.85Z"/><path class="cls-2" d="M581.47,316.28l2.52,5.8a1.49,1.49,0,0,0,.9.69,1.54,1.54,0,0,0,1.15-.15,1.52,1.52,0,0,0,.69-.9,1.7,1.7,0,0,0-.15-1.15l-2.52-5.8a1.52,1.52,0,0,0-.9-.69,1.5,1.5,0,0,0-1.84,1,1.73,1.73,0,0,0,.15,1.16Z"/><path class="cls-2" d="M569.62,338a18.71,18.71,0,0,0,5.83,19.78,1.55,1.55,0,0,0,2.12,0,1.51,1.51,0,0,0,0-2.12,15.79,15.79,0,0,1-5.06-16.86c.59-1.85-2.3-2.63-2.89-.8Z"/><path class="cls-2" d="M584.78,334.31a16.39,16.39,0,0,1,3.42,17.79,1.55,1.55,0,0,0,.54,2,1.51,1.51,0,0,0,2-.54,19.45,19.45,0,0,0-3.89-21.42,1.5,1.5,0,0,0-2.12,2.12Z"/><path class="cls-2" d="M575.94,341.65a12.42,12.42,0,0,0,4.91,9.59,1.5,1.5,0,0,0,2-.54,1.54,1.54,0,0,0-.54-2.05c.12.09.1.08,0,0l-.25-.21-.38-.35a10.73,10.73,0,0,1-.79-.86s-.18-.24-.08-.1-.12-.17-.11-.16-.2-.29-.3-.43a10.2,10.2,0,0,1-.57-1c-.08-.15-.15-.31-.23-.47.09.2,0,.06,0-.06l-.09-.24a10.59,10.59,0,0,1-.33-1.05c-.05-.19-.09-.38-.13-.57s0-.17,0-.26,0-.27,0-.05a11.5,11.5,0,0,1-.08-1.16,1.5,1.5,0,0,0-3,0Z"/><path class="cls-2" d="M581,335.81l1.26,6.23a1.51,1.51,0,0,0,1.85,1,1.53,1.53,0,0,0,1-1.84L583.9,335a1.5,1.5,0,0,0-1.84-1,1.53,1.53,0,0,0-1,1.84Z"/><path class="cls-2" d="M571.74,379a13.73,13.73,0,0,0,3,8.09,1.52,1.52,0,0,0,2.13,0,1.56,1.56,0,0,0,0-2.13c-.11-.13-.1-.12,0,0l-.14-.2c-.09-.12-.18-.26-.27-.39s-.3-.47-.43-.71-.3-.56-.44-.85a2,2,0,0,0-.1-.21c.08.17.08.18,0,0l-.15-.38a11.56,11.56,0,0,1-.48-1.72c0-.14-.06-.28-.08-.41l0-.24c0,.2,0,.22,0,.05,0-.32,0-.64-.06-1a1.5,1.5,0,0,0-3,0Z"/><path class="cls-2" d="M576.57,381.43l2.49,3.74a1.59,1.59,0,0,0,.9.69,1.53,1.53,0,0,0,1.15-.15,1.48,1.48,0,0,0,.69-.9,1.45,1.45,0,0,0-.15-1.15l-2.49-3.74a1.56,1.56,0,0,0-.89-.69,1.5,1.5,0,0,0-1.85,1,1.49,1.49,0,0,0,.15,1.15Z"/><path class="cls-2" d="M580.84,375.75l.25.18s.24.18.1.06.1.1.13.12l.18.16a9.16,9.16,0,0,1,.81.84c0,.06.21.29,0,0a1.43,1.43,0,0,1,.14.2c.11.15.21.3.31.46a11.2,11.2,0,0,1,.55,1c.06.14,0,.1,0,0,0,.09.08.19.11.28s.12.35.17.53a9.43,9.43,0,0,1,.25,1.08c.07.38,0-.2,0,0s0,.21,0,.31,0,.36,0,.55a8.92,8.92,0,0,1-.08,1.16,1.5,1.5,0,0,0,1.5,1.5,1.54,1.54,0,0,0,1.5-1.5,10.26,10.26,0,0,0-4.49-9.59,1.51,1.51,0,0,0-2.05.54,1.53,1.53,0,0,0,.54,2.05Z"/><path class="cls-3" d="M612.73,348.28a6.6,6.6,0,0,0-8.26-1.4,8,8,0,0,0-3.65,7.81,10.18,10.18,0,0,0,5,7.27c1.27.74,2.9,1.23,4.16.48a4.76,4.76,0,0,0,1.81-3.24,34,34,0,0,0,.66-10.5"/><path class="cls-2" d="M613.8,347.22A8.07,8.07,0,0,0,605,345a9.13,9.13,0,0,0-5.71,7.71,10.84,10.84,0,0,0,3.74,9.09,9.43,9.43,0,0,0,4.7,2.46,4.41,4.41,0,0,0,4.69-2.34,17.65,17.65,0,0,0,1.43-6.17,34.42,34.42,0,0,0,.08-7,1.54,1.54,0,0,0-1.5-1.5,1.52,1.52,0,0,0-1.5,1.5,33,33,0,0,1-.55,9.82c-.18.88-.39,2.34-1.36,2.72s-2.52-.54-3.34-1.16a8.34,8.34,0,0,1-3.45-6.05,6.47,6.47,0,0,1,3-5.86,5.12,5.12,0,0,1,6.44,1.17,1.52,1.52,0,0,0,2.13,0,1.54,1.54,0,0,0,0-2.12Z"/><path class="cls-3" d="M617.35,315.46a13.21,13.21,0,0,0,2.4,9.85,1.85,1.85,0,0,0,1,.78c.82.21,1.51-.62,1.82-1.4a7.17,7.17,0,0,0-4.76-9.19"/><path class="cls-2" d="M615.9,315.06a15,15,0,0,0,.45,6.8,15.35,15.35,0,0,0,1.34,3.05c.59,1,1.35,2.26,2.54,2.61,2.67.77,4-2.33,4.17-4.42a8.63,8.63,0,0,0-1.28-5.26,8.37,8.37,0,0,0-5-3.79,1.5,1.5,0,1,0-.79,2.89l.46.14c.08,0,.45.18.21.07a6.78,6.78,0,0,1,1,.53l.16.12c.2.13-.16-.14,0,0l.36.31.34.34.18.2s.19.24.1.12l.09.12.12.17.29.46c.08.14.15.28.22.43l.09.18c.12.25,0-.07,0,.09s.21.6.29.91c0,.15.06.31.1.47s0,.29,0,0a2.45,2.45,0,0,1,0,.27,7,7,0,0,1,0,1,1.36,1.36,0,0,1,0,.2c0-.06.06-.29,0,0s-.07.35-.11.53-.09.31-.15.46-.12.28,0,.15-.06.09-.06.09-.11.19-.17.27.1-.14,0,0l-.06,0h0c-.08.05-.08.05,0,0a.31.31,0,0,1,.19,0s.11,0,.15,0,.12.17,0,0a.85.85,0,0,0-.16-.17c.12.14,0-.07-.06-.09a11.32,11.32,0,0,1-.71-1.09,10.7,10.7,0,0,1-1-2.17,12.57,12.57,0,0,1-.35-1.34,8.12,8.12,0,0,1-.19-1.24c0-.46-.05-.92,0-1.38,0-.26,0-.52,0-.78s0-.38.07-.55a1.55,1.55,0,0,0-1-1.84,1.52,1.52,0,0,0-1.85,1Z"/><path class="cls-2" d="M533.42,372a15.89,15.89,0,0,0-11.27,18.16c.38,1.89,3.27,1.09,2.89-.79a12.84,12.84,0,0,1,9.18-14.47c1.87-.48,1.07-3.37-.8-2.9Z"/><path class="cls-2" d="M614.75,313.12A213.86,213.86,0,0,1,550.33,337c-6.4,1.26-12.87,2.22-19.36,2.88-1.91.2-1.93,3.2,0,3a217.38,217.38,0,0,0,67.7-18.23q9-4.08,17.6-9a1.5,1.5,0,0,0-1.52-2.59Z"/><path class="cls-2" d="M412.17,373.58c-2.36-9.17,7.23-15.7,12.51-21.53,4.93-5.43,8.9-13,16.13-15.66,1.79-.67,1-3.57-.8-2.89-6.29,2.34-10.3,7.66-14.34,12.73a86.65,86.65,0,0,1-7.22,7.87,39.84,39.84,0,0,0-7.22,8.59,15.81,15.81,0,0,0-2,11.69c.48,1.86,3.38,1.07,2.89-.8Z"/><path class="cls-2" d="M417.6,369.43c2.47-3.22,6.73-4.38,10.49-5.29,4.09-1,8.23-1.95,11.63-4.56s5.47-6,8-9.12,5.84-6.19,10.06-6.28c1.93,0,1.93-3,0-3-7.25.15-11.51,6.41-15.59,11.51-2.21,2.78-4.65,5.25-8,6.59s-6.72,1.77-10,2.79c-3.59,1.11-6.87,2.82-9.19,5.84-1.18,1.53,1.43,3,2.59,1.52Z"/><path class="cls-2" d="M435.71,379.48c7.45-4.92,15-9.91,23.23-13.38,8.84-3.72,18.15-4.77,27.62-5.54,1.91-.15,1.93-3.15,0-3-9.73.79-19.31,1.84-28.4,5.63-8.53,3.56-16.28,8.62-24,13.7-1.61,1.06-.11,3.66,1.51,2.59Z"/><path class="cls-2" d="M463.05,390.31a28.86,28.86,0,0,1,35.52-21,1.5,1.5,0,0,0,.79-2.9,31.86,31.86,0,0,0-39.2,23.11c-.47,1.88,2.42,2.67,2.89.8Z"/><path class="cls-2" d="M438.62,398.54c8.83-3.35,17.68-6.7,26.78-9.25a123.87,123.87,0,0,1,28.49-4.54c5.57-.23,11.14-.15,16.7.06,1.93.07,1.93-2.93,0-3a167.67,167.67,0,0,0-29.8,1.11,148.6,148.6,0,0,0-27.66,7.1c-5.14,1.77-10.22,3.7-15.3,5.62-1.79.68-1,3.58.79,2.9Z"/><path class="cls-2" d="M510.6,331.39a15.68,15.68,0,0,0-18.23,14,1.5,1.5,0,0,0,3,0,12.84,12.84,0,0,1,14.43-11.13,1.56,1.56,0,0,0,1.85-1,1.51,1.51,0,0,0-1-1.84Z"/><path class="cls-2" d="M502.22,344.59l7.81-4.3a1.51,1.51,0,0,0,.54-2.05,1.54,1.54,0,0,0-2.06-.54L500.7,342a1.51,1.51,0,0,0-.54,2.05,1.54,1.54,0,0,0,2.06.54Z"/><path class="cls-2" d="M461.77,311.39c3.89,4.4,8.78,9.17,15.18,8.19,6.87-1.06,10.73-7.46,13.75-13,.92-1.7-1.67-3.22-2.59-1.52-2.56,4.74-5.7,10.59-11.56,11.6-5.32.92-9.51-3.78-12.66-7.35-1.28-1.45-3.4.68-2.12,2.12Z"/><path class="cls-2" d="M470.86,310.19a9.3,9.3,0,0,0,12.54-5.29,1.5,1.5,0,1,0-2.89-.79,5.4,5.4,0,0,1-1.25,2,7.29,7.29,0,0,1-.58.53c-.2.18.08-.05-.05.05l-.27.19c-.22.15-.45.28-.68.41l-.29.15-.24.11-.19.08-.37.12a6.66,6.66,0,0,1-.7.19l-.33.07s-.47.06-.12,0l-.71.05c-.24,0-.48,0-.72,0-.08,0-.46-.07-.12,0l-.32-.06a5.53,5.53,0,0,1-.7-.18l-.37-.13c-.3-.11.2.09-.12-.06a1.55,1.55,0,0,0-2.05.54,1.5,1.5,0,0,0,.53,2.05Z"/><path class="cls-2" d="M496,347.18c4.31,1.09,9.15,2.28,13.48.6,3.51-1.37,6.37-4.31,6.63-8.2.12-1.93-2.88-1.92-3,0-.18,2.76-2.69,4.8-5.17,5.56-3.64,1.13-7.58.05-11.15-.86-1.87-.47-2.67,2.42-.79,2.9Z"/><path class="cls-2" d="M319.21,370a8.82,8.82,0,0,1,2,.58l-.36-.15a9,9,0,0,1,1.54.81l.33.23.16.13c-.37-.26-.13-.1,0,0s.45.39.66.6a1.51,1.51,0,0,0,2.12,0,1.53,1.53,0,0,0,0-2.12,10.5,10.5,0,0,0-5.62-2.93,1.61,1.61,0,0,0-1.16.15,1.57,1.57,0,0,0-.69.89,1.53,1.53,0,0,0,1,1.85Z"/><path class="cls-2" d="M309.85,372.88a12.47,12.47,0,0,0,17.44,8,1.51,1.51,0,0,0,.53-2.05,1.54,1.54,0,0,0-2.05-.54,9.59,9.59,0,0,1-13-6.17,1.5,1.5,0,0,0-2.89.79Z"/><path class="cls-2" d="M321.25,364.71a8.65,8.65,0,0,1,7.3,2.05A8.75,8.75,0,0,1,331.3,374a1.51,1.51,0,0,0,1.5,1.5,1.53,1.53,0,0,0,1.5-1.5,11.62,11.62,0,0,0-3.77-9.51,11.78,11.78,0,0,0-10.07-2.69,1.51,1.51,0,0,0-1,1.84,1.54,1.54,0,0,0,1.84,1Z"/><path class="cls-2" d="M342.44,351.46a24.61,24.61,0,0,1,11.71,2.26,1.53,1.53,0,0,0,2.05-.54,1.51,1.51,0,0,0-.54-2.05,27.68,27.68,0,0,0-13.22-2.67,1.5,1.5,0,0,0,0,3Z"/><path class="cls-2" d="M543.58,275l4.57,5.39a1.5,1.5,0,0,0,2.12,0,1.55,1.55,0,0,0,0-2.12l-4.57-5.39a1.49,1.49,0,0,0-2.12,0,1.53,1.53,0,0,0,0,2.12Z"/><path class="cls-2" d="M550.55,269A11.84,11.84,0,0,1,558,282.65c-.47,1.88,2.42,2.68,2.9.8a14.92,14.92,0,0,0-9.53-17.36c-1.83-.62-2.62,2.28-.79,2.89Z"/></g><g id="_5_Outline" data-name="5 Outline"><path class="cls-1" d="M757.7,209.57c-76.3-15-153.87-22.5-231.28-29.94-18.24-1.75-36.62-3.5-54.85-1.65-10.52,1.06-21.09,3.32-31.57,1.93s-21.23-7.52-24.21-17.66l6.31-7.37-73.22-38.06c-6.57-3.42-13.35-7-18-12.76s-8.38-15.89-2.7-20.65c3.76-3.15,13.76-5.25,19.32-4.5a2.37,2.37,0,0,0,2.67-2.66c-2-15.55,12.85-24,31-19.49-.46-12.87,12.38-19.8,26.27-17.94,12.16,1.63,22.81,7.55,32.81,14.67C434,44.43,422.5,40.16,411.61,38.66c-1.81-.26-1.72-5.87-1-7.53,4.42-9.54,16.19-13.29,27-12.8,12,.55,23,6.93,32.7,14.1,26,19.25,46.89,45.56,75.51,60.67,22,11.63,47.17,15.8,72,18.33a631.15,631.15,0,0,0,138.42-1.1"/><path class="cls-2" d="M758.1,208.12c-46-9.06-92.54-15.39-139.14-20.61-23.25-2.6-46.53-4.93-69.82-7.19s-46.67-5.59-70-4.41c-13,.65-26.32,4.4-39.36,2.47-9.52-1.41-19.54-6.82-22.56-16.53l-.38,1.46,6.31-7.37a1.51,1.51,0,0,0-.31-2.35l-42.27-22-21.13-11c-6.44-3.35-13.15-6.45-19.24-10.41-5.27-3.44-9.78-7.93-12.09-13.88-1.95-5-2.09-10.56,3.32-13.19,4.88-2.37,10.49-3,15.83-2.77a3.93,3.93,0,0,0,4.4-3.84c.08-2.52-.32-4.77.34-7.28,3.24-12.32,18.48-13.55,28.77-11.05a1.52,1.52,0,0,0,1.9-1.45C382.45,45.37,393.3,39.89,403.45,40c13.23.17,25.56,7.33,36.05,14.75,1.2.86,2.91-.84,2.05-2.05a33.35,33.35,0,0,0-12.84-10.64,49.76,49.76,0,0,0-8.2-3.11c-1.35-.39-2.71-.72-4.08-1-.63-.13-1.27-.25-1.9-.36a8.86,8.86,0,0,1-2.52-.4c-.86-.7-.4-4.35,0-5.42a15.61,15.61,0,0,1,4.82-6.16c4.4-3.63,10.27-5.3,15.88-5.73,13.79-1,26.13,5.89,36.86,13.82s20.37,16.93,30.12,25.87c9.55,8.76,19.19,17.48,29.73,25A133.31,133.31,0,0,0,565.2,102.9c13.32,4.41,27.18,6.94,41.08,8.72,15,1.92,30.13,3.12,45.24,3.85a632.43,632.43,0,0,0,93.34-2.4q5.68-.57,11.35-1.24c1.9-.22,1.92-3.22,0-3a633.44,633.44,0,0,1-95.4,4q-23.87-.8-47.63-3.41c-14.56-1.61-29.11-3.93-43.16-8.16a131.85,131.85,0,0,1-37.94-18.42C521,75.06,511,65.89,501,56.74s-19.72-18.13-30.53-26S447.12,16,433.31,16.86a34.06,34.06,0,0,0-15.72,4.56c-3.89,2.39-8.21,6.49-8.83,11.25-.24,1.87-.29,4.22.64,5.93,1.12,2,3.9,1.79,5.91,2.2a44.76,44.76,0,0,1,17.09,6.92A27.67,27.67,0,0,1,439,54.25L441,52.19c-11.43-8.09-25.44-16-40-15.1-11.06.68-21.6,7.62-21.36,19.67l1.9-1.44c-10-2.43-22.71-1.85-29.49,7a17.32,17.32,0,0,0-3,6.1,19.33,19.33,0,0,0-.58,3.55c-.11,1.41.24,2.86.13,4.24-.14,1.71-2.4,1-3.64,1a34.88,34.88,0,0,0-4.57.34A37.33,37.33,0,0,0,332,79.67c-4.83,1.87-8.22,5.16-8.18,10.64,0,5.7,3,11.39,6.68,15.61,4.52,5.19,10.69,8.57,16.71,11.71q11.4,6,22.81,11.86l51.33,26.69-.3-2.36-4.88,5.69a14.16,14.16,0,0,0-1.55,1.83c-.92,1.61.82,4.35,1.63,5.8,4.56,8.1,13.83,12.78,22.76,14.13,12.55,1.91,25.12-1.38,37.62-2.22,12.95-.86,25.93-.07,38.84,1.06,51.78,4.55,103.6,9.77,155.12,16.73,29,3.91,58,8.52,86.72,14.17,1.88.38,2.69-2.52.8-2.89Z"/></g><g id="_5_Lines" data-name="5 Lines"><path class="cls-2" d="M349.92,79.11a98.39,98.39,0,0,1,42.4,23.82c1.39,1.33,3.52-.79,2.12-2.12a101.66,101.66,0,0,0-43.72-24.6,1.51,1.51,0,0,0-.8,2.9Z"/><path class="cls-2" d="M381.57,57.61a59.18,59.18,0,0,1,27.71,16.61c1.33,1.42,3.44-.71,2.12-2.12a62.14,62.14,0,0,0-29-17.39,1.51,1.51,0,0,0-.8,2.9Z"/><path class="cls-2" d="M438.71,19.72a11.55,11.55,0,0,0-7.84,7c-1.72,4.12-1.21,8.77.05,12.94.55,1.84,3.45,1.06,2.89-.8-1.05-3.47-1.6-7.32-.26-10.8a8.59,8.59,0,0,1,6-5.44c1.89-.42,1.09-3.32-.8-2.9Z"/><path class="cls-2" d="M442.19,36.63c.38-.58.77-1.16,1.19-1.72.1-.15.21-.29.31-.43s.17-.23.06-.07.08-.09.1-.13l.67-.81a34.6,34.6,0,0,1,2.89-3,1.5,1.5,0,0,0,0-2.12,1.53,1.53,0,0,0-2.12,0,36.47,36.47,0,0,0-5.7,6.81,1.5,1.5,0,0,0,2.6,1.51Z"/><path class="cls-2" d="M452.14,27.57a13.66,13.66,0,0,1-12.05,12,1.54,1.54,0,0,0-1.5,1.5,1.51,1.51,0,0,0,1.5,1.5,16.46,16.46,0,0,0,15.05-15,1.51,1.51,0,0,0-1.5-1.5,1.54,1.54,0,0,0-1.5,1.5Z"/><path class="cls-2" d="M391.93,53.27a29.52,29.52,0,0,0,8.86-9.74A1.5,1.5,0,1,0,398.2,42a28.73,28.73,0,0,1-1.63,2.58l-.45.62-.09.12h0l-.24.3c-.32.39-.65.78-1,1.16-.67.73-1.37,1.43-2.11,2.09q-.57.51-1.17,1l-.12.09-.3.23-.69.49a1.5,1.5,0,0,0,1.52,2.59Z"/><path class="cls-2" d="M367.6,57.73a14.14,14.14,0,0,1-10.4,13c-1.86.48-1.07,3.38.8,2.89a17.18,17.18,0,0,0,12.6-15.91c0-1.93-3-1.93-3,0Z"/><path class="cls-2" d="M358.34,68.61a21.37,21.37,0,0,1,1.89-3.53c.18-.27.37-.54.56-.8l.14-.18c.05-.07.17-.3,0,0a2.41,2.41,0,0,1,.29-.36,19.85,19.85,0,0,1,1.38-1.53,1.5,1.5,0,1,0-2.12-2.12,22.6,22.6,0,0,0-4.74,7,1.62,1.62,0,0,0-.15,1.16,1.49,1.49,0,0,0,.69.9,1.52,1.52,0,0,0,2-.54Z"/><path class="cls-2" d="M338.25,81.78a20,20,0,0,0-6.72,18,1.51,1.51,0,0,0,1.84,1A1.54,1.54,0,0,0,334.42,99a17.05,17.05,0,0,1,5.95-15,1.51,1.51,0,0,0,0-2.12,1.54,1.54,0,0,0-2.12,0Z"/><path class="cls-2" d="M340.59,92.47l3.81-3.74a1.52,1.52,0,0,0,0-2.12,1.54,1.54,0,0,0-2.13,0l-3.8,3.74a1.5,1.5,0,1,0,2.12,2.12Z"/><path class="cls-2" d="M338.17,100.22a18.45,18.45,0,0,0,13.58-18.3c-.06-1.92-3.06-1.93-3,0a15.42,15.42,0,0,1-11.38,15.41,1.5,1.5,0,0,0,.8,2.89Z"/><path class="cls-2" d="M387.61,114.22a15.44,15.44,0,0,0,24.52,11.26c1.54-1.13.05-3.73-1.52-2.59a12.46,12.46,0,0,1-20-8.67c-.19-1.91-3.19-1.93-3,0Z"/><path class="cls-2" d="M418.67,94.29a11.53,11.53,0,0,1,16.42,1.5c1.23,1.49,3.34-.65,2.12-2.12a14.35,14.35,0,0,0-20.67-1.5c-1.45,1.27.67,3.39,2.13,2.12Z"/><path class="cls-2" d="M421.9,96.84A35,35,0,0,1,433,98.16a1.5,1.5,0,0,0,.8-2.89,37.76,37.76,0,0,0-11.86-1.43,1.5,1.5,0,0,0,0,3Z"/><path class="cls-2" d="M419.17,100.78a24,24,0,0,0,17.6-1.28,1.5,1.5,0,1,0-1.51-2.59,20.83,20.83,0,0,1-15.3,1c-1.84-.59-2.63,2.31-.79,2.9Z"/></g><g id="_4_Outline-2" data-name="4 Outline"><path class="cls-1" d="M466.37,283.47c-13.86-25.21-16-55.29-13.73-84,3.55-44.13,18.48-89.6,51.95-118.58,6.41-5.55,14.27-10.66,22.69-9.73s15.73,11,11.05,18.1c11-5.79,25.72-3.28,34.18,5.81a17.8,17.8,0,0,1,28.61,14.05c8.37-.74,15.7,6.69,17.84,14.82s.39,16.72-1.36,24.94c-6.8,31.87-13.75,64.18-28.76,93.1"/><path class="cls-2" d="M467.66,282.72c-9-16.42-13-35-14-53.58a230.48,230.48,0,0,1,3.63-53.67,195.46,195.46,0,0,1,15-48.42A137.83,137.83,0,0,1,501,86.2c6.11-5.87,13.54-12.63,22.36-13.52a13.36,13.36,0,0,1,10.4,3c2.42,2.1,4.41,5.13,4.5,8.42a7.7,7.7,0,0,1-1.25,4.4c-.85,1.33.78,2.71,2.05,2a27.92,27.92,0,0,1,32.36,5.58,1.5,1.5,0,0,0,1.82.23,16.31,16.31,0,0,1,26.35,12.76,1.5,1.5,0,0,0,1.5,1.5c7.84-.59,14.19,6.13,16.25,13.2,2.81,9.66-.23,20.07-2.27,29.58-4.12,19.22-8.41,38.47-14.7,57.12a218.33,218.33,0,0,1-12.86,30.7c-.88,1.72,1.71,3.24,2.59,1.52,9.48-18.31,15.83-38,20.87-58,2.53-10,4.74-20.06,6.9-30.14s5.22-20.86,2.51-31.1c-2.25-8.49-9.94-16.62-19.29-15.92l1.5,1.5A19.28,19.28,0,0,0,571.76,93.8l1.81.24a31,31,0,0,0-36-6.05l2.06,2.06c4.21-6.62-.3-14.86-6.42-18.4-8-4.65-17.69-.74-24.58,4.17A104.79,104.79,0,0,0,489.41,94.3,142,142,0,0,0,474.59,116a185.42,185.42,0,0,0-18.42,49.73,241.49,241.49,0,0,0-5.81,55.11c.22,19.42,3.27,39.06,11.41,56.82,1,2.22,2.13,4.41,3.3,6.56.93,1.69,3.52.18,2.59-1.51Z"/></g><g id="_4_Lines-2" data-name="4 Lines"><path class="cls-2" d="M537.42,88.15c-7.77,5.8-12.28,14.39-16,23.1-4.09,9.46-7.78,19.15-12.59,28.28a66.06,66.06,0,0,1-10.15,14.68c-1.33,1.4.79,3.53,2.12,2.12,7.24-7.68,11.86-17.23,16-26.81q3-6.93,6-13.9a117.6,117.6,0,0,1,6.1-12.89,38.58,38.58,0,0,1,10.08-12c1.53-1.14,0-3.75-1.51-2.59Z"/><path class="cls-3" d="M521.76,71.28c-3,.64-4.69,4.32-3.74,7.22s4,4.82,7,5.07a13.67,13.67,0,0,0,8.59-2.67c1-.65,2-1.59,1.86-2.75a3.42,3.42,0,0,0-1.89-2.28,31.35,31.35,0,0,0-12.26-4.48"/><path class="cls-2" d="M521.36,69.83a7.13,7.13,0,0,0-5.1,7.14c.09,3.54,2.77,6.29,6,7.49,3.6,1.37,7.67.37,10.91-1.48,1.53-.87,3.3-2,3.76-3.83.51-2-1-3.57-2.53-4.57a32.26,32.26,0,0,0-12.62-4.64,1.55,1.55,0,0,0-1.84,1,1.51,1.51,0,0,0,1,1.85,30.29,30.29,0,0,1,8.83,2.63,17,17,0,0,1,3.72,2.15c.3.26.59.52.45.93s-.87.93-1.31,1.22c-2.29,1.51-5.14,2.69-7.93,2.26-2.23-.34-4.58-1.77-5.26-4a4.22,4.22,0,0,1,2.73-5.28c1.87-.45,1.08-3.35-.8-2.89Z"/><path class="cls-3" d="M576.78,93.43a37.37,37.37,0,0,0,13.29,3.4c1,.06,2.18-.09,2.46-1,.34-1.14-1.12-1.93-2.28-2.19a53.58,53.58,0,0,0-14-1.21"/><path class="cls-2" d="M576,94.72a40.51,40.51,0,0,0,7.55,2.65c1.32.31,2.66.54,4,.72a15,15,0,0,0,3.48.21,3.22,3.22,0,0,0,2.76-1.72,2.74,2.74,0,0,0-.67-3.11,5.91,5.91,0,0,0-3-1.38c-1.4-.29-2.82-.53-4.24-.72a56.58,56.58,0,0,0-9.65-.44c-1.92.08-1.93,3.08,0,3a55.21,55.21,0,0,1,8.72.32c1.42.17,2.83.41,4.22.71a6.17,6.17,0,0,1,1.34.36c.15.07.31.22.46.27s0,.34,0-.15.34-.2-.21-.11a7.28,7.28,0,0,1-1.68-.07,32.71,32.71,0,0,1-4-.59,36,36,0,0,1-7.7-2.54,1.54,1.54,0,0,0-2,.54,1.51,1.51,0,0,0,.54,2Z"/><path class="cls-3" d="M602.27,110.17a16.22,16.22,0,0,0-4.33,3,4.89,4.89,0,0,0,2.73,8.59,16.29,16.29,0,0,0,6-.18,12.73,12.73,0,0,0,4.4-1.25,4.3,4.3,0,0,0,2.33-3.71c-.13-2.32-2.64-3.71-4.9-4.27s-4.82-.86-6.32-2.63"/><path class="cls-2" d="M601.51,108.88c-3.17,1.69-6.66,4-6.77,8-.09,3.78,3.48,6.12,6.87,6.47a23.06,23.06,0,0,0,5.91-.46,10.81,10.81,0,0,0,5.12-1.89,5.55,5.55,0,0,0,2.28-4.45,5.33,5.33,0,0,0-2.3-4,11.9,11.9,0,0,0-4.68-1.93c-1.68-.37-3.49-.68-4.68-2s-3.41.68-2.12,2.12c1.84,2.05,4.57,2.39,7.09,3,1.55.41,4.46,1.64,3.52,3.74a4.23,4.23,0,0,1-2.91,2.07,26,26,0,0,1-4.37.76c-2.24.23-5.66.12-6.58-2.46-1.12-3.12,3-5.28,5.14-6.42,1.7-.91.19-3.51-1.52-2.59Z"/><path class="cls-3" d="M550.06,143.65a7.22,7.22,0,0,0-3.55.06,2.51,2.51,0,0,0-1.75,2.76,3.36,3.36,0,0,0,1.46,1.68c7,4.76,16.54,3.22,24.25,6.66,1.77.79,3.52,1.86,5.45,1.81s4-1.91,3.26-3.71a138.31,138.31,0,0,0-30.3-8.69"/><path class="cls-2" d="M550.46,142.21c-2.64-.39-6.22-.35-7.12,2.83-.78,2.8,2,4.52,4.12,5.57,4.89,2.44,10.4,2.71,15.68,3.66a30.89,30.89,0,0,1,7.71,2.37c2.39,1.13,5.13,2.23,7.63.72,1.82-1.1,3.7-4.59,1.09-5.9a68.68,68.68,0,0,0-9-3.39,138.68,138.68,0,0,0-21.25-5.29c-1.89-.32-2.7,2.57-.8,2.89a140,140,0,0,1,30.3,8.68l-1-1c.49,1.65-2,1.91-3,1.66a33.32,33.32,0,0,1-4.54-1.91,41.59,41.59,0,0,0-9.54-2.21,53.29,53.29,0,0,1-9.54-1.95,16,16,0,0,1-4.1-2c-.61-.45-1.09-.94-.34-1.53s2.14-.36,3-.23c1.88.28,2.7-2.61.79-2.89Z"/><path class="cls-2" d="M489.39,110.74a11.86,11.86,0,0,1,15.69,6.92c.66,1.8,3.56,1,2.9-.8a14.85,14.85,0,0,0-19.39-9,1.54,1.54,0,0,0-1,1.84,1.51,1.51,0,0,0,1.85,1Z"/><path class="cls-2" d="M488.09,117.27a25,25,0,0,1,10,2.88,1.54,1.54,0,0,0,2.06-.54,1.52,1.52,0,0,0-.54-2,28.5,28.5,0,0,0-11.48-3.29,1.51,1.51,0,0,0-1.5,1.5,1.53,1.53,0,0,0,1.5,1.5Z"/><path class="cls-2" d="M480.64,122.14a27.49,27.49,0,0,0,8.63,2.33,1.5,1.5,0,0,0,1.5-1.5,1.54,1.54,0,0,0-1.5-1.5l-.57-.06c-.47-.06.3,0-.17,0l-1-.17c-.64-.12-1.27-.27-1.9-.43s-1.24-.37-1.85-.58c-.31-.12-.63-.23-.94-.36l-.17-.07-.53-.23a1.54,1.54,0,0,0-2,.54,1.52,1.52,0,0,0,.54,2Z"/><path class="cls-2" d="M488.59,128.78a20.76,20.76,0,0,0,15.84-1.15,1.5,1.5,0,0,0-1.52-2.59,17.7,17.7,0,0,1-13.53.85,1.5,1.5,0,0,0-.79,2.89Z"/><path class="cls-2" d="M536.36,107.44A19.14,19.14,0,0,1,552,113.22c1.33,1.4,3.45-.72,2.12-2.12a22,22,0,0,0-17.71-6.66,1.54,1.54,0,0,0-1.5,1.5,1.52,1.52,0,0,0,1.5,1.5Z"/><path class="cls-2" d="M538.33,112.47a30.13,30.13,0,0,1,9.53,1.85,1.51,1.51,0,0,0,1.85-1,1.54,1.54,0,0,0-1.05-1.84,32.83,32.83,0,0,0-10.33-2,1.5,1.5,0,0,0,0,3Z"/><path class="cls-2" d="M529,114a13.46,13.46,0,0,0,18.48,5.64c1.7-.91.19-3.5-1.52-2.59a10.57,10.57,0,0,1-14.36-4.56c-.89-1.72-3.48-.2-2.6,1.51Z"/><path class="cls-2" d="M566.43,122.81A15.59,15.59,0,0,1,579,126.88c1.41,1.32,3.53-.8,2.12-2.12a18.8,18.8,0,0,0-15.51-4.84,1.51,1.51,0,0,0-1,1.84,1.53,1.53,0,0,0,1.85,1Z"/><path class="cls-2" d="M565.24,126.33c.06,0,.61-.09.25,0l.52,0a9.35,9.35,0,0,1,1.06,0l.52,0,.26,0c-.18,0-.18,0,0,0,.35.07.69.13,1,.23s.67.21,1,.33c.16.06.17.06,0,0l.24.11.47.23a10.3,10.3,0,0,1,.9.55s.49.35.23.15l.41.34a1.5,1.5,0,1,0,2.12-2.12,11.68,11.68,0,0,0-9.81-2.68,1.5,1.5,0,0,0-1.05,1.84,1.55,1.55,0,0,0,1.85,1Z"/><path class="cls-2" d="M558.15,129.54a22.35,22.35,0,0,0,21.47,4.75c1.84-.58,1-3.48-.79-2.89a19.31,19.31,0,0,1-18.56-4c-1.43-1.3-3.56.82-2.12,2.12Z"/><path class="cls-2" d="M591.74,157.17a15.48,15.48,0,0,1,12,3.54,1.55,1.55,0,0,0,2.12,0,1.51,1.51,0,0,0,0-2.12,18.73,18.73,0,0,0-14.92-4.31,1.52,1.52,0,0,0-1.05,1.85,1.54,1.54,0,0,0,1.85,1Z"/><path class="cls-2" d="M587,162.86l10.29,1.19a1.52,1.52,0,0,0,1.5-1.5,1.54,1.54,0,0,0-1.5-1.5L587,159.86a1.51,1.51,0,0,0-1.5,1.5,1.53,1.53,0,0,0,1.5,1.5Z"/><path class="cls-2" d="M595.13,114.05c-4.32,2.6-6.7,7-8.3,11.66-1.8,5.23-2.9,10.63-5,15.77-4.78,11.57-12.36,23.21-10.24,36.3,1,6,4.12,11.61,9.32,14.84,1.64,1,3.15-1.57,1.51-2.59-4.28-2.66-6.8-7.27-7.77-12.12-1.16-5.75.1-11.71,2-17.15,2-5.66,4.81-11,7.19-16.44a128,128,0,0,0,5-15.11c1.41-4.78,3.29-9.87,7.78-12.57a1.5,1.5,0,0,0-1.52-2.59Z"/><path class="cls-2" d="M570.84,95.1c-6.07,11.16-12.89,21.9-19.1,33-5.39,9.6-11.83,20.34-9.84,31.81A19,19,0,0,0,550.18,173c1.64,1,3.15-1.57,1.52-2.59-3.8-2.38-6-6.44-6.81-10.75-1-4.92,0-9.93,1.72-14.57,2-5.4,4.92-10.46,7.72-15.46,2.91-5.19,6-10.31,9-15.43,3.44-5.81,6.88-11.62,10.1-17.55.92-1.7-1.67-3.21-2.59-1.51Z"/><path class="cls-2" d="M486.12,190.61A56.82,56.82,0,0,0,518.63,221c1.81.66,2.6-2.24.79-2.9a53.94,53.94,0,0,1-30.71-29c-.77-1.77-3.36-.24-2.59,1.51Z"/><path class="cls-2" d="M531.17,196c.32,14.69-14,26.13-10.59,41.26a15.85,15.85,0,0,0,5.16,8.73c1.47,1.22,3.61-.89,2.12-2.12-6.61-5.48-5.25-14.92-2.43-22,3.4-8.48,9-16.39,8.74-25.89,0-1.92-3-1.93-3,0Z"/><path class="cls-2" d="M531.72,219.28a42,42,0,0,0,13.4,10,1.55,1.55,0,0,0,2.06-.54,1.52,1.52,0,0,0-.54-2.05,39.71,39.71,0,0,1-12.79-9.57,1.52,1.52,0,0,0-2.13,0,1.54,1.54,0,0,0,0,2.12Z"/><path class="cls-2" d="M510,159.43a34.69,34.69,0,0,0-.26,31.83c.88,1.73,3.46.21,2.59-1.51a31.59,31.59,0,0,1,.26-28.81c.9-1.7-1.69-3.22-2.59-1.51Z"/><path class="cls-2" d="M517.58,169.57l-.8,11.86a1.51,1.51,0,0,0,1.5,1.5,1.54,1.54,0,0,0,1.5-1.5l.8-11.86a1.5,1.5,0,0,0-3,0Z"/><path class="cls-2" d="M524.22,168.93a22.44,22.44,0,0,1-2.39,21c-1.1,1.6,1.5,3.1,2.59,1.52a25.25,25.25,0,0,0,2.69-23.31c-.7-1.77-3.6-1-2.89.8Z"/></g><g id="_6_Outline" data-name="6 Outline"><path class="cls-1" d="M629.83,3.32A957,957,0,0,0,447.92,132.49c-23.17,20.92-45.49,43.1-71.62,60.18a231.51,231.51,0,0,1-164.12,33.91c-5.52-1-11.17-2.17-15.81-5.3s-8.11-8.62-7.3-14.16,7-10.11,12.21-8a16.1,16.1,0,0,1-.64-29.87c-7.24-6.62-4.51-20.68,4.67-24.13-3.43-8.14,1.51-17.85,8.83-22.79s16.41-6.29,25.14-7.62c42.79-6.49,85.58-15.53,125.16-33.06s76-44.09,99.81-80.25"/><path class="cls-2" d="M629.07,2a959.51,959.51,0,0,0-174.5,122.51c-26.84,23.71-52,49.91-82.49,69a229.46,229.46,0,0,1-94.54,33.14,229.51,229.51,0,0,1-49.85.47c-8.42-.84-17.54-1.62-25.51-4.62-6.78-2.56-15.61-10.94-10.21-18.7,2-2.88,5.52-4.52,8.91-3.27,1.83.68,2.55-2.18.79-2.89a14.63,14.63,0,0,1-.28-27.13,1.51,1.51,0,0,0,.31-2.35c-6.3-6-4.22-18.33,4-21.62a1.52,1.52,0,0,0,1-1.84c-3.58-9.06,2.81-18.36,10.64-22.62,8.93-4.86,19.73-5.52,29.59-7.09a621,621,0,0,0,65.61-13.64C351.92,90.71,390,74.38,422.16,49A202.18,202.18,0,0,0,465.55,2.2C466.62.59,464-.92,463,.69c-21.74,32.89-53.83,57.67-89,74.9-40,19.63-84,29.61-127.79,36.58-11.08,1.76-23.56,2.46-33.07,9.09-7.51,5.24-12.84,15.23-9.26,24.3l1-1.84c-10.22,4.08-13.41,18.92-5.34,26.63l.31-2.36a17.6,17.6,0,0,0,1,32.61l.79-2.89c-6.21-2.29-13,2.78-14,9-1.29,7.77,4.68,14.63,11.3,17.71,7.78,3.63,17,4.43,25.43,5.4a224.32,224.32,0,0,0,26,1.49,234.84,234.84,0,0,0,100.67-22.77c33.3-15.87,60.37-40.56,87.27-65.28a1004.88,1004.88,0,0,1,86.55-71.48A956.41,956.41,0,0,1,618.76,11.2q5.9-3.33,11.82-6.58c1.7-.93.18-3.52-1.51-2.59Z"/></g><g id="_6_Lines" data-name="6 Lines"><path class="cls-2" d="M206.29,146.44l26.18-5c4-.77,8.13-1.43,12.14-2.37,3.42-.8,6.75-2.07,9.27-4.58a1.5,1.5,0,0,0-2.12-2.13c-2.45,2.45-5.81,3.39-9.1,4.08-4,.83-8,1.54-12,2.3l-25.2,4.81c-1.9.36-1.09,3.25.8,2.89Z"/><path class="cls-2" d="M201.93,170.06a128.9,128.9,0,0,1,26.43-2.68c4.29,0,8.63.63,12.9.39,3.75-.21,7.28-1.47,9.59-4.54.88-1.17-.88-2.95-2-2l-3.58,2.75c-.78.6-1.15,2.08,0,2.59l3.1,1.38c1.75.77,3.28-1.81,1.52-2.59l-3.1-1.38v2.59l3.58-2.75-2.06-2.06c-2.24,3-6.44,3.2-9.83,3.06-4.16-.16-8.3-.44-12.48-.37a132.69,132.69,0,0,0-24.82,2.77c-1.89.39-1.09,3.28.8,2.89Z"/><path class="cls-2" d="M201.1,200.16c18.93,3.51,37.86-5.62,56.71-1.2a29.71,29.71,0,0,1,12.51,6c1.46,1.24,3.6-.87,2.12-2.12-14.92-12.59-35.46-7.06-52.9-5.28a62.42,62.42,0,0,1-17.64-.3c-1.89-.35-2.7,2.54-.8,2.89Z"/><path class="cls-2" d="M332.47,130.32c.2,4.14.44,8.28.59,12.42.06,1.59-.07,3-1.91,3.13a48.68,48.68,0,0,1-5.25-.33,12.62,12.62,0,0,0-5.33.93,22.16,22.16,0,0,0-4.55,2.95,24.75,24.75,0,0,1-9.22,4.52,23.48,23.48,0,0,1-11.57-.12,1.51,1.51,0,0,0-.8,2.9A26.63,26.63,0,0,0,316.18,153a57,57,0,0,1,4.8-3.4,10.49,10.49,0,0,1,6-1c3.3.23,7.86,1,8.87-3.33.51-2.18.06-4.67,0-6.88l-.39-8.07c-.1-1.92-3.1-1.93-3,0Z"/><path class="cls-2" d="M372.47,164.87c-6.13-1-13.74-1.77-18.25,3.56-2,2.39-2.55,5.54-4.24,8.12a12,12,0,0,1-6.82,4.91,1.5,1.5,0,0,0,.8,2.89,15.11,15.11,0,0,0,7-4.22c2.05-2.2,2.91-4.84,4.17-7.5,3.06-6.48,10.57-5.79,16.55-4.87,1.89.3,2.7-2.59.8-2.89Z"/><path class="cls-2" d="M350,179.14a16.74,16.74,0,0,0-20.79-5.3,1.5,1.5,0,0,0-.54,2,1.53,1.53,0,0,0,2,.54,13.94,13.94,0,0,1,16.69,4.22,1.54,1.54,0,0,0,2.05.54,1.51,1.51,0,0,0,.54-2.05Z"/><path class="cls-2" d="M280.12,205a22.68,22.68,0,0,1,6.38,12.39,1.52,1.52,0,0,0,1.85,1,1.55,1.55,0,0,0,1-1.85,25.33,25.33,0,0,0-7.16-13.71,1.5,1.5,0,0,0-2.12,2.12Z"/><path class="cls-2" d="M274.53,211.8a39.41,39.41,0,0,1,4.11,10.51,1.5,1.5,0,1,0,2.89-.79,42,42,0,0,0-4.41-11.23,1.5,1.5,0,0,0-2.59,1.51Z"/><path class="cls-2" d="M252,117.89a33.9,33.9,0,0,0-.21,12,1.5,1.5,0,0,0,1.84,1,1.53,1.53,0,0,0,1.05-1.84,29.9,29.9,0,0,1,.21-10.42,1.54,1.54,0,0,0-1-1.85,1.52,1.52,0,0,0-1.85,1Z"/><path class="cls-2" d="M213.09,126.77a15.47,15.47,0,0,0-.61,12.31,1.5,1.5,0,1,0,2.89-.8,12.51,12.51,0,0,1,.31-10,1.5,1.5,0,1,0-2.59-1.51Z"/><path class="cls-2" d="M218.73,126.84A15.08,15.08,0,0,0,217.37,139a1.5,1.5,0,0,0,2.89-.8,12.06,12.06,0,0,1,1.07-9.86,1.5,1.5,0,0,0-2.6-1.51Z"/><path class="cls-2" d="M200.81,153.22l.45,11.18a1.5,1.5,0,0,0,3,0l-.45-11.18a1.5,1.5,0,1,0-3,0Z"/><path class="cls-2" d="M195.63,178.72l-.26,11.45c0,1.93,3,1.93,3,0l.26-11.45c.05-1.93-2.95-1.93-3,0Z"/><path class="cls-2" d="M203,176.55a15.83,15.83,0,0,0-2.32,12,1.5,1.5,0,1,0,2.89-.79,12.87,12.87,0,0,1,2-9.66,1.5,1.5,0,0,0-2.59-1.51Z"/><path class="cls-2" d="M192.32,205.91a17.09,17.09,0,0,0,.88,9.15,1.54,1.54,0,0,0,1.85,1.05,1.52,1.52,0,0,0,1-1.84,16,16,0,0,1-.66-2c-.07-.29-.13-.59-.19-.89s-.07-.4-.1-.6c0,.26,0-.16,0-.2a16.24,16.24,0,0,1-.09-2c0-.36,0-.71.06-1.06,0-.16,0-.31.05-.46,0,.27,0-.3.06-.35a1.54,1.54,0,0,0-1.05-1.85,1.52,1.52,0,0,0-1.84,1Z"/></g><g id="_5_Outline-2" data-name="5 Outline"><path class="cls-1" d="M415.78,162.49l7.69-7.68c-24.4-12.69-46.34-24-70.75-36.71-6.57-3.42-13.34-7-18-12.76s-8.38-15.89-2.7-20.65c3.76-3.15,13.76-5.25,19.31-4.5A2.36,2.36,0,0,0,354,77.54C352,62,366.87,53.48,385,58.05c-.45-12.88,12.38-19.81,26.28-17.95,12.16,1.63,22.8,7.56,32.8,14.67-6.26-9.06-17.75-13.33-28.65-14.83-1.81-.25-1.72-5.87-.95-7.53,4.41-9.54,16.19-13.29,27-12.8,9.82.45,18.88,4.77,27.15,10.23,1.87,1.24,47.27,42.26,49.06,43.58"/><path class="cls-2" d="M416.84,163.56l7.69-7.69a1.52,1.52,0,0,0-.3-2.36q-20.82-10.83-41.66-21.61l-20.8-10.79c-6.28-3.26-12.83-6.26-18.69-10.26-5.08-3.47-9.34-8.09-11.39-14a13.5,13.5,0,0,1-.77-7.66,7.3,7.3,0,0,1,4.35-4.78,30.93,30.93,0,0,1,15.8-2.79,4,4,0,0,0,3.33-1.07c1.15-1.14,1.14-2.5,1-4a17.54,17.54,0,0,1,.68-6.87c3.74-11.64,18.57-12.67,28.53-10.21a1.51,1.51,0,0,0,1.9-1.44,14.6,14.6,0,0,1,3.56-10.29,19.48,19.48,0,0,1,9.63-5.56c9.43-2.49,19.69.49,28.23,4.57a103,103,0,0,1,15.4,9.3c1.21.85,2.9-.85,2.06-2.06-4.58-6.51-11.51-10.66-19-13.12a54.42,54.42,0,0,0-5.73-1.54c-1-.22-2-.41-3-.58l-1.3-.2a3.58,3.58,0,0,0-.63-.1c-.18,0,.18.06.22.18a10.8,10.8,0,0,1-.5-3.47,6.73,6.73,0,0,1,1.09-3.53c3.69-6.33,11.09-9.39,18.07-10.28,8.52-1.08,16.91.93,24.53,4.72,2.08,1,4.11,2.18,6.08,3.4.87.53,1.71,1.14,2.59,1.65.28.17-.32-.26-.08-.06.64.53,1.27,1.06,1.89,1.61,2.64,2.29,5.24,4.61,7.85,6.93q11.52,10.26,23,20.58c5.2,4.66,10.32,9.45,15.68,14,.23.19.47.39.71.57,1.54,1.16,3-1.44,1.51-2.59.53.39,0,0-.21-.2l-1-.85c-1-.91-2.07-1.83-3.1-2.75q-4.89-4.35-9.77-8.73-11.91-10.66-23.83-21.31c-2.8-2.5-5.59-5-8.42-7.46a50.78,50.78,0,0,0-9.85-6.54c-7.9-4.17-16.62-6.77-25.62-6.11-7.36.54-15.18,3-20.23,8.67-2.17,2.44-3.79,5.15-3.91,8.47a9.53,9.53,0,0,0,.69,4.42c.75,1.54,2,1.64,3.55,1.9,7.92,1.3,16.09,4,22.14,9.46a26.75,26.75,0,0,1,3.94,4.43l2.05-2.05c-9.35-6.64-19.62-12.48-31-14.49-8.72-1.54-18.85-.52-25.37,6.12a17.65,17.65,0,0,0-4.94,12.94l1.9-1.45c-10.17-2.51-23-1.76-29.76,7.41a17.2,17.2,0,0,0-2.86,6.38,20,20,0,0,0-.46,3.71c0,.61,0,1.23,0,1.84a6.57,6.57,0,0,1,.14,2.15c-.35,1.07-2.18.48-3,.46a29.55,29.55,0,0,0-4.1.19,39.45,39.45,0,0,0-8.79,1.93c-2.35.83-4.85,1.91-6.52,3.83a10.63,10.63,0,0,0-2.42,7.37c.18,5.87,3.31,11.69,7.21,15.93,4.78,5.18,11.15,8.5,17.32,11.71l21.93,11.38q21.56,11.19,43.12,22.37l5.47,2.84-.3-2.36-7.69,7.69a1.5,1.5,0,0,0,2.12,2.13Z"/></g><g id="_5_Lines-2" data-name="5 Lines"><path class="cls-2" d="M349.92,79.11a98.39,98.39,0,0,1,42.4,23.82c1.39,1.33,3.52-.79,2.12-2.12a101.66,101.66,0,0,0-43.72-24.6,1.51,1.51,0,0,0-.8,2.9Z"/><path class="cls-2" d="M381.57,57.61a59.18,59.18,0,0,1,27.71,16.61c1.33,1.42,3.44-.71,2.12-2.12a62.14,62.14,0,0,0-29-17.39,1.51,1.51,0,0,0-.8,2.9Z"/><path class="cls-2" d="M438.71,19.72a11.55,11.55,0,0,0-7.84,7c-1.72,4.12-1.21,8.77.05,12.94.55,1.84,3.45,1.06,2.89-.8-1.05-3.47-1.6-7.32-.26-10.8a8.59,8.59,0,0,1,6-5.44c1.89-.42,1.09-3.32-.8-2.9Z"/><path class="cls-2" d="M442.19,36.63c.38-.58.77-1.16,1.19-1.72.1-.15.21-.29.31-.43s.17-.23.06-.07.08-.09.1-.13l.67-.81a34.6,34.6,0,0,1,2.89-3,1.5,1.5,0,0,0,0-2.12,1.53,1.53,0,0,0-2.12,0,36.47,36.47,0,0,0-5.7,6.81,1.5,1.5,0,0,0,2.6,1.51Z"/><path class="cls-2" d="M452.14,27.57a13.66,13.66,0,0,1-12.05,12,1.54,1.54,0,0,0-1.5,1.5,1.51,1.51,0,0,0,1.5,1.5,16.46,16.46,0,0,0,15.05-15,1.51,1.51,0,0,0-1.5-1.5,1.54,1.54,0,0,0-1.5,1.5Z"/><path class="cls-2" d="M391.93,53.27a29.52,29.52,0,0,0,8.86-9.74A1.5,1.5,0,1,0,398.2,42a28.73,28.73,0,0,1-1.63,2.58l-.45.62-.09.12h0l-.24.3c-.32.39-.65.78-1,1.16-.67.73-1.37,1.43-2.11,2.09q-.57.51-1.17,1l-.12.09-.3.23-.69.49a1.5,1.5,0,0,0,1.52,2.59Z"/><path class="cls-2" d="M367.6,57.73a14.14,14.14,0,0,1-10.4,13c-1.86.48-1.07,3.38.8,2.89a17.18,17.18,0,0,0,12.6-15.91c0-1.93-3-1.93-3,0Z"/><path class="cls-2" d="M358.34,68.61a21.37,21.37,0,0,1,1.89-3.53c.18-.27.37-.54.56-.8l.14-.18c.05-.07.17-.3,0,0a2.41,2.41,0,0,1,.29-.36,19.85,19.85,0,0,1,1.38-1.53,1.5,1.5,0,1,0-2.12-2.12,22.6,22.6,0,0,0-4.74,7,1.62,1.62,0,0,0-.15,1.16,1.49,1.49,0,0,0,.69.9,1.52,1.52,0,0,0,2-.54Z"/><path class="cls-2" d="M338.25,81.78a20,20,0,0,0-6.72,18,1.51,1.51,0,0,0,1.84,1A1.54,1.54,0,0,0,334.42,99a17.05,17.05,0,0,1,5.95-15,1.51,1.51,0,0,0,0-2.12,1.54,1.54,0,0,0-2.12,0Z"/><path class="cls-2" d="M340.59,92.47l3.81-3.74a1.52,1.52,0,0,0,0-2.12,1.54,1.54,0,0,0-2.13,0l-3.8,3.74a1.5,1.5,0,1,0,2.12,2.12Z"/><path class="cls-2" d="M338.17,100.22a18.45,18.45,0,0,0,13.58-18.3c-.06-1.92-3.06-1.93-3,0a15.42,15.42,0,0,1-11.38,15.41,1.5,1.5,0,0,0,.8,2.89Z"/><path class="cls-2" d="M387.61,114.22a15.44,15.44,0,0,0,24.52,11.26c1.54-1.13.05-3.73-1.52-2.59a12.46,12.46,0,0,1-20-8.67c-.19-1.91-3.19-1.93-3,0Z"/><path class="cls-2" d="M418.67,94.29a11.53,11.53,0,0,1,16.42,1.5c1.23,1.49,3.34-.65,2.12-2.12a14.35,14.35,0,0,0-20.67-1.5c-1.45,1.27.67,3.39,2.13,2.12Z"/><path class="cls-2" d="M421.9,96.84A35,35,0,0,1,433,98.16a1.5,1.5,0,0,0,.8-2.89,37.76,37.76,0,0,0-11.86-1.43,1.5,1.5,0,0,0,0,3Z"/><path class="cls-2" d="M419.17,100.78a24,24,0,0,0,17.6-1.28,1.5,1.5,0,1,0-1.51-2.59,20.83,20.83,0,0,1-15.3,1c-1.84-.59-2.63,2.31-.79,2.9Z"/></g><g id="_4_Outline-3" data-name="4 Outline"><path class="cls-2" d="M467.66,282.72c-9-16.42-13-35-14-53.58a230.48,230.48,0,0,1,3.63-53.67,195.46,195.46,0,0,1,15-48.42A137.83,137.83,0,0,1,501,86.2c6.11-5.87,13.54-12.63,22.36-13.52a13.36,13.36,0,0,1,10.4,3c2.42,2.1,4.41,5.13,4.5,8.42a7.7,7.7,0,0,1-1.25,4.4c-.85,1.33.78,2.71,2.05,2a27.92,27.92,0,0,1,32.36,5.58,1.5,1.5,0,0,0,1.82.23,16.31,16.31,0,0,1,26.35,12.76,1.5,1.5,0,0,0,1.5,1.5c7.84-.59,14.19,6.13,16.25,13.2,2.81,9.66-.23,20.07-2.27,29.58-4.12,19.22-8.41,38.47-14.7,57.12a218.33,218.33,0,0,1-12.86,30.7c-.88,1.72,1.71,3.24,2.59,1.52,9.48-18.31,15.83-38,20.87-58,2.53-10,4.74-20.06,6.9-30.14s5.22-20.86,2.51-31.1c-2.25-8.49-9.94-16.62-19.29-15.92l1.5,1.5A19.28,19.28,0,0,0,571.76,93.8l1.81.24a31,31,0,0,0-36-6.05l2.06,2.06c4.21-6.62-.3-14.86-6.42-18.4-8-4.65-17.69-.74-24.58,4.17A104.79,104.79,0,0,0,489.41,94.3,142,142,0,0,0,474.59,116a185.42,185.42,0,0,0-18.42,49.73,241.49,241.49,0,0,0-5.81,55.11c.22,19.42,3.27,39.06,11.41,56.82,1,2.22,2.13,4.41,3.3,6.56.93,1.69,3.52.18,2.59-1.51Z"/></g><g id="Coverup"><path class="cls-1" d="M515.17,74.83a5.09,5.09,0,0,0,.56,2.57.75.75,0,0,0,1,.27.77.77,0,0,0,.27-1c0-.09-.09-.18-.13-.28l.08.18a4.1,4.1,0,0,1-.3-1.09l0,.2a3.73,3.73,0,0,1,0-.82.75.75,0,0,0-1.5,0Z"/><path class="cls-1" d="M517.14,73.53a4.5,4.5,0,0,0-1.64,4.15.76.76,0,0,0,1.45,0c.27-1.26.61-3.06,2-3.62a.75.75,0,1,0-.4-1.44,4.76,4.76,0,0,0-2.92,2.8,11.41,11.41,0,0,0-.6,4.75.75.75,0,0,0,1.5,0,10.75,10.75,0,0,1,.41-4,3.35,3.35,0,0,1,2-2.08l-.4-1.44c-1.95.79-2.6,2.75-3,4.66H517a3,3,0,0,1,1.25-2.68.75.75,0,1,0-1.06-1.07Z"/><path class="cls-1" d="M514.35,75.35c0,.73.17,1.44.19,2.17a.75.75,0,0,0,1.5,0c0-.75.43-1.41.45-2.17,0-.92-1.17-.92-1.47-.2-.77,1.82-1.63,3.53-1.65,5.56a.76.76,0,0,0,1.48.2,12.05,12.05,0,0,0,.36-4.55.76.76,0,0,0-1.48-.2c-.31.84-.77,3,.49,3.35s1.92-1.86,2.11-2.71a.75.75,0,0,0-1.45-.4,13.14,13.14,0,0,0-.67,3c-.08.75,1.06,1,1.39.38a8,8,0,0,0,1-3c.1-.87-.35-2-1.44-1.69-.89.24-1.55,1.4-2,2.13a12.36,12.36,0,0,0-1.33,2.91c-.27.86.9,1.22,1.37.57a9.13,9.13,0,0,0,1.52-3.34.75.75,0,0,0-1.37-.58,10.86,10.86,0,0,0-1.93,5.07c-.09.68.85,1,1.28.53a6.17,6.17,0,0,0,1.62-2.68c.25-.86.56-2.4-.44-2.91s-1.9.72-2.35,1.48a8,8,0,0,0-1,3.17.75.75,0,0,0,1.12.65,5.58,5.58,0,0,0,2.4-4.89.76.76,0,0,0-1.4-.38,18.57,18.57,0,0,0-2.41,6,.75.75,0,0,0,1.25.73c.82-.78,2.62-3.73.7-4.33-.94-.3-1.59.61-2.07,1.27a11.51,11.51,0,0,0-1.4,2.58c-.3.78.75,1.15,1.26.73a4.94,4.94,0,0,0,1.78-3.53.76.76,0,0,0-1.28-.53,5.71,5.71,0,0,0-1.63,3.11.75.75,0,0,0,1.37.57,34.68,34.68,0,0,0,2.58-4.46c.41-.86-.86-1.62-1.3-.76l-1.73,3.45c-.44.85.82,1.6,1.29.75a18.89,18.89,0,0,0,1.65-3.94.75.75,0,0,0-1.25-.73,13.47,13.47,0,0,0-2.94,4.93.75.75,0,0,0,1.37.58l1.88-3.47a.75.75,0,0,0-1.17-.91,9,9,0,0,0-2.66,4.41.75.75,0,0,0,1.45.4l1.25-3.46c.32-.87-.9-1.19-1.37-.58a18.39,18.39,0,0,0-2.66,4.86l1.44.39a31.63,31.63,0,0,1,1.44-4.55c.31-.78-1-1.36-1.37-.58l-2.46,5.6,1.37.58.77-2.36a.75.75,0,0,0-1.37-.58l-2.08,3.85a.75.75,0,0,0,1.3.76A23.42,23.42,0,0,0,507.79,83c.25-.72-.75-1.24-1.26-.73a16.14,16.14,0,0,0-2.27,2.94.75.75,0,0,0,1.29.76,14.54,14.54,0,0,1,2-2.64l-1.25-.73a20.5,20.5,0,0,1-2.06,4.27l1.3.76,2.08-3.85-1.37-.58-.78,2.36c-.26.79,1,1.36,1.37.58l2.46-5.6L508,79.91a31.32,31.32,0,0,0-1.43,4.56.75.75,0,0,0,1.44.39,17.52,17.52,0,0,1,2.51-4.49l-1.37-.58-1.25,3.46,1.45.4a7.6,7.6,0,0,1,2.27-3.75L510.41,79l-1.88,3.47,1.37.58a11.64,11.64,0,0,1,2.55-4.27L511.19,78a17.33,17.33,0,0,1-1.49,3.59l1.29.75,1.74-3.44-1.3-.76a34.24,34.24,0,0,1-2.57,4.47l1.37.57a4.31,4.31,0,0,1,1.24-2.44l-1.28-.53a3.45,3.45,0,0,1-1.34,2.47l1.25.73a9.47,9.47,0,0,1,.73-1.46l.33-.52c.13-.18.44-.45.5-.66.23-.15.15-.27-.23-.34a1.7,1.7,0,0,1-.06.31,3,3,0,0,1-.16.51,3.56,3.56,0,0,1-.85,1.18l1.26.73a17.21,17.21,0,0,1,2.26-5.63l-1.4-.38a4.08,4.08,0,0,1-1.65,3.6l1.13.64a6.1,6.1,0,0,1,.51-1.82,5.21,5.21,0,0,1,.47-.83,2.7,2.7,0,0,1,.27-.39l.12-.14c.15-.13,0-.2-.32-.22-.09.09,0,.74-.09.9a4.49,4.49,0,0,1-1.32,2.38l1.28.53a9.39,9.39,0,0,1,1.72-4.31L513.23,77a8,8,0,0,1-1.36,3l1.37.58a10.51,10.51,0,0,1,1.81-3.46,2.8,2.8,0,0,0,.32-.38l.13-.13-.41-.22a5.27,5.27,0,0,0-.09.84,7,7,0,0,1-.69,1.88l1.4.38a10.83,10.83,0,0,1,.62-2.63l-1.45-.4a4.4,4.4,0,0,1-.32,1,4.49,4.49,0,0,1-.24.42c-.06.11-.36.34-.1.26l.58.07c.22.11.14.22.12-.13,0-.16,0-.33,0-.49a4,4,0,0,1,.25-1l-1.47-.2a10.78,10.78,0,0,1-.31,4.15l1.47.2c0-1.86.89-3.49,1.6-5.16l-1.48-.2c0,.74-.42,1.4-.45,2.17H516c0-.73-.17-1.44-.19-2.17a.75.75,0,0,0-1.5,0Z"/><path class="cls-1" d="M505.42,83.58a4,4,0,0,0-.68,2.44.76.76,0,0,0,1.13.65,4.14,4.14,0,0,0,2.49-3.18,1.2,1.2,0,0,0-.57-1.3c-.68-.33-1.25.23-1.71.65a20.1,20.1,0,0,0-5.32,8.08.76.76,0,0,0,1.1.85,5.68,5.68,0,0,0,2-2.42c.32-.77.73-2,.08-2.76-1.55-1.72-3.78,2.67-4.17,3.68-.31.8-.64,2,.37,2.46s1.93-.52,2.61-1.1a16.76,16.76,0,0,0,4.39-5.83c.24-.52-.17-1.36-.85-1.1a9.28,9.28,0,0,0-3.83,2.74l1.18.91,1.92-2.77c.49-.72-.58-1.48-1.18-.91a43.41,43.41,0,0,0-5.43,6.38c-.5.72.58,1.49,1.17.91a14.3,14.3,0,0,0,3.26-4.86c.28-.7-.78-1.26-1.26-.73a49.09,49.09,0,0,0-3.61,4.53c-.48.69.63,1.56,1.18.91a67.53,67.53,0,0,0,4.53-6c.55-.81-.73-1.51-1.3-.75l-3,4c-.58.77.72,1.51,1.29.75l4.24-5.57c.52-.68-.6-1.5-1.18-.9A70.25,70.25,0,0,0,497.82,91c-.49.68.65,1.58,1.18.91a19.25,19.25,0,0,0,2.33-3.77c.33-.74-.54-1.54-1.18-.91a23.8,23.8,0,0,0-3.58,4.48c-.52.82.77,1.56,1.29.75l1.72-2.65a.75.75,0,0,0-1.18-.91,33.88,33.88,0,0,0-3.17,3.81c-.54.74.57,1.42,1.17.91a8.38,8.38,0,0,0,1.74-2c.47-.73-.58-1.49-1.18-.91a29.4,29.4,0,0,0-3,3.39l1.29.76,1.36-2c.49-.73-.58-1.45-1.18-.9a14.53,14.53,0,0,0-2.61,3.13c-.51.82.77,1.55,1.3.75l1.49-2.22a.76.76,0,0,0-1-1,7.68,7.68,0,0,0-2,2l1.3.76,1.72-2.63c.47-.7-.61-1.55-1.17-.9-1.7,1.94-3.14,4.08-4.84,6A.75.75,0,0,0,490.64,99a43.9,43.9,0,0,0,3.62-4.09c.63-.73-.43-1.8-1.07-1.06a42.4,42.4,0,0,1-3.61,4.09L490.64,99c1.7-2,3.14-4.09,4.84-6L494.3,92l-1.73,2.62c-.53.81.76,1.55,1.3.76a5.56,5.56,0,0,1,1.46-1.48l-1-1-1.49,2.23,1.3.75A12.82,12.82,0,0,1,496.48,93l-1.18-.91-1.35,2c-.55.82.72,1.5,1.29.76A28.11,28.11,0,0,1,498,91.82l-1.18-.91a7.22,7.22,0,0,1-1.5,1.67l1.18.91A31.77,31.77,0,0,1,499.46,90l-1.18-.91-1.71,2.66,1.29.75a22.78,22.78,0,0,1,3.35-4.17L500,87.4a17.13,17.13,0,0,1-2.09,3.46l1.18.91a67.79,67.79,0,0,1,6.2-7.34l-1.18-.91-4.23,5.57,1.29.75,3-4-1.3-.75a62,62,0,0,1-4.29,5.67l1.18.91a45.61,45.61,0,0,1,3.37-4.23l-1.25-.73A12.23,12.23,0,0,1,499,90.9l1.18.91a42.49,42.49,0,0,1,5.2-6.08l-1.18-.91-1.92,2.77c-.48.7.64,1.57,1.18.91a7.67,7.67,0,0,1,3.17-2.35l-.84-1.1a16,16,0,0,1-3.73,5.15c-.3.27-1,.63-1.18,1-.23.08-.25.13-.07.15s.22,0,.2-.24c.16-.27.23-.61.36-.89a9.6,9.6,0,0,1,.73-1.24c.17-.24.79-1.21,1.11-1.19l-.53-.22c.25.2-.34,1.42-.42,1.58a4,4,0,0,1-1.18,1.35l1.1.85a18,18,0,0,1,3.63-6.11c.25-.28.51-.55.78-.82s.66-.77,1-.83l-.58-.08c-.26-.15-.28.33-.36.49a3,3,0,0,1-.36.56,3.1,3.1,0,0,1-1.2.85l1.13.64a2.64,2.64,0,0,1,.47-1.68c.54-.81-.76-1.56-1.29-.76Z"/><path class="cls-1" d="M490.26,97a1.21,1.21,0,0,1-.05.14s0,0,0,0a.25.25,0,0,1,0,.07,1.4,1.4,0,0,1-.16.26l.65.38.15-.26a.37.37,0,0,0-.1-.48.36.36,0,0,0-.49,0l-.45.55.59.46.14-.34a.38.38,0,0,0-.59-.46l-.51.67c-.1.12-.2.23-.29.36s-.15.24-.23.36l.65.38a4.62,4.62,0,0,1,.35-.55s-.05.07,0,0l.05-.06.11-.12a2.73,2.73,0,0,1,.23-.25.37.37,0,0,0,0-.49.36.36,0,0,0-.48-.09l-.22.16.45.06h0l.11.27v0l-.05.19h0l-.22.17h0l-.29,0h0l-.17-.23V98h0l.17-.22h0a.37.37,0,1,0,.38.64.39.39,0,0,0-.14-.73.4.4,0,0,0-.4.19.43.43,0,0,0,.07.48.38.38,0,0,0,.46.06l.22-.17-.46-.59a5.07,5.07,0,0,0-.87,1.14.38.38,0,1,0,.65.38c.07-.11.15-.22.21-.33s0,.05,0,0l.05-.07.13-.16.49-.64-.58-.45-.15.34a.37.37,0,0,0,.1.48.36.36,0,0,0,.49,0l.45-.55-.59-.46-.15.26a.39.39,0,0,0,.13.52.4.4,0,0,0,.52-.14,2.12,2.12,0,0,0,.32-.66.37.37,0,0,0-.26-.46.38.38,0,0,0-.46.26Z"/><path class="cls-1" d="M517,75.08a.75.75,0,0,0,0-1.5.75.75,0,0,0,0,1.5Z"/><path class="cls-1" d="M517.13,75a.75.75,0,0,0,0-1.5.75.75,0,0,0,0,1.5Z"/></g></g></g></svg>