<svg xmlns="http://www.w3.org/2000/svg" viewBox="0 0 385.33 186.22"><defs><style>.cls-1{opacity:0.81;}.cls-2{fill:#f74b48;stroke:#f0e8d9;stroke-miterlimit:10;stroke-width:5px;}</style></defs><title>Asset 15</title><g id="Layer_2" data-name="Layer 2"><g id="Typo"><g id="Typo-2" data-name="Typo"><g class="cls-1"><path class="cls-2" d="M2.5,6.15H36.34q32.76,0,44.31,3T98.21,19a31.31,31.31,0,0,1,7.52,15.31q1.5,8.43,1.51,33.14V128.4q0,23.41-2.21,31.31a23.48,23.48,0,0,1-7.68,12.36,32,32,0,0,1-13.53,6.23q-8.05,1.77-24.28,1.77H2.5ZM47.72,35.91v114.4q9.78,0,12-3.92T62,125.07V57.5q0-11.82-.75-15.15a7.15,7.15,0,0,0-3.44-4.88C56,36.43,52.67,35.91,47.72,35.91Z"/><path class="cls-2" d="M169.33,47.15v92.92H124.1V47.15Z"/><path class="cls-2" d="M293.08,81.88H247.85V51.66q0-13.19-1.45-16.46T240,31.93c-3.72,0-6.09,1.33-7.09,4s-1.5,8.38-1.5,17.19v80.78q0,12.68,1.5,16.54t6.77,3.87q5,0,6.6-3.88t1.56-18.2V110.35h45.23v6.78q0,27-3.82,38.3T272.4,175.22q-13,8.5-32.18,8.5-19.87,0-32.76-7.2T190.38,156.6q-4.19-12.73-4.19-38.3V67.49q0-18.79,1.29-28.2a39.51,39.51,0,0,1,7.68-18.1A42.8,42.8,0,0,1,212.89,7.5q11.33-5,26.05-5,20,0,33,7.72T289,29.48q4.08,11.54,4.09,35.88Z"/><path class="cls-2" d="M308.82,47.53h74l-.11,26.15-27.89-.43-.3,16.23h21.25v13H354.52l.3,18.31h28v19.79h-74Z"/></g></g></g></g></svg>