<svg xmlns="http://www.w3.org/2000/svg" viewBox="0 0 440.67 449.03"><defs><style>.cls-1{fill:#080752;}.cls-2{fill:#f74b48;}.cls-3{fill:#ff6f4b;}.cls-4,.cls-5{fill:#f0e8d9;}.cls-5{font-size:164.78px;font-family:Rockwell-Bold, Rockwell;font-weight:700;}</style></defs><title>Asset 1</title><g id="Layer_2" data-name="Layer 2"><g id="DICE"><path class="cls-1" d="M212,1.5c-53,1.92-101.83,30-142.66,63.89-25.11,20.86-48.86,45.27-59.8,76-9.76,27.42-8.49,57.37-7.09,86.44,2.08,43.38,5.13,89.6,31,124.48,19,25.61,47.88,41.65,75.86,56.92,26.44,14.42,53.36,29,82.84,35.18,36.92,7.71,75.54.45,110.48-13.75,64.05-26,127.8-65.25,134.05-146.49,5.21-67.71,7.48-151.66-49.49-198.76C323.38,32.67,271.91,6.13,207.68,1.55"/><path class="cls-1" d="M212,0C162.73,1.89,117.6,25.81,79.35,55.46,60.61,70,42.52,86,28.1,104.89a137.59,137.59,0,0,0-17.92,30.73,134.29,134.29,0,0,0-9,37.43c-1.41,13.3-1.32,26.72-.85,40.07.45,12.45,1.05,24.9,1.92,37.33C3.88,274.17,6.81,298.22,15,320.67a129.38,129.38,0,0,0,15.87,30.67A132.57,132.57,0,0,0,55.6,377.21c18.75,15.22,40.33,26.53,61.48,38,23.21,12.55,47.16,24.67,73.11,30.36,25.53,5.61,52.1,4.09,77.41-2,22.22-5.3,43.56-14.16,64.06-24.15C349,411,365.81,401.12,381,389.07c14.86-11.82,28-25.9,37.82-42.23a141.6,141.6,0,0,0,19-57.84,554.32,554.32,0,0,0,2.92-61c-.08-20.69-1.57-41.49-5.95-61.74-4.18-19.38-11.17-38.34-22.19-54.91-13-19.57-31.8-33.7-50.41-47.64C325.34,36.2,284.73,13.25,239.25,4.24A259.81,259.81,0,0,0,207.68.05c-1.92-.14-1.92,2.86,0,3a245.22,245.22,0,0,1,63,12.86c20.94,7.3,40.75,17.52,59.48,29.35,10.44,6.59,20.56,13.67,30.44,21.07C370.94,74.07,381.43,82,391,90.69c14.6,13.41,25.49,30.32,32.68,48.75,14.68,37.67,15.28,79.47,13.23,119.32-1.05,20.34-2.1,40.76-8.58,60.23a137.12,137.12,0,0,1-28.87,48.81c-25.7,28.28-60.63,46.45-95.54,60.76-23.83,9.77-49.12,16.53-75,17.4a152.59,152.59,0,0,1-38.71-3.49A201.22,201.22,0,0,1,153.3,430c-12-5.28-23.56-11.35-35.06-17.58-10.69-5.78-21.4-11.55-31.85-17.76-20.13-11.95-39.7-26-53.33-45.4-13.35-19-20.25-41.51-24-64.22-3.92-23.7-4.88-47.92-5.74-71.89C2.38,186.94,3,159.9,13.48,135.44c9.2-21.52,24.62-39.69,41.59-55.52A360.82,360.82,0,0,1,112,36.39C132.28,23.9,154.18,13.71,177.4,8A171.23,171.23,0,0,1,212,3c1.92-.07,1.93-3.07,0-3Z"/><path class="cls-2" d="M220.56,5.56c-31.88-.85-70.11,9.06-97.94,24.64S70,66.18,45.38,86.47C38.65,92,31.45,98.34,30.11,107c-1.17,7.5,2.58,15.1,8,20.42s12.35,8.78,19.15,12.16l102.81,51c20.39,10.11,42.8,20.52,65.06,15.74,16.92-3.62,30.68-15.45,44-26.46A837.13,837.13,0,0,1,370.8,107.88c6.63-4,14.33-10,12.64-17.57-.86-3.85-4-6.69-7.07-9.2C328.91,41.82,281,17.56,220.56,5.56"/><path class="cls-3" d="M36.85,140.65c-11.65-2.47-23.21,6.71-27.63,17.77S5.76,181.84,6.79,193.7l4.49,52c3.09,35.72,7,73.55,28.64,102.1,15.25,20.09,37.67,33.26,59.5,45.91,23.27,13.49,46.68,27,71.83,36.57,6.29,2.38,12.82,4.53,19.54,4.47s13.75-2.68,17.61-8.19,3.93-12.93,3.81-19.75c-.82-44.78-1.66-89.69-8-134-2.94-20.6-7.53-42-21.07-57.84-10.7-12.48-25.86-20.09-40.59-27.38-33.86-16.76-73-29.79-106.89-46.55"/><path class="cls-3" d="M426.05,184.74a79.73,79.73,0,0,0-16.94-50.86c-3.92-5-8.77-9.65-14.92-11.17-8.17-2-16.51,2-23.89,6a530.86,530.86,0,0,0-82.8,56.35c-7.42,6.16-14.79,12.59-23.46,16.83-10.59,5.17-23.42,7.34-30.78,16.53-6.69,8.36-6.79,20-6.58,30.74q1.47,74.11,2.95,148.23c.19,9.13.51,18.75,5.27,26.54,6.51,10.62,20.11,15.23,32.52,14.18s23.89-6.77,34.74-12.88c21.74-12.27,43.42-25.35,61.49-42.57,21.33-20.32,42.61-46.24,54.4-70.56,15.28-31.53,8.29-46,8.11-65.33-.2-21.39.8-42.78,1.2-64.16"/><path class="cls-4" d="M118.7,60.29l15.73.18q15.24.18,20.59,1.64a15.79,15.79,0,0,1,8.11,4.7A14.6,14.6,0,0,1,166.55,74q.64,3.93.52,15.42l-.34,28.33q-.12,10.89-1.19,14.54A10.92,10.92,0,0,1,161.9,138a14.83,14.83,0,0,1-6.33,2.82,56.83,56.83,0,0,1-11.3.69l-26.52-.31Zm20.86,14.08-.62,53.2q4.55.06,5.62-1.76t1.16-9.9l.37-31.42a42.62,42.62,0,0,0-.27-7,3.35,3.35,0,0,0-1.57-2.29A10.48,10.48,0,0,0,139.56,74.37Z"/><path class="cls-4" d="M196.05,80.26l-.51,43.21-21-.25L175,80Z"/><path class="cls-4" d="M253.4,97.09l-21-.25.17-14q.08-6.14-.59-7.66c-.43-1-1.42-1.54-2.95-1.56-1.73,0-2.84.59-3.32,1.81s-.74,3.89-.79,8l-.44,37.56c0,3.93.16,6.5.61,7.7s1.49,1.82,3.12,1.84a3,3,0,0,0,3.1-1.77c.49-1.2.77-4,.82-8.46l.12-10.16,21,.25,0,3.15q-.15,12.55-2,17.79t-7.95,9.11q-6.12,3.88-15,3.78-9.24-.12-15.19-3.53a16.32,16.32,0,0,1-7.84-9.36q-1.87-5.94-1.74-17.83l.28-23.63a106.3,106.3,0,0,1,.75-13.1,18.5,18.5,0,0,1,3.67-8.38,20,20,0,0,1,8.32-6.27,29.79,29.79,0,0,1,12.14-2.18Q238,60,244,63.65t7.84,9.05q1.85,5.39,1.7,16.71Z"/><path class="cls-4" d="M260.91,81.2l34.41.4-.19,12.16-13-.35-.22,7.55,9.88.11-.07,6-9.88-.11,0,8.51,13,.16-.1,9.2-34.42-.4Z"/><text class="cls-5" transform="matrix(-1.03, 0.03, 0.03, 1, 145.9, 345.91)">?</text><text class="cls-5" transform="translate(304.12 351.6) rotate(-9.18) scale(1.03 1)">?</text></g></g></svg>