<svg xmlns="http://www.w3.org/2000/svg" viewBox="0 0 171.14 174.28"><defs><style>.cls-1{fill:#080752;}.cls-2{fill:#4eab9e;}.cls-3{fill:#d9d80c;}.cls-4{fill:#f0e8d9;}.cls-5{fill:#235c3e;}</style></defs><title>Asset 12</title><g id="Layer_2" data-name="Layer 2"><g id="Dice"><g id="Six"><path class="cls-1" d="M82.4,1.5C62,2.24,43.3,13,27.62,26c-9.64,8-18.76,17.38-23,29.19-3.74,10.53-3.26,22-2.72,33.2.8,16.66,2,34.4,11.91,47.8,7.29,9.83,18.38,16,29.13,21.86,10.15,5.54,20.49,11.15,31.81,13.51,14.18,3,29,.17,42.43-5.28,24.6-10,49.08-25.06,51.48-56.26,2-26,2.87-58.24-19-76.33C125.17,13.47,105.41,3.28,80.74,1.52"/><path class="cls-1" d="M82.4,0c-19,.75-36.46,9.88-51.28,21.32C23.76,27,16.68,33.26,11,40.69A52.2,52.2,0,0,0,.57,66.79C-.56,76.71.22,86.9.9,96.82c.63,9.13,1.71,18.4,4.81,27.07A50.44,50.44,0,0,0,21.13,146c7.25,6,15.64,10.46,23.89,14.93,9,4.87,18.23,9.6,28.25,11.89a67.47,67.47,0,0,0,30.38-.55,120.13,120.13,0,0,0,24.9-9.32,104,104,0,0,0,19.19-11.77,62.13,62.13,0,0,0,14.75-16.38,55.32,55.32,0,0,0,7.48-22.4,202.48,202.48,0,0,0,1.17-23.74,116.23,116.23,0,0,0-2.27-23.91,62.24,62.24,0,0,0-8.65-21.48c-5.05-7.6-12.28-13.08-19.5-18.49-14.23-10.69-30-19.61-47.61-23.1A102.9,102.9,0,0,0,80.74,0c-1.92-.14-1.91,2.86,0,3a93.13,93.13,0,0,1,23.7,4.82A110.77,110.77,0,0,1,127.22,19c4,2.51,7.85,5.21,11.62,8,3.94,2.95,7.92,5.94,11.55,9.26a48.81,48.81,0,0,1,12.46,18.56c5.53,14.31,5.76,30.13,5,45.26-.39,7.72-.78,15.48-3.22,22.88a51.59,51.59,0,0,1-11,18.57c-9.75,10.69-23,17.6-36.22,23-9.1,3.73-18.76,6.33-28.63,6.65-10,.32-19.64-2.1-28.77-6.15a247.32,247.32,0,0,1-25.35-13.41c-7.64-4.54-15.11-9.86-20.26-17.22s-7.68-15.87-9.1-24.55C3.85,101,3.5,91.76,3.18,82.67,2.83,72.79,3.06,62.58,7,53.34c3.48-8.19,9.38-15.08,15.82-21.09C35.89,20,51.72,9.27,69.26,4.9A64.78,64.78,0,0,1,82.4,3c1.93-.07,1.94-3.07,0-3Z"/><path class="cls-2" d="M85.69,3.06c-12.24-.33-26.92,3.48-37.61,9.46S27.87,26.34,18.42,34.13c-2.59,2.13-5.35,4.56-5.87,7.87-.45,2.88,1,5.8,3.07,7.85A28,28,0,0,0,23,54.52L62.45,74.1c7.84,3.88,16.44,7.88,25,6,6.5-1.39,11.78-5.93,16.91-10.16a320.73,320.73,0,0,1,39-27.63c2.54-1.53,5.5-3.84,4.85-6.74a7,7,0,0,0-2.71-3.54C127.3,17,108.9,7.67,85.69,3.06"/><path class="cls-3" d="M15.14,54.94C10.67,54,6.23,57.52,4.53,61.76s-1.33,9-.94,13.55l1.73,20C6.51,109,8,123.51,16.32,134.48c5.86,7.71,14.47,12.77,22.85,17.63,8.94,5.18,17.92,10.38,27.58,14a21.18,21.18,0,0,0,7.51,1.72A8.3,8.3,0,0,0,81,164.72c1.5-2.14,1.51-5,1.46-7.58-.31-17.2-.63-34.45-3.06-51.48-1.13-7.91-2.89-16.14-8.09-22.21-4.11-4.79-9.93-7.71-15.59-10.51-13-6.44-28-11.44-41.05-17.88"/><path class="cls-3" d="M164.6,71.87a30.6,30.6,0,0,0-6.5-19.53c-1.51-1.91-3.37-3.71-5.73-4.29-3.14-.77-6.34.77-9.18,2.32A203.8,203.8,0,0,0,111.4,72c-2.85,2.37-5.68,4.84-9,6.47-4.07,2-9,2.81-11.82,6.35C88,88,88,92.52,88,96.63q.57,28.46,1.13,56.92c.07,3.51.2,7.21,2,10.2,2.5,4.07,7.72,5.84,12.48,5.44s9.18-2.6,13.35-4.95c8.35-4.71,16.67-9.73,23.61-16.34,8.19-7.81,16.37-17.76,20.89-27.1,5.87-12.11,3.19-17.68,3.12-25.09-.08-8.21.3-16.43.46-24.64"/><path class="cls-4" d="M123.46,31.24c-2.4.27-4.92.59-6.86,2s-2.93,4.43-1.44,6.33a6,6,0,0,0,4.1,1.83,21.4,21.4,0,0,0,6.73-.22,10.3,10.3,0,0,0,5.65-2.7,5.09,5.09,0,0,0,1-5.86A5.37,5.37,0,0,0,128,30.33a15.73,15.73,0,0,0-5.25,1.16"/><path class="cls-4" d="M75.46,58.24c-2.4.27-4.92.59-6.86,2s-2.93,4.43-1.44,6.33a6,6,0,0,0,4.1,1.83A21.4,21.4,0,0,0,78,68.22a10.3,10.3,0,0,0,5.65-2.7,5.09,5.09,0,0,0,1-5.86A5.37,5.37,0,0,0,80,57.33a15.73,15.73,0,0,0-5.25,1.16"/><path class="cls-4" d="M97.66,42a8.94,8.94,0,0,0-8.37,2.7c-1.18,1.31-1.94,3.33-1,4.8.75,1.16,2.26,1.53,3.63,1.7a27.14,27.14,0,0,0,10.72-.83,5.3,5.3,0,0,0,2.85-1.57c1.33-1.7.33-4.38-1.49-5.56s-4.09-1.25-6.25-1.3"/><path class="cls-4" d="M83.46,12.24c-2.4.27-4.92.59-6.86,2s-2.93,4.43-1.44,6.33a6,6,0,0,0,4.1,1.83A21.4,21.4,0,0,0,86,22.22a10.3,10.3,0,0,0,5.65-2.7,5.09,5.09,0,0,0,1-5.86A5.37,5.37,0,0,0,88,11.33a15.73,15.73,0,0,0-5.25,1.16"/><path class="cls-4" d="M35.46,39.24c-2.4.27-4.92.59-6.86,2s-2.93,4.43-1.44,6.33a6,6,0,0,0,4.1,1.83A21.4,21.4,0,0,0,38,49.22a10.3,10.3,0,0,0,5.65-2.7,5.09,5.09,0,0,0,1-5.86A5.37,5.37,0,0,0,40,38.33a15.73,15.73,0,0,0-5.25,1.16"/><path class="cls-4" d="M57.66,23a8.94,8.94,0,0,0-8.37,2.7c-1.18,1.31-1.94,3.33-1,4.8.75,1.16,2.26,1.53,3.63,1.7a27.14,27.14,0,0,0,10.72-.83,5.3,5.3,0,0,0,2.85-1.57c1.33-1.7.33-4.38-1.49-5.56s-4.09-1.25-6.25-1.3"/><path class="cls-5" d="M59.08,90.17a3.88,3.88,0,0,0-4.32,1.57,6,6,0,0,0-.7,4.75,14.3,14.3,0,0,0,2.12,4.44,45.55,45.55,0,0,0,4,5.14,7,7,0,0,0,2.21,1.84,2.68,2.68,0,0,0,2.75-.15,3.65,3.65,0,0,0,1.1-2.44,16.89,16.89,0,0,0-5.9-15.12"/><path class="cls-5" d="M23.13,116.19c-1.93-.56-3.94,1.15-4.39,3.11a9.11,9.11,0,0,0,1.14,5.8c1.46,3,3.5,5.9,6.43,7.54,1.55.87,3.59,1.33,5.05.32a4,4,0,0,0,1.57-3,9.38,9.38,0,0,0-.55-3.47A28.67,28.67,0,0,0,28,118a8.06,8.06,0,0,0-2.24-2.23,3.36,3.36,0,0,0-3-.31"/><path class="cls-5" d="M107.68,84a14.94,14.94,0,0,0-6,3.8,7.69,7.69,0,0,0-2,6.61,5.22,5.22,0,0,0,5.11,4.15,5.7,5.7,0,0,0,3.92-2.21,14.41,14.41,0,0,0,2.15-4.09,8.72,8.72,0,0,0,.77-4.69c-.32-1.58-1.74-3-3.34-2.84"/><path class="cls-5" d="M40,104.26a14.85,14.85,0,0,0-2.56,6.61,7.69,7.69,0,0,0,2.34,6.49,5.22,5.22,0,0,0,6.57.31,5.71,5.71,0,0,0,1.84-4.12,14,14,0,0,0-.7-4.56,8.62,8.62,0,0,0-2.17-4.23c-1.19-1.08-3.2-1.41-4.36-.3"/><path class="cls-5" d="M111.28,142.32a9.61,9.61,0,0,0-7.75,11.34c.29,1.5,1.18,3.12,2.69,3.39s2.83-.84,3.85-2a30.82,30.82,0,0,0,3.55-4.66,9.91,9.91,0,0,0,1.52-3.48,4.28,4.28,0,0,0-.83-3.59,2.79,2.79,0,0,0-3.45-.63"/><path class="cls-5" d="M150.05,120.14c-1.92-1-4.44-.24-6,1.35a12.3,12.3,0,0,0-2.69,5.89,7.83,7.83,0,0,0-.23,3.26,3,3,0,0,0,2,2.38,4.07,4.07,0,0,0,3.26-1,19.78,19.78,0,0,0,4.24-4.18,8,8,0,0,0,1.92-5.12c-.13-1.86-1.65-3.71-3.51-3.61"/><path class="cls-5" d="M132.39,100.87a23.05,23.05,0,0,0-5.48,4.19,11.1,11.1,0,0,0-2.92,4.58,5.57,5.57,0,0,0,.93,5.18,5.23,5.23,0,0,0,5.57,1.26A7.68,7.68,0,0,0,134.7,112a14.57,14.57,0,0,0,1.11-5.92,6,6,0,0,0-1-3.9c-.85-1.07-2.68-1.44-3.57-.4"/><path class="cls-5" d="M147.43,60.15a12.06,12.06,0,0,0-7.28,5.75c-1.42,2.85-1.15,6.62,1.1,8.86A4.1,4.1,0,0,0,145.13,76a4.9,4.9,0,0,0,2.34-1.89,16.63,16.63,0,0,0,3.26-8,6.61,6.61,0,0,0-.47-3.89A3,3,0,0,0,147,60.61"/></g></g></g></svg>