<svg xmlns="http://www.w3.org/2000/svg" viewBox="0 0 523.38 265.51"><defs><style>.cls-1{fill:#d9d80c;}.cls-2{fill:#080752;}.cls-3{fill:#4eab9e;}.cls-4{fill:#f0e8d9;}</style></defs><title>Asset 4</title><g id="Layer_2" data-name="Layer 2"><g id="Eye"><g id="ColorEye"><path class="cls-1" d="M2.71,188.71c54.92,31.41,117.94,45,179.82,58.1,52.36,11.11,106,22.28,159,15,74-10.11,141.8-58.22,175.77-124.75,2.77-5.43,5.4-11.4,4.46-17.42-.78-5-3.94-9.33-7.08-13.33C482,64.61,439.61,29,389.27,12.46,341-3.43,288-.94,239.07,12.87S145,51.32,102.48,79.19c-42,27.56-83.8,61.09-100.94,108.32"/><path class="cls-2" d="M2,190c36.8,21,77.33,34.12,118.26,44.32,20.53,5.12,41.23,9.53,61.92,13.93,23,4.87,45.93,9.71,69.17,13.05,41.76,6,84.55,6.75,125.27-5.62a240.75,240.75,0,0,0,91.14-51.83,236.32,236.32,0,0,0,35-39.64,225.7,225.7,0,0,0,14.07-22.91c4.33-8.12,9-17.22,5.11-26.43-1.82-4.3-4.84-8-7.72-11.59s-6-7.42-9.13-11C498.82,85,492.27,78,485.42,71.32A282,282,0,0,0,440.5,35.38,218.49,218.49,0,0,0,326.31.13c-43.07-1.39-85.8,8.27-125.59,24.35-38.88,15.71-75.47,37.1-110,60.79-30.58,21-60.36,45.52-79.35,77.92A147.88,147.88,0,0,0,.1,187.11c-.67,1.82,2.23,2.6,2.89.8,12.76-34.84,39.16-62.23,68-84.6a574.35,574.35,0,0,1,48-32.93,599.85,599.85,0,0,1,53.9-30.19C210.73,21.66,251.34,8,293.45,4.15c41.26-3.8,83.18,1.93,120.7,20,34,16.31,63.37,41,88,69.32q4.56,5.25,8.91,10.68c3,3.77,6.37,7.6,8.21,12.12,4,9.72-3,20.12-7.65,28.36a227.14,227.14,0,0,1-30.76,42.08,238.8,238.8,0,0,1-85.23,59.11,227.43,227.43,0,0,1-49.82,13.94c-21.9,3.48-44.25,3.59-66.32,1.81-22.73-1.83-45.24-5.7-67.58-10.15q-31.65-6.3-63.13-13.4c-40.36-9-80.73-19.6-118.46-36.83q-13.71-6.27-26.82-13.72A1.5,1.5,0,0,0,2,190Z"/><path class="cls-3" d="M295.1,12.23C272.71,10.85,249.7,12.4,229,21s-39,24.89-46.1,46.16c-7,21.11-2.58,44.27,4.06,65.51,9.55,30.5,24.5,60.84,50.3,79.7,26.14,19.12,61.67,24,92.53,14.19s56.63-33.59,70.44-62.88,15.86-63.61,7.34-94.84c-3.06-11.23-7.66-22.44-16-30.59s-19.78-12.58-31-16c-21.3-6.52-43-8.44-65.25-9.88"/><path class="cls-2" d="M295.1,10.73c-25.32-1.54-51.94.6-74.74,12.62C201,33.53,184.91,50.8,179.8,72.42c-3,12.72-2.31,26,.08,38.74a215.66,215.66,0,0,0,10.49,36.12c8,21.38,19.27,42.16,36,58a102.63,102.63,0,0,0,61.46,27.24,109.2,109.2,0,0,0,65.05-14.72,123.38,123.38,0,0,0,44.93-46.29c12-21.58,17.2-46.59,16.11-71.17a142.12,142.12,0,0,0-6.46-36.92c-3.64-11.39-9.33-22.32-18.94-29.76S367,22.28,355.4,19.16a243,243,0,0,0-40.11-6.79c-6.66-.64-13.33-1.12-20-1.55-1.93-.13-1.92,2.88,0,3,25.88,1.68,52.41,4.07,76.67,13.94a61.49,61.49,0,0,1,15.14,8.51,46.25,46.25,0,0,1,11.17,13.18c5.93,10.27,9,22.25,10.92,33.86a137.26,137.26,0,0,1-7,71.91,121.57,121.57,0,0,1-38.27,51.48,108.11,108.11,0,0,1-59.67,23.05c-22.24,1.36-45-4.21-63.49-16.75S209,181.59,199.6,161.54a234.36,234.36,0,0,1-12-31.93c-3.71-12.31-6.59-25.05-6.76-38-.16-12,2.22-23.83,8-34.35A75,75,0,0,1,209.28,34c19.21-14.61,43.38-20,67.13-20.6,6.23-.16,12.47,0,18.69.38,1.93.12,1.92-2.88,0-3Z"/><path class="cls-2" d="M263.68,70.34c-9.67,14.18-13.86,32.59-8.79,49s20.3,29.82,37.44,30.48C312,150.55,330,134,333.64,114.68s-5.47-39.79-20.52-52.5a44.3,44.3,0,0,1-13.63,14.09,16.53,16.53,0,0,0-30.33-1l-5.26-5.45"/><path class="cls-2" d="M262.39,69.59c-9,13.33-13.44,30.24-10,46.16,3,14,12.86,26.55,26.07,32.3a37.6,37.6,0,0,0,20.59,2.85,40.78,40.78,0,0,0,18.64-8.14,46.49,46.49,0,0,0,18.24-37c-.08-15.23-7.06-30-17.64-40.78q-2-2-4.12-3.82a1.51,1.51,0,0,0-2.35.31A43.55,43.55,0,0,1,298.73,75l2.21.89a18,18,0,0,0-33.08-1.34l2.36-.3L265,68.78c-1.34-1.39-3.46.73-2.12,2.12l5.25,5.45a1.51,1.51,0,0,0,2.36-.3,15,15,0,0,1,27.59.62,1.52,1.52,0,0,0,2.21.9,46.89,46.89,0,0,0,14.17-14.63l-2.36.3c10.84,9.22,18.69,22.36,20.5,36.58a44.91,44.91,0,0,1-2,20.64,43.76,43.76,0,0,1-10.63,16.45c-9.42,9.23-22.86,13.8-35.76,10s-23.24-14.46-27.46-27c-4.9-14.52-2.08-30.75,5.27-43.94.94-1.68,2-3.31,3-4.91s-1.51-3.1-2.59-1.51Z"/><path class="cls-4" d="M269.1,74.2a19.85,19.85,0,0,1-6.86-13.7,25.4,25.4,0,0,1,3.83-15,23.42,23.42,0,0,1,10.64-9.59c5.92-2.51,12.91-1.86,18.67,1a34,34,0,0,1,13.71,13.18c2.36,3.92,4.16,8.63,2.83,13a16.71,16.71,0,0,1-4.29,6.52,50.08,50.08,0,0,1-8.34,7c-1-6.24-7.56-10.56-13.87-10.42S273.34,70,269.18,74.77"/><path class="cls-2" d="M270.16,73.14c-11.46-9.67-6.41-29,6.06-35.37,6.5-3.3,14.45-2.11,20.52,1.56a32.33,32.33,0,0,1,13.19,15.81,13,13,0,0,1,.87,6.07,11.2,11.2,0,0,1-2.57,5.45,43.66,43.66,0,0,1-9.7,8.59l2.2.9C299.61,69.6,293.3,65.26,287,64.69c-7.3-.66-14.19,3.76-18.85,9-1.28,1.44.83,3.57,2.12,2.13,4-4.56,9.71-8.45,16-8.19,5.34.22,10.62,3.87,11.56,9.3a1.5,1.5,0,0,0,2.2.9A48.93,48.93,0,0,0,310,69.26c2.76-3.22,4.35-6.92,3.78-11.2-.54-4.06-2.56-7.8-4.88-11.11a37.59,37.59,0,0,0-8.12-8.53c-6.4-4.83-15.06-7-22.85-4.55S264.55,43.16,262,50.64c-2.88,8.56-1.09,18.64,6,24.62,1.47,1.24,3.6-.87,2.12-2.12Z"/><path class="cls-2" d="M420.48,42.2a250.07,250.07,0,0,1,34.07,25.64,253.31,253.31,0,0,1,29.1,30.84q7.52,9.42,14.06,19.54c1.05,1.61,3.64.11,2.59-1.51a254.14,254.14,0,0,0-58.24-63.12q-9.69-7.47-20.06-14c-1.64-1-3.15,1.56-1.52,2.59Z"/><path class="cls-2" d="M493.64,133.77a222.36,222.36,0,0,1-58,66.23,237.47,237.47,0,0,1-78.12,39.62,222.91,222.91,0,0,1-90.3,7.14c-19-2.4-37.75-6.93-56.26-11.91-18.75-5-37.42-10.4-56.12-15.64L41,187.37l-13.94-3.91a1.51,1.51,0,0,0-.8,2.9l115.61,32.35q28.67,8,57.32,16c18.62,5.18,37.35,10.14,56.43,13.32,31.24,5.22,62.8,4.52,93.59-3.1a239.84,239.84,0,0,0,80.34-36.79,228.36,228.36,0,0,0,60.92-63.34q3-4.7,5.74-9.55a1.5,1.5,0,0,0-2.59-1.51Z"/><path class="cls-2" d="M20,172.8a704.22,704.22,0,0,1,110.3-93.23q16.77-11.44,34.19-21.91A1.5,1.5,0,0,0,163,55.07a709.61,709.61,0,0,0-115.93,87q-15,13.88-29.17,28.59c-1.34,1.39.78,3.51,2.13,2.12Z"/><path class="cls-2" d="M406.91,46.76A219.77,219.77,0,0,1,465,95.38q7,8.28,13.1,17.24c1.09,1.58,3.69.08,2.59-1.52a223,223,0,0,0-53.77-55,219.5,219.5,0,0,0-18.52-11.94,1.5,1.5,0,0,0-1.52,2.59Z"/><path class="cls-2" d="M363.11,226a307.79,307.79,0,0,0,51.1-28.86A312.19,312.19,0,0,0,459,159.2a307.15,307.15,0,0,0,21.8-24.91c1.17-1.5-.93-3.64-2.13-2.12a307.82,307.82,0,0,1-40.14,42.24,308.13,308.13,0,0,1-47.6,34,308,308,0,0,1-29.3,15c-1.76.79-.23,3.37,1.52,2.59Z"/><path class="cls-2" d="M39.66,171.07q22.74-21.8,47.06-41.87t49.95-38.11q14.52-10.23,29.45-19.84c1.62-1,.12-3.64-1.51-2.59Q138,85.78,112.77,104.84T63.85,144.77Q50.44,156.57,37.54,169c-1.39,1.34.73,3.46,2.12,2.12Z"/><path class="cls-2" d="M48.65,178.54q32.1,5.55,63.83,13Q144,198.85,175,208q17.58,5.19,35,11c1.84.61,2.63-2.28.8-2.89q-30.92-10.25-62.4-18.68-31.23-8.37-62.9-14.91-18-3.72-36-6.84c-1.89-.33-2.7,2.57-.8,2.89Z"/><path class="cls-2" d="M73.21,162.89q32.37-27.85,66.52-53.53,9.59-7.2,19.29-14.21c1.55-1.12.06-3.73-1.51-2.59Q122.79,117.66,89.77,145q-9.42,7.8-18.68,15.77c-1.46,1.26.67,3.37,2.12,2.12Z"/><path class="cls-2" d="M86.11,166.88a331.24,331.24,0,0,1,86.65,19.39q11.72,4.33,23.07,9.56c1.74.8,3.27-1.78,1.51-2.59A334.17,334.17,0,0,0,111.22,167q-12.5-2-25.11-3.09c-1.93-.17-1.92,2.84,0,3Z"/><path class="cls-2" d="M116.59,146a300.83,300.83,0,0,1,46.7-33.27,1.5,1.5,0,0,0-1.51-2.59,304.78,304.78,0,0,0-47.31,33.74c-1.46,1.26.67,3.38,2.12,2.12Z"/><path class="cls-2" d="M127.53,150.65a324,324,0,0,1,46.53,20.51c1.7.92,3.21-1.67,1.51-2.59a328.07,328.07,0,0,0-47.25-20.82c-1.82-.63-2.61,2.26-.79,2.9Z"/><path class="cls-2" d="M147.73,139.45a27.91,27.91,0,0,1,20-11.59c1.91-.17,1.93-3.17,0-3a31.15,31.15,0,0,0-22.63,13.08c-1.11,1.58,1.49,3.08,2.59,1.51Z"/><path class="cls-2" d="M154.47,146.31a18.9,18.9,0,0,1,12.21,5.05c1.41,1.31,3.53-.81,2.12-2.13a22.14,22.14,0,0,0-14.33-5.92c-1.93-.06-1.93,2.94,0,3Z"/><path class="cls-2" d="M418.82,68.61q16.62,18.51,34.6,35.74,5.15,4.91,10.38,9.71c1.42,1.3,3.55-.81,2.12-2.12q-18.33-16.81-35.37-35-4.86-5.19-9.61-10.48c-1.29-1.44-3.41.69-2.12,2.12Z"/><path class="cls-2" d="M393.2,191.92a427.93,427.93,0,0,0,58.87-47.51q7.64-7.36,14.89-15.1c1.32-1.41-.8-3.54-2.12-2.13A424,424,0,0,1,409,177.09q-8.5,6.33-17.32,12.24c-1.59,1.07-.09,3.67,1.52,2.59Z"/><path class="cls-2" d="M421.16,94.62a181.47,181.47,0,0,0,22.35,22.86c1.46,1.25,3.59-.86,2.12-2.12A181.47,181.47,0,0,1,423.28,92.5c-1.23-1.5-3.34.64-2.12,2.12Z"/><path class="cls-2" d="M414.19,159.94l29.2-33.75c1.26-1.45-.85-3.58-2.12-2.12l-29.2,33.75c-1.26,1.46.86,3.59,2.12,2.12Z"/><path class="cls-2" d="M423,110.53l6.21,5.32a1.53,1.53,0,0,0,2.12,0,1.51,1.51,0,0,0,0-2.12l-6.2-5.32a1.5,1.5,0,0,0-2.13,2.12Z"/><path class="cls-2" d="M426.48,122.55l-12.52,15a1.54,1.54,0,0,0,0,2.12,1.52,1.52,0,0,0,2.12,0l12.53-15a1.55,1.55,0,0,0,0-2.12,1.51,1.51,0,0,0-2.13,0Z"/><path class="cls-2" d="M264,21.13a83.17,83.17,0,0,0-32.26,18.58,87.58,87.58,0,0,0-21.46,30.73,79.1,79.1,0,0,0-5.8,37,86.84,86.84,0,0,0,11.67,36.34,84.15,84.15,0,0,0,26,27.63q2,1.32,4.07,2.51a1.5,1.5,0,0,0,1.52-2.59,79.64,79.64,0,0,1-26.54-25.16A84.62,84.62,0,0,1,208,111.8a76.25,76.25,0,0,1,3.46-36,83.46,83.46,0,0,1,18.93-30.54,80.8,80.8,0,0,1,30.14-19.8q2.13-.77,4.29-1.41c1.84-.56,1.06-3.45-.8-2.9Z"/><path class="cls-2" d="M252,194.08a109,109,0,0,0,56.51-2.19,107.63,107.63,0,0,0,71.07-72.73c5.07-18.14,4.89-38.26-3.38-55.45-7-14.48-19.56-26.58-35-31.57a49.87,49.87,0,0,0-5.65-1.47c-1.89-.37-2.69,2.52-.8,2.89,15.41,3.08,28.42,13.57,36.31,26.95,9.2,15.59,10.73,34.56,7,52a101.67,101.67,0,0,1-23.21,45.62,104.3,104.3,0,0,1-41.05,28.71,106,106,0,0,1-54.25,5.65c-2.29-.37-4.56-.82-6.81-1.33-1.88-.43-2.69,2.46-.8,2.89Z"/></g></g></g></svg>