<svg xmlns="http://www.w3.org/2000/svg" viewBox="0 0 216.43 566.32"><defs><style>.cls-1{fill:#d9d80c;}.cls-2{fill:#080752;}.cls-3{fill:#4eab9e;}</style></defs><title>Asset 5</title><g id="Layer_2" data-name="Layer 2"><g id="Fingers"><g id="Two"><g id="Outline"><path class="cls-1" d="M167.93,563.24c-4.27-42.75-7.1-157.89-3.25-171.89,7-25.58,22.81-47.81,37.31-70,21.77-33.36,10.49-74.3,6-110.88-.95-7.68-13.06-16.28-15.24-23.7-3.48-11.86-2.17-24.51-1.36-36.84A421.37,421.37,0,0,0,179.58,20.12c-1.94-7.75-5.41-16.75-13.22-18.44C160,.29,153.49,5,150.62,10.87s-3,12.69-3,19.24l-1.2,133.41c-7-10.2-18.24-18.36-30.62-18.34S91,155.68,91.76,168c-7.71-9.6-23.07-11.9-33.25-5s-13.68,22.06-7.58,32.76c-8.8-3-18.87.15-25.94,6.2s-13.21,14.09-15,23.22C5.48,248.37-1.49,273.84,2.76,296c5.37,28,22.87,55.3,28.28,84.19,11.43,61.08,7.57,123.4-2.81,184.67"/><path class="cls-2" d="M169.43,563.24c-1.71-17.24-2.52-34.58-3.25-51.89q-1.32-31.14-1.71-62.32c-.19-15.92-.41-31.91.56-47.81a58.54,58.54,0,0,1,3.12-16c4.74-14,12-27,19.8-39.51,7.45-11.93,16.65-23.3,22-36.38,5.1-12.47,6.69-26.07,6.45-39.46s-2.19-26.74-4.18-40c-1-6.74-1.53-13.73-2.91-20.39-1-4.9-4.83-9-8-12.64A64.67,64.67,0,0,1,196,190a23.71,23.71,0,0,1-3-8.76c-1.52-8.21-1.07-16.66-.53-25,1-15.81,1.61-31.58,1.09-47.43a424.7,424.7,0,0,0-4.29-47.76q-1.72-11.76-4.12-23.43c-1.5-7.33-2.93-14.84-5.23-22-1.59-4.92-3.93-10.09-8.23-13.2a13.42,13.42,0,0,0-14.54-.62C144.19,9,146.11,26.65,146,39.08l-.9,99.78-.22,24.66,2.79-.75c-7.62-10.89-20.28-20.41-34.28-19-12.12,1.26-23.68,11.44-23.13,24.22L92.82,167c-8.37-10.06-24.56-12.63-35.38-5s-14.09,23.12-7.8,34.59l1.69-2.2c-10.68-3.43-21.57,1-29.43,8.39a48.09,48.09,0,0,0-10.63,14.06C8.73,222.16,7.93,228,6.74,233.74,4.07,246.59,1.25,259.49.27,272.61a98.44,98.44,0,0,0,4.34,36.8C12.23,334.2,25.33,357,30,382.74a433.9,433.9,0,0,1,6.42,85.31c-.6,32.33-4.25,64.52-9.63,96.39-.32,1.88,2.57,2.7,2.89.79C38.82,511,43,455.53,35.82,400.82,34.12,387.9,32,375,28,362.61c-3.89-11.91-9-23.38-13.62-35-4.48-11.22-8.87-22.82-10.63-34.84-1.91-12.94-.23-26.23,2.06-39,1.28-7.1,2.8-14.15,4.26-21.21,1.4-6.77,2.62-13,6.5-18.93,7.23-11,20.29-20.74,34-16.34a1.52,1.52,0,0,0,1.7-2.2c-5.59-10.2-2.52-24.45,7.35-30.92s23.71-4,31.12,4.94A1.51,1.51,0,0,0,93.26,168c-.5-11.65,10.58-20.91,21.71-21.33,12.39-.47,23.32,7.88,30.11,17.58a1.52,1.52,0,0,0,2.8-.76L148.76,66,149,41.33c.07-7.75-.57-15.95,1-23.59,1.33-6.56,5.39-13.6,12.63-14.68,6.48-1,10.74,4.42,13,9.73,2.78,6.4,4,13.59,5.47,20.36q2.53,11.63,4.42,23.37a419.26,419.26,0,0,1,4.79,46.91A425.8,425.8,0,0,1,189.8,151c-.5,7.41-1.13,14.85-.74,22.29.33,6.1.95,13,4.32,18.24,3,4.73,7.26,8.56,10.42,13.2,3.32,4.88,3.29,10.74,4.12,16.43,2,13.44,4.25,26.87,5.14,40.45.87,13.28.4,26.81-3.43,39.65-4.07,13.65-12.67,24.87-20.3,36.69s-14.93,24-20.44,37c-3,7-5.79,14.18-6.52,21.78-1.33,13.89-1.06,28-1,41.95.19,38.28,1.21,76.7,4.2,114.88.25,3.24.53,6.49.85,9.73.19,1.9,3.19,1.92,3,0Z"/></g><path class="cls-2" d="M26,237.73l24.46,32.53c6.09,8.1,13.17,17.61,23.86,19.39a19.92,19.92,0,0,0,13.05-1.93,13.63,13.63,0,0,0,4.85-4.45c.83-1.33-.27-2.73-.85-4l-2-4.4q-8.28-18-15.93-36.23-8.57-20.46-16.3-41.23c-.67-1.79-3.57-1-2.89.8q12.51,33.56,27.12,66.27,4.15,9.28,8.48,18.5v-1.52c-2.44,3.7-6.81,5.39-11.11,5.51a21.2,21.2,0,0,1-13.37-4.67c-4.32-3.26-7.76-7.59-11-11.88-4-5.31-8-10.65-12-16L28.59,236.22c-1.14-1.53-3.75,0-2.59,1.51Z"/><path class="cls-2" d="M90.82,275.82c2.09,7.32,10.37,12.25,17.76,9.88a14.92,14.92,0,0,0,8.55-7.31,14.28,14.28,0,0,0,1.55-5.45,24.3,24.3,0,0,0-.91-7q-7-31.44-14-62.89l-7.94-35.59c-.42-1.88-3.32-1.09-2.9.8l13,58.5,6.47,29,1.64,7.31c.52,2.37,1.18,4.74,1.51,7.14a11.46,11.46,0,0,1-3.41,9.86,10.65,10.65,0,0,1-10.58,2.73,11.68,11.68,0,0,1-7.88-7.8,1.5,1.5,0,0,0-2.89.79Z"/><path class="cls-2" d="M116.74,267.86c2.9,4.95,8.31,7.6,13.92,8a20.53,20.53,0,0,0,15.87-6.23c10.92-10.95,9.48-27.49,6.68-41.36-1.84-9.18-4.19-18.35-3.63-27.79.11-1.93-2.89-1.93-3,0-.92,15.46,5.88,30.06,5.74,45.45-.11,11.21-5.71,25.63-18.56,26.88-5.54.54-11.51-1.46-14.43-6.44a1.5,1.5,0,0,0-2.59,1.51Z"/><path class="cls-2" d="M198.67,197.09a47.64,47.64,0,0,1-27.1-17.58c-2.1-2.79-3.72-5.87-5.58-8.83-1.75-2.78-3.82-5.56-6.7-7.26a10.9,10.9,0,0,0-9.11-1c-6.15,2.18-10.05,9-10.23,15.31-.23,8.14,4.41,15.52,7.89,22.55A105.67,105.67,0,0,1,156,224.35c3.57,16,4.83,32.47,9.27,48.28,3.89,13.84,10.2,27.7,21.22,37.32,1.33,1.16,2.73,2.25,4.17,3.28s3.07-1.47,1.51-2.59c-11.45-8.2-18.35-21-22.61-34.17-4.8-14.83-6.34-30.39-9.19-45.65a139.35,139.35,0,0,0-6.21-23.55,106.64,106.64,0,0,0-5-11,75.07,75.07,0,0,1-4.9-10.81c-1.1-3.37-1.77-7-.92-10.53a15,15,0,0,1,4.74-7.87,8.29,8.29,0,0,1,7.94-1.82c2.94.93,5,3.46,6.7,5.94,1.85,2.76,3.35,5.73,5.24,8.46a50.71,50.71,0,0,0,6.91,8,51.3,51.3,0,0,0,18,10.91,48.34,48.34,0,0,0,5,1.44c1.87.44,2.68-2.45.79-2.89Z"/><path class="cls-2" d="M109.71,283.54c-12.06,16.37-16.09,38.07-11.55,57.8a68,68,0,0,0,5.93,16c.89,1.72,3.48.2,2.59-1.51-9-17.29-9.6-38.35-2.43-56.39a64.73,64.73,0,0,1,8-14.42c1.15-1.56-1.45-3.06-2.59-1.52Z"/><path class="cls-2" d="M64.26,290.5a313.38,313.38,0,0,1,20.68,36c.85,1.73,3.43.21,2.59-1.52a314.23,314.23,0,0,0-20.68-36c-1.07-1.6-3.67-.1-2.59,1.52Z"/><path class="cls-2" d="M95.87,284.71a401.3,401.3,0,0,0-13.18,53.8q-1.35,7.8-2.39,15.65c-.11.81.77,1.49,1.5,1.5a1.54,1.54,0,0,0,1.5-1.5,398.57,398.57,0,0,1,11-53.64q2.08-7.54,4.48-15c.59-1.85-2.31-2.64-2.9-.8Z"/><path class="cls-2" d="M21.91,302l32-21.9c1.58-1.08.09-3.68-1.51-2.59l-32,21.9c-1.59,1.08-.09,3.68,1.51,2.59Z"/><path class="cls-2" d="M6.75,253.68A53.42,53.42,0,0,0,37,258.32a1.51,1.51,0,0,0,1-1.85,1.55,1.55,0,0,0-1.85-1,49.8,49.8,0,0,1-27.94-4.34c-1.74-.82-3.26,1.76-1.51,2.59Z"/><path class="cls-2" d="M44.55,304.58,62.89,286c1.36-1.37-.76-3.5-2.12-2.12L42.43,302.46c-1.36,1.37.76,3.5,2.12,2.12Z"/><path class="cls-2" d="M57.26,419.66l60.11-.4,16.9-.11a1.5,1.5,0,0,0,0-3l-60.12.4-16.89.11a1.5,1.5,0,0,0,0,3Z"/><path class="cls-2" d="M50,400.07c10,6.17,22,2.43,32.68.53,6.07-1.09,12-1.3,17.94.71,5.35,1.82,10.29,4.77,15.78,6.22s11.67,1.54,16.45-1.85c1.56-1.11.06-3.71-1.51-2.59-9.1,6.45-20.35-1.21-29.1-4.38a34.78,34.78,0,0,0-16.87-1.55c-5.67.75-11.21,2.36-16.9,3s-11.86.44-17-2.69c-1.65-1-3.16,1.58-1.52,2.59Z"/><path class="cls-2" d="M162.84,237.18A45.13,45.13,0,0,0,186.49,228,1.55,1.55,0,0,0,187,226a1.51,1.51,0,0,0-2.05-.54,42.35,42.35,0,0,1-22.13,8.74c-1.91.17-1.92,3.17,0,3Z"/><path class="cls-2" d="M166.16,243.67a36.81,36.81,0,0,0,23.69,1.39,1.5,1.5,0,0,0-.8-2.89A34.12,34.12,0,0,1,167,240.78a1.5,1.5,0,1,0-.8,2.89Z"/><path class="cls-2" d="M164.49,258.16a69,69,0,0,0,39.65,25.57c1.88.42,2.68-2.47.79-2.89a65.91,65.91,0,0,1-37.85-24.2c-1.15-1.52-3.75,0-2.59,1.52Z"/><path class="cls-2" d="M177.68,282.2a54.12,54.12,0,0,1,27.65,21.13c1.06,1.6,3.66.1,2.59-1.51a57.42,57.42,0,0,0-29.45-22.51c-1.83-.61-2.62,2.28-.79,2.89Z"/><path class="cls-2" d="M183.62,294.75a20.83,20.83,0,0,1,8.57,9.94,1.56,1.56,0,0,0,1.85,1.05,1.52,1.52,0,0,0,1.05-1.84,24.06,24.06,0,0,0-10-11.74,1.5,1.5,0,0,0-1.52,2.59Z"/><path class="cls-2" d="M152.78,63.41l28.69-.84c1.93-.06,1.94-3.06,0-3l-28.69.84c-1.93.05-1.93,3.05,0,3Z"/><path class="cls-2" d="M154.93,103.33l25.83.61c1.93,0,1.93-3,0-3l-25.83-.61c-1.93,0-1.93,3,0,3Z"/><path class="cls-2" d="M155.34,111.79a37,37,0,0,0,26,.06c1.79-.67,1-3.57-.8-2.89a34.47,34.47,0,0,1-24.42-.06c-1.81-.69-2.59,2.21-.8,2.89Z"/><path class="cls-2" d="M150.21,156.85a60.24,60.24,0,0,0,34.86,11.94c1.93,0,1.93-3,0-3a57.47,57.47,0,0,1-33.34-11.53c-1.55-1.16-3,1.44-1.52,2.59Z"/><path class="cls-2" d="M115.57,219.62A45.76,45.76,0,0,1,141,216.28c1.89.29,2.7-2.6.8-2.9A49.47,49.47,0,0,0,114.06,217c-1.76.78-.24,3.37,1.51,2.59Z"/><path class="cls-2" d="M120.57,227.43a28.16,28.16,0,0,1,20.34-4.28c1.89.34,2.7-2.55.8-2.89a31.27,31.27,0,0,0-22.66,4.58c-1.6,1.06-.1,3.66,1.52,2.59Z"/><path class="cls-2" d="M79.82,228.34a73,73,0,0,1,21.5-10.8c1.84-.56,1.05-3.46-.8-2.89a75.41,75.41,0,0,0-22.22,11.1c-1.54,1.13,0,3.73,1.52,2.59Z"/><path class="cls-2" d="M84.71,234.63,101.57,224c1.63-1,.13-3.62-1.51-2.59L83.2,232c-1.63,1-.13,3.62,1.51,2.59Z"/><path class="cls-2" d="M52.68,243.65a21.83,21.83,0,0,1,12.57-6,1.55,1.55,0,0,0,1.5-1.5,1.5,1.5,0,0,0-1.5-1.5,25.08,25.08,0,0,0-14.69,6.9c-1.39,1.34.74,3.46,2.12,2.12Z"/><path class="cls-2" d="M56.26,250.1a23.63,23.63,0,0,1,10.83-7.49,1.54,1.54,0,0,0,1-1.85,1.51,1.51,0,0,0-1.85-1A26.47,26.47,0,0,0,54.14,248a1.56,1.56,0,0,0,0,2.13,1.52,1.52,0,0,0,2.12,0Z"/><path class="cls-2" d="M201.79,205.3l-7.21,10a1.52,1.52,0,0,0,.54,2,1.54,1.54,0,0,0,2.06-.54l7.2-10a1.5,1.5,0,0,0-2.59-1.52Z"/><path class="cls-2" d="M203.87,212.42a16.12,16.12,0,0,1-1.37,2.43c-.14.2-.28.4-.43.59.13-.16.07-.08,0,0l-.24.28c-.3.36-.61.7-.94,1s-.65.61-1,.9l-.28.23c-.31.26.25-.18-.08.06s-.39.29-.59.43a16.11,16.11,0,0,1-2.44,1.35,1.51,1.51,0,0,0-.54,2.05,1.54,1.54,0,0,0,2.06.54,17,17,0,0,0,8.45-8.4,1.55,1.55,0,0,0-.54-2.06,1.52,1.52,0,0,0-2,.54Z"/><path class="cls-3" d="M81,266.82c-6.52.38-11.68,7.66-9.87,13.95s10,9.72,15.77,6.58c1.37-.75,2.68-2,2.78-3.54a6,6,0,0,0-1-3.16l-7.44-13.76"/><path class="cls-2" d="M81,265.32c-8.63.64-14.93,11.12-10,18.74A13.52,13.52,0,0,0,81,290c3.85.39,10-1.48,10.18-6.16A7.62,7.62,0,0,0,90,279.9c-.81-1.54-1.65-3.06-2.48-4.59l-5-9.18c-.92-1.7-3.51-.19-2.59,1.51q3.61,6.71,7.24,13.42a5,5,0,0,1,1,2.75,3,3,0,0,1-1.41,1.86A7.92,7.92,0,0,1,82.51,287a10.61,10.61,0,0,1-8.26-3.57,8.47,8.47,0,0,1-1.33-8.73,9.88,9.88,0,0,1,8.07-6.4c1.91-.15,1.93-3.15,0-3Z"/><path class="cls-3" d="M108.6,256.94a13.31,13.31,0,0,0-9.68,20.2,6.41,6.41,0,0,0,2.54,2.52,6.61,6.61,0,0,0,3.36.45,10.33,10.33,0,0,0,5.88-2.18c2.84-2.39,3.61-6.58,2.85-10.21s-2.77-6.86-4.75-10"/><path class="cls-2" d="M108.2,255.49a15,15,0,0,0-11.85,19.73c.78,2.12,2,4.39,4,5.57s4.53,1,6.7.49a10.4,10.4,0,0,0,8.12-9.15c.73-5.61-2.23-10.61-5.1-15.16-1-1.63-3.63-.13-2.59,1.51,2.06,3.27,4.4,6.8,4.76,10.75.31,3.3-.76,6.84-3.88,8.43a9.13,9.13,0,0,1-5.46.91c-1.82-.35-2.9-2.22-3.56-3.8a12,12,0,0,1,.56-10.37,12.23,12.23,0,0,1,9.07-6,1.52,1.52,0,0,0,1-1.85,1.54,1.54,0,0,0-1.85-1.05Z"/><path class="cls-3" d="M140.9,245.79a14.65,14.65,0,0,0-13.22,4.78,16,16,0,0,0-3.44,13.74c.72,3.32,2.87,6.68,6.2,7.39,2.22.47,4.5-.32,6.56-1.25a46.35,46.35,0,0,0,9.06-5.4c1.59-1.22,3.19-2.69,3.58-4.66a9.26,9.26,0,0,0-.91-4.95c-1.56-4-3.63-8.58-7.79-9.77"/><path class="cls-2" d="M141.3,244.34a16.25,16.25,0,0,0-15.41,6.07,17.22,17.22,0,0,0-2.47,16.34,10.4,10.4,0,0,0,5.27,5.94c3,1.31,6.21.33,9.07-.95a45.3,45.3,0,0,0,8.7-5.13c2.37-1.77,4.74-3.94,4.77-7.13a14,14,0,0,0-1.31-5.1,35.37,35.37,0,0,0-2-4.29,11.87,11.87,0,0,0-6.61-5.87c-1.85-.58-2.64,2.32-.8,2.89,4.09,1.28,6,6.34,7.23,10.05a4.93,4.93,0,0,1,.07,3.86,7.91,7.91,0,0,1-2.25,2.5,40.07,40.07,0,0,1-6.58,4.27c-2.26,1.21-5,2.78-7.68,2.53-2.19-.21-3.76-1.88-4.72-3.74-2.06-4-1.48-9.27.78-13.07a13.19,13.19,0,0,1,13.12-6.27c1.88.29,2.7-2.6.79-2.9Z"/><path class="cls-3" d="M161.65,169.33a27.35,27.35,0,0,1-1.18,14.88,12.69,12.69,0,0,0-1.17,4.31c0,2.78,2.14,5,4.16,6.94,2.39,2.28,5.5,4.72,8.63,3.71,2.82-.92,4.09-4.3,3.92-7.25-.26-4.56-3-8.58-5.85-12.12s-6.11-7-7.77-11.2"/><path class="cls-2" d="M160.21,169.73a26.29,26.29,0,0,1,.24,8.49,25.84,25.84,0,0,1-.86,3.9c-.43,1.43-1.09,2.79-1.47,4.24-1.4,5.23,3,9.49,6.84,12.34,2,1.52,4.56,2.63,7.14,2a6.87,6.87,0,0,0,4.57-4.11c2-4.64.12-9.86-2.48-13.87-3.23-5-8.1-9-10.35-14.54-.72-1.77-3.62-1-2.9.8,1.76,4.35,4.81,7.8,7.76,11.38,2.82,3.41,5.89,7.56,5.83,12.2a6,6,0,0,1-1.95,4.66c-1.84,1.4-4.12.29-5.76-.87a21.4,21.4,0,0,1-4.79-4.66,6.09,6.09,0,0,1-1.2-2.65,7.47,7.47,0,0,1,.77-3.61,30.05,30.05,0,0,0,1.5-16.52c-.37-1.9-3.26-1.09-2.89.8Z"/></g></g></g></svg>