<svg xmlns="http://www.w3.org/2000/svg" viewBox="0 0 195.4 479.45"><defs><style>.cls-1{fill:#d9d80c;}.cls-2{fill:#080752;}.cls-3{fill:#4eab9e;}</style></defs><title>Asset 3</title><g id="Layer_2" data-name="Layer 2"><g id="Oath"><g id="Green"><path class="cls-1" d="M161.61,468.6l18.33-94.18c6-31,12.07-62.06,13.58-93.57,1.23-25.75-.58-51.54-2.39-77.26L180.59,53.74c-.63-9-1.46-18.61-6.86-25.88s-17.08-10.62-23.58-4.31c-4,3.88-4.79,9.91-5.35,15.45l-4.49,44.15A268.92,268.92,0,0,0,131.82,22c-2.24-8.62-6.35-18.53-15.08-20.29-7.56-1.54-15,4.42-17.91,11.58s-2.31,15.19-1.68,22.88c-3.55-10.14-19.48-10-26.68-2S62.4,53.77,61.92,64.51l-4.68,104c-.18,3.91-.51,8.19-3.24,11-4.81,4.92-13.15,2-19.82,3.7-6.37,1.61-10.89,7.53-12.89,13.79s-2,12.95-2.37,19.51C16.67,254.06.17,290.18,1.57,327.8c1.91,50.89,36.35,97.74,31.74,148.45"/><path class="cls-2" d="M163.06,469c7.08-36.41,14.29-72.79,21.23-109.22,3.42-17.9,6.59-35.87,8.66-54a391.55,391.55,0,0,0,2.3-55.1c-.49-18.55-1.91-37.07-3.22-55.58L188.09,139l-3.91-55.6-2-27.81c-.54-7.7-1-15.65-4-22.85-2.49-5.88-6.74-10.54-12.79-12.81-5.26-2-11.52-1.72-15.89,2.11-5.41,4.74-5.8,12.64-6.48,19.28l-2.82,27.71-1.43,14.09h3a259.43,259.43,0,0,0-8.88-62.83c-1.88-6.77-4.88-14.45-11.18-18.27C114.87-2.13,106.64.5,101.53,6.19c-7.34,8.15-6.7,19.75-5.88,29.94l2.94-.4C94.42,24.65,79.2,24.81,71.17,31.4,65.66,35.92,63,43.25,61.79,50.05c-1.53,8.47-1.49,17.22-1.88,25.8l-2.7,60-1.35,29.78c-.17,3.89.13,8.69-2.29,12s-6.8,3.38-10.5,3.4c-3.42,0-7-.14-10.26,1a18.2,18.2,0,0,0-8.21,5.77c-5.1,6.17-6.34,14.07-6.81,21.82a248.36,248.36,0,0,1-3,28c-1.58,9-3.64,17.95-5.72,26.88C5,282.2.76,300.05.08,318.28c-.62,16.84,2.44,33.41,7.05,49.54,9.05,31.66,24.19,62.57,25.07,96a109.4,109.4,0,0,1-.39,12.41c-.17,1.92,2.83,1.91,3,0,2.8-32.16-9.67-62.69-19.6-92.6-5.11-15.39-9.8-31.09-11.52-47.27-1.85-17.46.44-34.85,4-51.94C11.34,267,16.15,249.68,18.76,232c1.27-8.58,1.46-17.18,2.29-25.8.74-7.74,3.28-16.66,10.76-20.51,6.26-3.22,13.72-.09,20.08-2.95,7-3.15,6.72-11.5,7-18l2.6-57.66,1.32-29.31c.38-8.56.31-17.32,1.67-25.8,1.1-6.88,3.53-14.83,9.57-19C78.64,29.8,85.26,28.69,90.42,31a9.83,9.83,0,0,1,5.28,5.52c.55,1.46,3.09,1.42,3-.4-.69-8.55-1.59-18.38,3.47-25.87C106.36,4,114.71.35,121.32,5.37c5.57,4.24,7.75,11.83,9.39,18.31a270.69,270.69,0,0,1,5.42,27.22,269.87,269.87,0,0,1,2.68,32.25c0,2,2.8,1.88,3,0l2.72-26.77,1.34-13.15a72.48,72.48,0,0,1,1.67-11.83c1.86-6.84,7.31-10.85,14.42-9.34,6.95,1.47,11.71,6.8,14.06,13.29,2.68,7.36,2.86,15.37,3.4,23.1l1.86,26.39,3.78,53.72c2.49,35.45,5.73,70.95,7,106.48a401.29,401.29,0,0,1-1.34,53.38c-1.7,17.57-4.57,35-7.78,52.35-6.46,34.89-13.49,69.68-20.27,104.5l-2.51,12.93c-.37,1.88,2.52,2.69,2.89.8Z"/><path class="cls-1" d="M97.17,39a969.7,969.7,0,0,1,4.3,149.72"/><path class="cls-2" d="M95.67,39q3.09,29,4.43,58.21t.91,58.62q-.24,16.45-1,32.89c-.09,1.93,2.91,1.92,3,0q1.41-29.16,1.08-58.37T101.6,71.75Q100.42,55.34,98.67,39c-.2-1.9-3.2-1.93-3,0Z"/><path class="cls-1" d="M139.93,84.71a718.89,718.89,0,0,0,.53,101.15"/><path class="cls-2" d="M138.43,84.71a722.86,722.86,0,0,0-.81,78.86q.49,11.16,1.34,22.29c.14,1.91,3.14,1.93,3,0A722.8,722.8,0,0,1,140.32,107q.39-11.16,1.11-22.3c.12-1.93-2.88-1.92-3,0Z"/><path class="cls-1" d="M81.15,431.88c-19.09-41.55-14.65-93,11.28-130.65,4.45-6.46,9.73-13.41,8.88-21.21-.65-6-4.9-11-7.26-16.63s-1.79-13.7,3.91-15.83c-3.66,3.54-9.42,4.18-14.3,2.75s-9-4.62-12.84-8a111,111,0,0,1-21.71-26.37c-3.73-6.32-6.9-13.32-6.68-20.65s4.7-15,11.81-16.75c6.39-1.6,13,1.73,18.08,6s9.31,9.48,15,12.88c13,7.86,30.94,4.43,43.3,13.31,7,5,10.92,13.08,14.6,20.82l27.57,57.86"/><path class="cls-2" d="M82.45,431.12C71.72,407.67,68.52,381,72.58,355.55A133.37,133.37,0,0,1,83.91,319a126.29,126.29,0,0,1,9.7-16.8c3.78-5.52,8.18-11.21,9.11-18,1.09-8-4-13.91-7-20.72-1.9-4.23-2.74-12.24,2.68-14.39L96.9,246.5c-3,2.81-7.41,3.51-11.35,2.73-4.36-.87-8.2-3.39-11.58-6.18a105.39,105.39,0,0,1-18.79-20.49c-5.22-7.42-10.84-16.14-11.24-25.48-.32-7.38,3.76-16,11.72-17.3,9.35-1.52,16.78,6.8,22.85,12.53A42.22,42.22,0,0,0,89,200a48.64,48.64,0,0,0,11.47,3.64c7.95,1.61,16.34,2.05,23.88,5.27,8,3.41,12.86,10.21,16.72,17.69,4.66,9,8.82,18.33,13.18,27.5L168,282.83l3.47,7.29c.83,1.74,3.42.22,2.59-1.51-9.59-20.14-19-40.35-28.78-60.41-3.87-7.95-8.53-16-16.49-20.43-7.57-4.25-16.39-5-24.77-6.49a54.29,54.29,0,0,1-12.58-3.44,39.76,39.76,0,0,1-11.09-8c-6.52-6.19-14.14-14.13-24-13.2-8.56.81-14.19,8.56-15.21,16.64-1.23,9.83,4,19.35,9.17,27.29a112.64,112.64,0,0,0,19,22.31c6.55,5.9,15.17,11.81,24.42,8.82A14.08,14.08,0,0,0,99,248.63c1-1,0-3.08-1.46-2.51-5.23,2.07-6.82,7.79-6.16,13,.83,6.61,5.61,11.57,7.66,17.74,2.31,6.95-1,13.34-4.78,19.06a197.05,197.05,0,0,0-10.8,17.26,138,138,0,0,0-15,76.75,132.55,132.55,0,0,0,11.36,42.73c.8,1.76,3.39.24,2.59-1.51Z"/><path class="cls-1" d="M45.42,184.81c-3.74-4.53-11.37-4.22-15.82-.38s-6.08,10.13-5.81,16S26,212,27.48,217.63s2.73,11.64,5.42,16.93,7.2,10,13,11.32,12.72-1.94,14.09-7.71c1.14-4.76-1.51-9.52-4.13-13.65-4.18-6.54-8.63-13.05-11-20.44s-2.47-16,1.81-22.43"/><path class="cls-2" d="M46.48,183.75c-3.19-3.72-8.63-4.55-13.14-3.07-5.11,1.67-8.51,6.11-10,11.13-1.76,5.8-1,11.91.4,17.69.79,3.24,1.77,6.42,2.61,9.64s1.59,6.36,2.59,9.49c1.76,5.47,4.37,10.85,8.82,14.64,3.92,3.35,8.94,5.16,14.07,4,4.74-1.06,9-4.62,9.81-9.58,1-6.45-3.37-12.22-6.64-17.33-6.91-10.82-15.08-25.51-7-38,1-1.62-1.55-3.13-2.59-1.51-6.14,9.49-3.67,21.47,1.11,30.94,2.71,5.36,6.23,10.21,9.27,15.37,2.54,4.3,4.8,10.11.75,14.25a11.45,11.45,0,0,1-12,2.47c-4.56-1.63-8-5.61-10.16-9.79-2.85-5.4-4-11.5-5.57-17.34s-3.52-11.49-3.54-17.49c0-5.2,1.6-11.28,6.14-14.37,3.89-2.66,9.72-2.82,13,.94,1.26,1.47,3.37-.66,2.12-2.12Z"/><path class="cls-1" d="M65.56,82.83a31.53,31.53,0,0,1,27.13-2.24"/><path class="cls-2" d="M66.13,83.8a30.64,30.64,0,0,1,26.26-2.13c1.35.52,1.94-1.66.6-2.17a32.84,32.84,0,0,0-28,2.36,1.13,1.13,0,0,0,1.14,1.94Z"/><path class="cls-1" d="M104.23,61.57l26.33,1.12"/><path class="cls-2" d="M104.23,62.7l26.33,1.12c1.45.06,1.45-2.19,0-2.25l-26.33-1.12c-1.45-.07-1.45,2.18,0,2.25Z"/><path class="cls-1" d="M145.23,75.35a36.52,36.52,0,0,1,32.47,3"/><path class="cls-2" d="M145.53,76.43a35.63,35.63,0,0,1,31.6,2.91c1.24.77,2.37-1.18,1.14-1.94a37.78,37.78,0,0,0-33.34-3.14c-1.33.52-.75,2.7.6,2.17Z"/><path class="cls-1" d="M139.87,122.91a29.47,29.47,0,0,1,30.73-.62"/><path class="cls-2" d="M140.44,123.89a28.43,28.43,0,0,1,29.59-.63,1.13,1.13,0,0,0,1.14-1.94,30.71,30.71,0,0,0-31.87.62c-1.21.79-.08,2.74,1.14,2Z"/><path class="cls-1" d="M139.57,128.77a47.87,47.87,0,0,0,40.51,3.5"/><path class="cls-2" d="M139,129.75a49.22,49.22,0,0,0,41.38,3.61c1.35-.5.76-2.67-.6-2.17a47,47,0,0,1-39.64-3.39,1.13,1.13,0,0,0-1.14,2Z"/><path class="cls-1" d="M105.79,114.1a23.78,23.78,0,0,1,23.43.26"/><path class="cls-2" d="M106.35,115.07a22.76,22.76,0,0,1,22.31.26,1.12,1.12,0,0,0,1.13-1.94,25.06,25.06,0,0,0-24.57-.26c-1.27.7-.14,2.64,1.13,1.94Z"/><path class="cls-1" d="M105.67,125.42a28.14,28.14,0,0,0,26.93-1.28"/><path class="cls-2" d="M105.1,126.39a29.43,29.43,0,0,0,28.07-1.28c1.23-.75.1-2.7-1.13-1.94a27.14,27.14,0,0,1-25.8,1.28c-1.3-.64-2.44,1.3-1.14,1.94Z"/><path class="cls-1" d="M66.82,130.5a61.53,61.53,0,0,1,32,5.79"/><path class="cls-2" d="M66.82,131.63a61,61,0,0,1,31.46,5.63c1.3.62,2.44-1.32,1.13-1.94a63.25,63.25,0,0,0-32.59-5.94c-1.43.12-1.44,2.37,0,2.25Z"/><path class="cls-1" d="M63.23,141.59c10.24,4.36,22,1.55,32.7-1.32"/><path class="cls-2" d="M62.93,142.68c10.71,4.44,22.58,1.53,33.3-1.32a1.13,1.13,0,0,0-.59-2.17c-10.37,2.76-21.75,5.62-32.12,1.32-1.33-.56-1.91,1.62-.59,2.17Z"/><path class="cls-1" d="M147.12,183.94l30.57,7.27"/><path class="cls-2" d="M146.82,185l30.57,7.27c1.4.34,2-1.83.59-2.17l-30.56-7.27c-1.41-.33-2,1.83-.6,2.17Z"/><path class="cls-1" d="M107.56,174.44a55.32,55.32,0,0,1,25.74-3.69"/><path class="cls-2" d="M107.86,175.52a55.23,55.23,0,0,1,25.44-3.64c1.44.13,1.43-2.12,0-2.25a56.72,56.72,0,0,0-26,3.72c-1.33.53-.75,2.7.6,2.17Z"/><path class="cls-1" d="M107,185.23a38.91,38.91,0,0,0,23.47-6.47"/><path class="cls-2" d="M107,186.35a40.31,40.31,0,0,0,24-6.61c1.21-.8.08-2.75-1.13-2A38.28,38.28,0,0,1,107,184.1c-1.44-.06-1.44,2.19,0,2.25Z"/><path class="cls-1" d="M89,189.12l9-1.43"/><path class="cls-2" d="M89.25,190.21l9-1.44a1.13,1.13,0,0,0,.78-1.38,1.15,1.15,0,0,0-1.38-.79l-9,1.44a1.12,1.12,0,0,0-.78,1.38,1.15,1.15,0,0,0,1.38.79Z"/><path class="cls-1" d="M163.51,196.08l-15.73,34"/><path class="cls-2" d="M162.54,195.51l-15.74,34c-.6,1.31,1.34,2.45,1.95,1.14l15.73-34c.6-1.31-1.34-2.45-1.94-1.14Z"/><path class="cls-1" d="M152.92,238.14a83.19,83.19,0,0,1,28.85-10.26"/><path class="cls-2" d="M153.49,239.11A83.25,83.25,0,0,1,182.07,229c1.43-.23.82-2.4-.59-2.17a85.22,85.22,0,0,0-29.13,10.36,1.13,1.13,0,0,0,1.14,2Z"/><path class="cls-1" d="M170.24,230.9a14.17,14.17,0,0,1,9.39-10.05"/><path class="cls-2" d="M171.32,231.2a13.1,13.1,0,0,1,8.61-9.26c1.38-.44.79-2.61-.6-2.17a15.38,15.38,0,0,0-10.18,10.83c-.34,1.41,1.83,2,2.17.6Z"/><path class="cls-1" d="M14.13,281.2a185.09,185.09,0,0,0,79.74-12.84"/><path class="cls-2" d="M14.13,282.33a186.87,186.87,0,0,0,63-7q8.67-2.52,17.06-5.87c1.33-.53.75-2.7-.6-2.17a185,185,0,0,1-61.63,13q-8.91.31-17.81-.22c-1.44-.09-1.44,2.16,0,2.25Z"/><path class="cls-1" d="M48.28,339.89a142.72,142.72,0,0,1,37.43-33.21"/><path class="cls-2" d="M49.07,340.68a143.16,143.16,0,0,1,37.21-33c1.23-.76.1-2.7-1.14-1.94a144.84,144.84,0,0,0-37.66,33.38c-.89,1.13.69,2.73,1.59,1.59Z"/><path class="cls-1" d="M41.17,443.38c9.09,7.38,21.45,9.74,33.13,8.9s22.92-4.61,34-8.34"/><path class="cls-2" d="M40.38,444.17c14.64,11.75,34.54,10.65,51.68,6,5.59-1.5,11.08-3.34,16.56-5.19,1.37-.45.78-2.63-.59-2.16-17.06,5.72-35.56,11.8-53.49,6.27A37.76,37.76,0,0,1,42,442.58c-1.12-.9-2.72.69-1.59,1.59Z"/><path class="cls-1" d="M77,465.09A476.41,476.41,0,0,1,150,458"/><path class="cls-2" d="M77.27,466.17a477.83,477.83,0,0,1,56.45-6.44q8.11-.44,16.25-.59a1.13,1.13,0,0,0,0-2.25,481,481,0,0,0-57.24,4.58q-8,1.13-16,2.53c-1.43.25-.82,2.42.59,2.17Z"/><path class="cls-1" d="M38.45,469.93c9.35,3.31,18.8,6.64,28.64,7.9s20.25.3,28.91-4.55"/><path class="cls-2" d="M38.15,471c14.85,5.25,30.54,10.6,46.48,7.53a40.76,40.76,0,0,0,11.94-4.3c1.26-.7.13-2.64-1.14-1.94-13.57,7.5-29.73,5.18-43.9.85-4.3-1.32-8.55-2.81-12.78-4.31-1.37-.49-2,1.69-.6,2.17Z"/><path class="cls-1" d="M109.73,299.36c-2.21,7-.14,14.88,3.94,21s10,10.82,16,15.06,12.32,8.19,17.64,13.29"/><path class="cls-2" d="M108.65,299.06c-2.48,8.18.28,17,5.27,23.61,5.34,7.11,12.78,12.11,20,17.09a101.57,101.57,0,0,1,12.59,9.76c1,1,2.64-.59,1.59-1.59-6.37-6-14-10.48-21-15.71-6.62-4.94-13-11-15.77-19a21.93,21.93,0,0,1-.54-13.61,1.13,1.13,0,0,0-2.17-.6Z"/><path class="cls-1" d="M96.25,307.13a99.13,99.13,0,0,0,36,56.35"/><path class="cls-2" d="M95.16,307.43a99.89,99.89,0,0,0,36.49,57c1.15.88,2.27-1.07,1.14-1.95a98,98,0,0,1-31.16-41.66,96.45,96.45,0,0,1-4.3-14c-.32-1.41-2.49-.81-2.17.6Z"/><path class="cls-1" d="M93.07,316.06a100.87,100.87,0,0,0,26.69,63.45"/><path class="cls-2" d="M91.94,316.06a101.74,101.74,0,0,0,27,64.25c1,1.06,2.57-.53,1.59-1.59a100.21,100.21,0,0,1-24.41-47.4,98,98,0,0,1-2-15.26c-.07-1.44-2.32-1.45-2.25,0Z"/><path class="cls-1" d="M84.05,327.14a87.88,87.88,0,0,0,26.48,60.19"/><path class="cls-2" d="M82.92,327.14a89.27,89.27,0,0,0,17,49.65,88.36,88.36,0,0,0,9.82,11.34c1,1,2.63-.58,1.59-1.59a87.22,87.22,0,0,1-24.48-44.88,84.33,84.33,0,0,1-1.67-14.52c0-1.44-2.29-1.45-2.25,0Z"/><path class="cls-1" d="M98.05,233a89.45,89.45,0,0,1,13-25"/><path class="cls-2" d="M99.13,233.25A89.92,89.92,0,0,1,112,208.49c.86-1.17-1.1-2.29-2-1.14A92,92,0,0,0,97,232.65c-.46,1.38,1.71,2,2.17.6Z"/><path class="cls-1" d="M112.4,229.66a25.07,25.07,0,0,1,15.86-15.38"/><path class="cls-2" d="M113.48,230a24,24,0,0,1,15.08-14.59c1.38-.44.79-2.62-.59-2.17a26.32,26.32,0,0,0-16.65,16.16c-.49,1.37,1.68,2,2.16.6Z"/><path class="cls-1" d="M104.86,236A25,25,0,0,0,130,224.32"/><path class="cls-2" d="M104.56,237.1A26.2,26.2,0,0,0,131,224.89a1.12,1.12,0,0,0-1.94-1.13,23.9,23.9,0,0,1-23.91,11.17c-1.42-.23-2,1.94-.6,2.17Z"/><path class="cls-1" d="M128.79,241a28.55,28.55,0,0,0,10.47-16.43"/><path class="cls-2" d="M129.36,242a30,30,0,0,0,11-17.1c.32-1.41-1.85-2-2.17-.6A27.6,27.6,0,0,1,128.23,240a1.16,1.16,0,0,0-.41,1.54,1.14,1.14,0,0,0,1.54.4Z"/><path class="cls-1" d="M21.81,231.54A4.89,4.89,0,0,0,27.32,235"/><path class="cls-2" d="M20.73,231.84a6,6,0,0,0,6.89,4.25,1.13,1.13,0,0,0,.79-1.38,1.15,1.15,0,0,0-1.38-.79l-.23,0,.15,0H26.8l-.37,0a2.32,2.32,0,0,0-.45,0c.1,0,.22,0,0,0l-.19,0a3.45,3.45,0,0,1-.43-.12,1,1,0,0,1-.36-.12l.06,0-.06,0-.21-.1a3.35,3.35,0,0,1-.36-.21,2.54,2.54,0,0,0-.34-.23c.1,0,.15.12,0,0L24,233l-.29-.29-.15-.17s-.16-.2-.06-.06,0,0,0-.07l-.13-.18c-.07-.12-.14-.24-.2-.36s-.09-.15-.08-.17c.06.14.07.17,0,.09l0-.1c-.05-.14-.09-.29-.13-.43a1.13,1.13,0,1,0-2.17.6Z"/><path class="cls-3" d="M64.55,180.72c-4.78-1.93-10.61.89-13,5.46s-1.66,10.3.82,14.81,6.5,8,10.78,10.85c2.84,1.91,6,3.65,9.39,3.83,4.13.21,8.1-1.94,11-4.89s4.92-6.63,6.89-10.26A282.08,282.08,0,0,1,65.77,180"/><path class="cls-2" d="M64.85,179.64c-4.68-1.78-10,.32-13,4.13-3.54,4.5-3.42,10.87-1.27,15.95,2.27,5.35,6.71,9.39,11.4,12.63,4.92,3.41,10.45,5.81,16.34,3.39,6.43-2.65,10-8.84,13.16-14.65a1.16,1.16,0,0,0-.4-1.54,283.81,283.81,0,0,1-24.47-20.38c-1.06-1-2.66.6-1.59,1.59A288.78,288.78,0,0,0,89.9,201.49L89.5,200c-2.49,4.58-5.11,9.5-9.6,12.41A12.5,12.5,0,0,1,73,214.55a15.27,15.27,0,0,1-7.6-2.64c-4.26-2.59-8.43-5.87-11.17-10.1s-4-9.73-1.93-14.46c2-4.47,7.26-7.34,12-5.55,1.35.52,1.94-1.65.6-2.16Z"/><path class="cls-3" d="M44.78,208.84c-4.2,5.21-7.47,11.78-6.47,18.4s7.75,12.54,14.17,10.66a5.37,5.37,0,0,0,3.29-2.34c1-1.7.45-3.81-.14-5.68a101.9,101.9,0,0,0-9.76-21.79"/><path class="cls-2" d="M44,208c-3.31,4.15-6.08,8.92-6.8,14.26a15.41,15.41,0,0,0,4.2,13.19c3.06,3.07,7.7,4.87,11.94,3.31a5.75,5.75,0,0,0,4.1-5.19c.13-2.68-1.13-5.48-2-8a104.71,104.71,0,0,0-8.56-18.14,1.13,1.13,0,0,0-1.94,1.14A102.05,102.05,0,0,1,51.58,222c.93,2.27,1.78,4.58,2.55,6.91.67,2.06,2,5.16,0,6.91-3,2.69-7.89,1.07-10.54-1.27a13,13,0,0,1-4.33-10.78c.32-5.23,3.08-10.08,6.28-14.1.9-1.12-.68-2.72-1.59-1.59Z"/></g></g></g></svg>