<svg xmlns="http://www.w3.org/2000/svg" viewBox="0 0 199.74 506.92"><defs><style>.cls-1{fill:#d9d80c;}.cls-2{fill:#080752;}.cls-3{fill:#4eab9e;}</style></defs><title>Asset 16</title><g id="Layer_2" data-name="Layer 2"><g id="Fingers"><path class="cls-1" d="M74.86,488.32c4-9.8,2.1-21.15-2.3-30.76s-11.11-18-17.17-26.62c-31.12-44.49-45.8-98.55-52.9-152.37C1.25,269.17.39,259,5.33,250.86s18.12-11.42,23.8-3.84c1.2-11.52-3.24-22.81-4.86-34.28s.79-25.22,11-30.67c7.49-4,17-2.06,24.1,2.62s8.54,11.36,13.53,18.23c9.91-24.76,2.43-108.21-.77-169.67-.49-9.45-.07-20.07,6.63-26.76a18,18,0,0,1,21.29-2.67,18,18,0,0,1,7.85,20c2.45-10.09,17.75-11.46,25.45-4.5S143,37.37,144.57,47.64L155,117.93l19.23,129.18c5.32,35.7,10.64,71.43,13.89,107.38,1.49,16.52,2.55,33.08,3.61,49.63l6.47,101.36"/><path class="cls-2" d="M76.31,488.72c7.07-18.17-3.66-36.25-14-50.64-11.05-15.41-20.86-31.31-28.71-48.6-15.79-34.72-24.49-72.37-29.53-110-1.25-9.38-2.95-21.6,3.72-29.46,4.81-5.66,15-8.46,20.25-1.89.89,1.13,2.46.08,2.56-1.06,1.45-15.91-7.35-31-4.9-46.85.95-6.13,3.53-12.42,8.89-16,6.62-4.38,15.31-3.14,22,.53,7.69,4.24,10.22,12.15,15.05,18.94a1.52,1.52,0,0,0,2.74-.36c3.73-9.48,4.19-20.43,4.65-30.48.71-15.42.32-30.89-.25-46.31C78.08,108.68,77,90.84,76,73q-.8-13.14-1.57-26.27c-.48-8.39-1.58-17.08-.5-25.46C75.15,11.47,81.27,2.54,92.11,3c10.17.44,17,10.78,14.35,20.39a1.5,1.5,0,0,0,2.9.79c1.43-5.3,6.69-7.68,11.85-7.72a17.22,17.22,0,0,1,14.54,7.79c3.94,5.63,5.52,12.56,6.66,19.23,1.43,8.42,2.55,16.89,3.81,25.34L162,174.54c5.23,35.13,10.59,70.25,15.64,105.41,5.07,35.32,9.11,70.69,11.51,106.29,2.37,35.27,4.52,70.55,6.78,105.82l.85,13.42c.12,1.91,3.13,1.93,3,0q-3.53-55.16-7-110.3t-11.3-109.64c-5.15-36.48-10.75-72.9-16.18-109.34L148.81,66.05c-1.27-8.54-2.31-17.16-3.92-25.64-1.26-6.59-3.19-13.31-7.32-18.72a19.92,19.92,0,0,0-13.78-8.07c-4.79-.56-10,.47-13.71,3.76a12.23,12.23,0,0,0-3.62,6l2.9.79A19.68,19.68,0,0,0,102,3.29C95.43-1.38,86-1,79.58,3.82c-7,5.23-8.85,14.35-9.07,22.59-.23,9.05.74,18.22,1.28,27.25,2.15,36.34,5.11,72.8,4.52,109.22-.13,7.73-.43,15.46-1.29,23.14-.63,5.56-1.49,11.26-3.56,16.5l2.75-.36c-4.51-6.34-7.09-13.95-13.72-18.53-6.41-4.42-15.14-6.68-22.71-4.23C23.72,184,21,200.89,22.89,213.61c1.64,11.16,5.78,22,4.74,33.41L30.19,246c-4.21-5.3-11.53-5.64-17.41-3.16-7.37,3.11-11.21,10-12.32,17.71-1.34,9.24.55,18.82,1.92,27.95,1.46,9.81,3.18,19.57,5.23,29.27,8.09,38.34,21.33,76.09,43.06,108.93,11.66,17.62,31.7,38.25,22.74,61.26-.7,1.8,2.2,2.58,2.9.8Z"/><path class="cls-2" d="M95.44,457.69l29.4-.1,14.45,0a128.64,128.64,0,0,0,12.88-.27c4.15-.43,8.24-1.58,11.28-4.59a1.5,1.5,0,0,0-2.12-2.12c-2.5,2.47-5.94,3.4-9.35,3.73-4.12.4-8.31.24-12.44.25l-28.15.09-16,.06a1.5,1.5,0,0,0,0,3Z"/><path class="cls-2" d="M101.48,477.25c1-3.52,3.89-6,7.21-7.24,4.24-1.62,8.84-1.29,13.24-.59,4.77.76,9.46,1.76,14.29,2a64.41,64.41,0,0,0,29.11-5.49c1.77-.77.24-3.36-1.51-2.59a61.66,61.66,0,0,1-28.49,5c-9.32-.57-19.19-4.75-28.29-.89-4,1.69-7.31,4.75-8.46,9a1.5,1.5,0,0,0,2.9.79Z"/><path class="cls-2" d="M4,281.84,26.27,310c7.34,9.27,14.49,18.73,22,27.82,5.36,6.45,13.95,13.75,22.7,8.77a16.24,16.24,0,0,0,7.29-10.05c1.2-4.66.31-9.55-1.54-13.91a50.19,50.19,0,0,0-9.32-13.85,45.3,45.3,0,0,0-13.19-10.23c-1.73-.86-3.25,1.73-1.52,2.59,8.21,4.09,15,11.28,19.55,19.2,2.3,4,4,8.69,3.51,13.39a13.91,13.91,0,0,1-5.3,9.63c-7.78,5.61-15.88-2.52-20.55-8.26-6.94-8.52-13.65-17.23-20.46-25.85L6.13,279.72c-1.2-1.51-3.31.62-2.12,2.12Z"/><path class="cls-2" d="M117.54,325.25c-2.85-9.22-11.42-15.07-20.27-17.81a98,98,0,0,0-16.73-3.12,167.7,167.7,0,0,1-17.23-3,144.18,144.18,0,0,1-16.51-4.92,94.31,94.31,0,0,1-15-6.65c-4.38-2.54-8.42-5.84-10.83-10.37-2.16-4.07-2.95-9.12-1-13.42,3.48-7.54,12.91-9.9,20.44-10.7a150.09,150.09,0,0,1,29.29.18,183.22,183.22,0,0,1,57.42,14.94,180.89,180.89,0,0,1,49.92,32.76c1.77,1.64,3.5,3.33,5.2,5,1.36,1.38,3.48-.75,2.12-2.12a182.37,182.37,0,0,0-49.89-35.56,188.38,188.38,0,0,0-58.37-17.37,176.85,176.85,0,0,0-30.52-1.23c-8.37.39-17.84,1.57-24.34,7.41a16.26,16.26,0,0,0-5.41,11.38,21.2,21.2,0,0,0,4.88,13.78c3.28,4.14,7.83,7.12,12.51,9.46a123.42,123.42,0,0,0,15.82,6.45A145.88,145.88,0,0,0,66.15,305c5.77,1.2,11.6,1.89,17.44,2.69,10.1,1.37,21.24,3.74,27.87,12.24a19,19,0,0,1,3.19,6.09c.57,1.84,3.47,1.05,2.89-.8Z"/><path class="cls-2" d="M106.43,21.76l3.95,62.87,4,62.87,2.23,35.43c.12,1.92,3.12,1.93,3,0l-4-62.87-4-62.88-2.23-35.42c-.12-1.92-3.12-1.93-3,0Z"/><path class="cls-2" d="M114.43,337.61c6.38,13.05,20.45,21.46,34.82,22a37.25,37.25,0,0,0,12.06-1.51c1.85-.55,1.06-3.44-.8-2.89-12.91,3.85-27.46-.4-36.9-9.87A34.79,34.79,0,0,1,117,336.1c-.84-1.73-3.43-.22-2.59,1.51Z"/><path class="cls-2" d="M112.39,352.92a100.21,100.21,0,0,0,49.48,15.28c1.93.07,1.93-2.93,0-3a97.09,97.09,0,0,1-48-14.87c-1.64-1-3.15,1.56-1.52,2.59Z"/><path class="cls-2" d="M103.24,356.46A50.57,50.57,0,0,0,118.13,382a50.12,50.12,0,0,0,46.55,11.41,1.5,1.5,0,0,0-.8-2.89,47.79,47.79,0,0,1-30.1-2,46.64,46.64,0,0,1-21.52-18.2,47.42,47.42,0,0,1-6.13-14.62c-.44-1.88-3.33-1.09-2.89.79Z"/><path class="cls-2" d="M118.08,364.63a43.23,43.23,0,0,0,35.15,17.19A40.68,40.68,0,0,0,164.56,380c1.83-.57,1.05-3.47-.8-2.9a40.26,40.26,0,0,1-35.57-6.45,36.36,36.36,0,0,1-7.51-7.56c-1.14-1.54-3.74,0-2.6,1.51Z"/><path class="cls-2" d="M127.12,335.18a40,40,0,0,0,32.33,12.27c1.91-.17,1.92-3.18,0-3a37.15,37.15,0,0,1-30.21-11.39c-1.32-1.4-3.44.72-2.12,2.12Z"/><path class="cls-2" d="M93.24,360.41c.9,20.9,12.14,40.64,29.06,52.78a64.61,64.61,0,0,0,15.52,8.2c1.81.67,2.59-2.23.79-2.89-18.64-6.85-33.38-22.94-39.43-41.77a62.09,62.09,0,0,1-2.94-16.32c-.08-1.92-3.08-1.94-3,0Z"/><path class="cls-2" d="M84.51,315.52A183.32,183.32,0,0,0,71.2,396.85c.13,1.91,3.13,1.93,3,0a181.58,181.58,0,0,1,7.19-63.55q2.58-8.64,6-17c.73-1.79-2.17-2.56-2.89-.8Z"/><path class="cls-2" d="M90.18,320.17a175.13,175.13,0,0,0-1,62.64,170.61,170.61,0,0,0,3.86,17.47,1.5,1.5,0,0,0,2.89-.8,171.91,171.91,0,0,1-5.42-61.2A167.8,167.8,0,0,1,93.07,321c.37-1.89-2.52-2.7-2.89-.8Z"/><path class="cls-2" d="M14.29,316.23a14.76,14.76,0,0,1,10.23-2.16A1.54,1.54,0,0,0,26.36,313a1.5,1.5,0,0,0-1.05-1.84,17.9,17.9,0,0,0-12.53,2.46,1.5,1.5,0,0,0,1.51,2.59Z"/><path class="cls-2" d="M8,295.23l7.29,4a1.5,1.5,0,1,0,1.52-2.59l-7.29-4.05A1.5,1.5,0,1,0,8,295.23Z"/><path class="cls-2" d="M139.25,221.42a68.71,68.71,0,0,1-12,48.42c-1.12,1.58,1.48,3.08,2.59,1.52a71.74,71.74,0,0,0,12.3-50.73,1.51,1.51,0,0,0-1.85-1,1.53,1.53,0,0,0-1,1.84Z"/><path class="cls-2" d="M154.14,232.81a157.22,157.22,0,0,1-15.47,40.1c-.94,1.69,1.65,3.21,2.59,1.51A159.82,159.82,0,0,0,157,233.61c.45-1.88-2.45-2.68-2.89-.8Z"/><path class="cls-2" d="M83.76,125.35c4.17-6.18,14.08-7.19,19.47-2.09,1.4,1.33,3.52-.79,2.12-2.12-6.85-6.49-18.92-5.1-24.18,2.69-1.09,1.61,1.51,3.11,2.59,1.52Z"/><path class="cls-2" d="M82.55,131.48a27.25,27.25,0,0,0,24.21,1c1.76-.78.23-3.37-1.52-2.59a24.05,24.05,0,0,1-21.18-1c-1.69-.94-3.2,1.65-1.51,2.59Z"/><path class="cls-2" d="M82.46,67.72a63.86,63.86,0,0,0,21.41-1.86c1.86-.48,1.07-3.38-.8-2.89a61.42,61.42,0,0,1-20.61,1.75c-1.93-.16-1.92,2.84,0,3Z"/><path class="cls-2" d="M117.3,72.68A81.16,81.16,0,0,1,141.24,74c1.89.39,2.69-2.5.8-2.9a84.2,84.2,0,0,0-24.74-1.43c-1.9.17-1.92,3.17,0,3Z"/><path class="cls-2" d="M122.88,121a33.35,33.35,0,0,1,24-3c1.87.47,2.67-2.42.8-2.9a36.56,36.56,0,0,0-26.3,3.3c-1.7.92-.19,3.51,1.51,2.59Z"/><path class="cls-2" d="M125.08,125.75a34.56,34.56,0,0,0,23-2.14c1.75-.81.23-3.4-1.51-2.59a31.29,31.29,0,0,1-20.73,1.84c-1.87-.48-2.67,2.41-.79,2.89Z"/><path class="cls-2" d="M85.69,182.69a32.91,32.91,0,0,1,14.59-4.07c1.92-.08,1.93-3.08,0-3a36.18,36.18,0,0,0-16.1,4.48c-1.69.93-.18,3.53,1.51,2.59Z"/><path class="cls-2" d="M92.57,191.44a22.46,22.46,0,0,1,14.19-5.11,1.5,1.5,0,0,0,0-3,25.74,25.74,0,0,0-16.31,6,1.5,1.5,0,0,0,0,2.12,1.53,1.53,0,0,0,2.12,0Z"/><path class="cls-2" d="M128.63,179.38l11.35-.75a1.54,1.54,0,0,0,1.5-1.5,1.5,1.5,0,0,0-1.5-1.5l-11.35.75a1.5,1.5,0,0,0,0,3Z"/><path class="cls-2" d="M134.31,189.29a67.23,67.23,0,0,0,23.09-1.68c1.87-.46,1.08-3.36-.8-2.89a64.82,64.82,0,0,1-22.29,1.57c-1.91-.2-1.9,2.8,0,3Z"/><path class="cls-3" d="M55.58,260.08c-6.6,1.07-13.3-.85-20-1s-14.39,2.48-16.54,8.82c-1.5,4.43.31,9.48,3.51,12.9s7.58,5.47,12,7.11c5.38,2,11.64,3.44,16.69.7,5.84-3.18,7.71-10.52,9-17,.67-3.43-.85-11.24-4.31-11.68"/><path class="cls-2" d="M55.18,258.63c-9.49,1.44-19.07-3-28.4.37-3.51,1.28-6.84,3.52-8.52,6.95a13.41,13.41,0,0,0,.52,12.11c2.12,4.12,5.95,7,10,9.06a42.36,42.36,0,0,0,13.35,4.35c4.45.56,8.93-.32,12.36-3.34,2.93-2.59,4.59-6.36,5.7-10s2-7.58,1.37-11.54c-.47-2.92-1.82-7.49-5.28-8.08-1.89-.32-2.7,2.57-.8,2.9,2.2.37,2.86,4.06,3.16,5.83.48,2.88-.15,5.56-.87,8.35-.83,3.26-2,6.69-4.22,9.26a11.77,11.77,0,0,1-9.95,3.81,35.18,35.18,0,0,1-11.81-3.38c-3.62-1.62-7.29-3.8-9.55-7.17-2.06-3.07-3.09-7.13-1.42-10.61a11.79,11.79,0,0,1,7-5.68c4.07-1.4,8.26-1.29,12.48-.85,5.22.55,10.36,1.39,15.61.59,1.9-.28,1.09-3.17-.8-2.89Z"/><path class="cls-3" d="M67.91,319.92c-3.65-.78-3-2.53-5.69-5.1s-6.61-4.82-10-3.28c-3.88,1.75-4.37,7.09-3.48,11.25a33.82,33.82,0,0,0,7.92,15.54c2.86,3.18,7,6,11.15,4.93,4.58-1.14,6.92-6.65,6.2-11.32s-3.66-8.64-6.51-12.41"/><path class="cls-2" d="M68.31,318.47a3.83,3.83,0,0,1-2.65-1.69A17.2,17.2,0,0,0,63,313.49c-2.44-2.23-5.73-4.27-9.18-3.9-6.7.72-7.65,8.5-6.49,13.8,1.5,6.91,5.31,14.1,10.94,18.51,2.71,2.12,6,3.58,9.54,2.89a9.47,9.47,0,0,0,6.45-5.26c3.67-7.52-1-14.82-5.48-20.76-1.15-1.52-3.75,0-2.59,1.52,3.29,4.35,7.51,9.74,6.2,15.58a7.94,7.94,0,0,1-3.84,5.53c-2.63,1.31-5.56.2-7.79-1.37-4.93-3.43-8.3-9.55-10-15.2-1.06-3.61-2.3-11.51,3.22-12.27,3-.41,6.4,2.16,8.16,4.4.65.84,1.12,1.81,1.85,2.59a6.71,6.71,0,0,0,3.49,1.82c1.88.44,2.68-2.46.8-2.9Z"/><path class="cls-2" d="M116.53,326c-2.86-9.23-11.43-15.07-20.28-17.81a97.75,97.75,0,0,0-16.72-3.12,172.31,172.31,0,0,1-17.23-3,143.58,143.58,0,0,1-16.51-4.92,93.17,93.17,0,0,1-15-6.66C26.4,288,22.37,284.71,20,280.18c-2.17-4.08-3-9.12-1-13.42,3.49-7.55,12.92-9.9,20.44-10.7a150.19,150.19,0,0,1,29.3.18,183.16,183.16,0,0,1,57.41,14.94,180.94,180.94,0,0,1,49.92,32.75q2.66,2.47,5.2,5.05a1.5,1.5,0,0,0,2.13-2.12A182.31,182.31,0,0,0,133.5,271.3a188.19,188.19,0,0,0-58.37-17.37,176.93,176.93,0,0,0-30.52-1.23c-8.38.39-17.84,1.56-24.35,7.41a16.27,16.27,0,0,0-5.4,11.38,21.25,21.25,0,0,0,4.87,13.78c3.28,4.14,7.84,7.12,12.51,9.46a125.62,125.62,0,0,0,15.83,6.45,145.88,145.88,0,0,0,17.07,4.64c5.77,1.19,11.6,1.89,17.44,2.69,10.09,1.37,21.23,3.74,27.87,12.23a19.35,19.35,0,0,1,3.19,6.1c.57,1.83,3.46,1.05,2.89-.8Z"/><path class="cls-2" d="M59.57,187.62c7.25,6.71,9.65,16.61,11.11,26,1.36,8.74,2.51,17.54,3.24,26.36a122,122,0,0,1,.49,13.92c-.06,1.93,2.94,1.93,3,0,.29-8.84-.73-17.73-1.82-26.48q-.82-6.6-1.8-13.18a74.66,74.66,0,0,0-3.66-15.67,34,34,0,0,0-8.44-13.09c-1.42-1.31-3.54.8-2.12,2.12Z"/><path class="cls-2" d="M113.49,274.12c2,9.47-4.45,17.85-9.95,24.81-1.18,1.49.93,3.63,2.13,2.12,6.25-7.91,13-17,10.72-27.73-.4-1.88-3.29-1.08-2.9.8Z"/><path class="cls-2" d="M120.4,276c2.11,10.08-4.71,19-10.47,26.52a1.51,1.51,0,0,0,.54,2.05,1.53,1.53,0,0,0,2-.54c6.36-8.26,13.08-17.81,10.77-28.83-.39-1.89-3.28-1.09-2.89.8Z"/></g></g></svg>