<svg xmlns="http://www.w3.org/2000/svg" viewBox="0 0 463.64 349.42"><defs><style>.cls-1{fill:#d9d80c;}.cls-2{fill:#080752;}.cls-3{fill:#f0e8d9;}.cls-4{fill:#4eab9e;}</style></defs><title>Asset 13</title><g id="Layer_2" data-name="Layer 2"><g id="Money"><g id="Bills_-_Green" data-name="Bills - Green"><path class="cls-1" d="M7.93,237.12c-2.49,4.46-5,9-6,14s-.19,10.64,3.29,14.37c2.92,3.12,7.2,4.47,11.28,5.71l102.56,31,146.72,44.31c3.58,1.08,7.46,2.16,11,.88,6.1-2.22,7.73-9.94,8.43-16.4.86-8,1.65-16.43-1.73-23.71-4-8.65-13-13.71-21.37-18.21C203.51,257.65,144.19,226,79.76,209.61,65.46,206,50.33,203.14,36.08,207S8.86,223.1,9,237.85"/><path class="cls-2" d="M6.63,236.36C2,244.73-3.45,255.9,2.88,265c2.78,4,7.27,5.84,11.75,7.25,5.78,1.81,11.61,3.51,17.41,5.26l71,21.44,70.87,21.4,70.93,21.42,17.86,5.4c5.06,1.52,10.74,3.68,15.84,1.12,7.81-3.93,8.17-15.44,8.72-22.94.39-5.32.36-10.83-1.34-15.94a27.67,27.67,0,0,0-7.76-11.61,62.68,62.68,0,0,0-11.83-8.12c-4.8-2.67-9.69-5.22-14.54-7.81-20.2-10.8-40.47-21.48-61.08-31.48s-41.53-19.27-63-27.23c-10.68-4-21.49-7.6-32.43-10.8-11.12-3.26-22.42-6.43-33.93-7.93-10.7-1.39-22-1.07-32,3.41-8,3.58-15.23,9.83-19,17.8a28.38,28.38,0,0,0-2.86,12.26,1.5,1.5,0,0,0,3,0c0-8.63,4.68-16.28,11.15-21.72,7.52-6.32,17-9.1,26.76-9.45,11.29-.4,22.42,2.14,33.28,5,10.61,2.75,21.12,5.93,31.5,9.46A618.49,618.49,0,0,1,174.5,246c20,9.26,39.61,19.3,59.09,29.58q14.47,7.65,28.9,15.41c7.85,4.24,16.69,9.29,20.11,18.05,1.93,4.94,2,10.32,1.69,15.54a64,64,0,0,1-1.81,13.15c-1,3.7-3,7.53-7.08,8.51-2.64.65-5.44-.07-8-.8-2.86-.83-5.7-1.72-8.54-2.58l-68.22-20.6-68.49-20.68L54.16,281l-34-10.27c-4.54-1.37-9.86-2.43-13.39-5.83-3.31-3.19-4.17-8.14-3.52-12.54.77-5.23,3.45-9.94,6-14.49.94-1.69-1.65-3.21-2.59-1.52Z"/><path class="cls-3" d="M136.9,293.72c3.44,5.76,7.82,11.19,13.71,14.41s13.51,3.84,19.2.28c.92-.58,1.88-1.64,1.4-2.61a2.39,2.39,0,0,0-1.21-1,125.52,125.52,0,0,0-32.83-10.48"/><path class="cls-4" d="M26.27,266.33a14.67,14.67,0,0,0,4,1,2.4,2.4,0,0,0,1.64-.3,2.62,2.62,0,0,0,1.18-1.83c.16-1.52-1.31-2.25-2.42-2.89A3.6,3.6,0,0,1,29,260.83a2.51,2.51,0,0,1,.71-2.79,4,4,0,0,1,3.46-.74,7.9,7.9,0,0,1,2.43,1,.15.15,0,0,0,.15-.26,6.58,6.58,0,0,0-4.59-1,3.14,3.14,0,0,0-2.62,3.3c.2,1.56,1.81,2.12,3,2.86a2.16,2.16,0,0,1,1.24,2.11,2.19,2.19,0,0,1-1.81,1.78,7.57,7.57,0,0,1-2.45-.35,17.49,17.49,0,0,1-2.13-.66c-.18-.07-.26.22-.08.29Z"/><path class="cls-4" d="M29.05,270.89l5.62-17.14c.06-.18-.23-.26-.29-.08l-5.62,17.14c-.06.18.23.26.29.08Z"/><path class="cls-4" d="M27.38,270.32l4.82-15.93a.15.15,0,0,0-.29-.08l-4.82,15.93c-.06.18.23.26.29.08Z"/><path class="cls-4" d="M8.39,260.27a15.15,15.15,0,0,0,4,1A2.45,2.45,0,0,0,14,261a2.62,2.62,0,0,0,1.18-1.83c.16-1.52-1.31-2.26-2.41-2.89a3.68,3.68,0,0,1-1.64-1.48,2.54,2.54,0,0,1,.71-2.8,4,4,0,0,1,3.46-.73,7.9,7.9,0,0,1,2.43,1c.17.09.32-.17.15-.26a6.52,6.52,0,0,0-4.58-1,3.13,3.13,0,0,0-2.62,3.3c.2,1.56,1.8,2.12,2.95,2.86a2.15,2.15,0,0,1,1.24,2.11A2.19,2.19,0,0,1,13.05,261a7.85,7.85,0,0,1-2.45-.35A17.49,17.49,0,0,1,8.47,260c-.18-.07-.26.22-.08.29Z"/><path class="cls-4" d="M11.17,264.83l5.62-17.14a.15.15,0,0,0-.29-.08l-5.61,17.14c-.06.18.22.26.28.08Z"/><path class="cls-4" d="M9.5,264.25l4.83-15.93a.15.15,0,0,0-.29-.08L9.21,264.17a.15.15,0,0,0,.29.08Z"/><path class="cls-4" d="M17.33,263.3a14.67,14.67,0,0,0,4,1,2.39,2.39,0,0,0,1.64-.3,2.62,2.62,0,0,0,1.18-1.83c.16-1.52-1.31-2.25-2.42-2.89a3.66,3.66,0,0,1-1.63-1.48,2.52,2.52,0,0,1,.71-2.79,4,4,0,0,1,3.46-.74,7.9,7.9,0,0,1,2.43,1,.15.15,0,0,0,.15-.26,6.52,6.52,0,0,0-4.58-1,3.14,3.14,0,0,0-2.63,3.3c.2,1.56,1.81,2.12,3,2.86a2.15,2.15,0,0,1,1.24,2.11A2.19,2.19,0,0,1,22,264a7.85,7.85,0,0,1-2.45-.35,17.49,17.49,0,0,1-2.13-.66c-.18-.07-.26.22-.08.29Z"/><path class="cls-4" d="M20.11,267.86l5.62-17.14c.06-.19-.23-.26-.29-.08l-5.62,17.14c-.06.18.23.26.29.08Z"/><path class="cls-4" d="M18.44,267.29l4.82-15.94c.06-.18-.23-.26-.29-.08l-4.82,15.94c-.06.18.23.26.29.08Z"/><path class="cls-1" d="M22.67,186.84A262.26,262.26,0,0,0,4.25,233.62c-1.19,4.14-2.12,9.06.64,12.37,1.59,1.91,4.08,2.79,6.44,3.59L272.88,338l14.66-27.56c1.29-2.43,2.62-5,2.37-7.78-.41-4.55-4.86-7.5-8.86-9.73-60.42-33.72-124-61.29-187.53-88.8-22.41-9.72-46.06-19.64-70.38-17.26"/><path class="cls-2" d="M21.37,186.09A268.53,268.53,0,0,0,8.24,216.41q-2.78,7.68-5.06,15.52C2,236.14.62,241,2.59,245.15c2.08,4.41,7.39,5.56,11.59,7l16.75,5.66,33.5,11.32,66.47,22.46,66.74,22.55,66.74,22.55,8.11,2.74a1.51,1.51,0,0,0,1.69-.69l8.26-15.54c2.63-4.95,5.66-9.85,7.86-15,1.89-4.45,1.21-8.8-2.27-12.21s-7.91-5.32-12-7.55c-19.67-10.82-39.68-21-59.89-30.78S175.53,238.49,155,229.35s-41.11-18.07-61.72-27c-19.73-8.54-40.38-17.27-62.25-17.4q-4,0-7.91.36c-1.9.18-1.92,3.18,0,3,21.51-2,42.29,5.45,61.78,13.68C105,210.5,125,219.33,145,228.16s39.84,17.83,59.55,27.2,39.38,19.17,58.69,29.5q7.13,3.81,14.19,7.72c3.6,2,8.27,4,10.29,7.83,1.19,2.24.71,4.68-.29,6.89-1.13,2.51-2.55,4.91-3.84,7.34l-8,15-4,7.51,1.69-.69-65.11-22-65.12-22L77.66,270.41l-65.12-22c-2.13-.72-4.51-1.37-6.15-3s-1.9-3.81-1.77-5.95a30.5,30.5,0,0,1,1.45-6.73c.78-2.66,1.59-5.3,2.45-7.93a259.7,259.7,0,0,1,11.91-30c1.14-2.43,2.32-4.83,3.53-7.22.88-1.72-1.71-3.24-2.59-1.51Z"/><path class="cls-3" d="M125.94,262.24c.91,11.65,9.07,22,19.43,27.37S168,296,179.53,294.34c2.38-.33,5.4-1.57,5.14-4-.15-1.32-1.3-2.26-2.37-3a172,172,0,0,0-55.87-26.72"/><path class="cls-4" d="M26.45,246.22a15,15,0,0,0,4,.9,2.36,2.36,0,0,0,1.71-.43,2.61,2.61,0,0,0,1-1.79c.11-1.51-1.38-2.21-2.49-2.81A3.5,3.5,0,0,1,29,240.55a2.55,2.55,0,0,1,.68-2.71,4,4,0,0,1,3.43-.82,7.68,7.68,0,0,1,2.46.91c.17.09.33-.17.16-.26a6.61,6.61,0,0,0-4.54-.92,3.15,3.15,0,0,0-2.62,3.38c.24,1.51,1.78,2.05,2.93,2.73a2.31,2.31,0,0,1,1.41,1.9,2.17,2.17,0,0,1-1.74,2.05,7.47,7.47,0,0,1-2.44-.26,18.94,18.94,0,0,1-2.2-.62c-.18-.07-.26.22-.08.29Z"/><path class="cls-4" d="M29.36,250.71l5.16-17.28a.15.15,0,1,0-.28-.08l-5.17,17.28c-.06.18.23.26.29.08Z"/><path class="cls-4" d="M27.67,250.18l4.41-16.05a.15.15,0,0,0-.29-.08l-4.41,16a.15.15,0,0,0,.29.08Z"/><path class="cls-4" d="M8.42,240.62a14.64,14.64,0,0,0,4,.9,2.27,2.27,0,0,0,1.71-.43,2.53,2.53,0,0,0,1-1.79c.11-1.51-1.38-2.2-2.49-2.81A3.41,3.41,0,0,1,11,235a2.54,2.54,0,0,1,.68-2.7,4,4,0,0,1,3.43-.83,7.92,7.92,0,0,1,2.46.91c.18.09.33-.17.16-.26a6.59,6.59,0,0,0-4.54-.91,3.14,3.14,0,0,0-2.62,3.37c.24,1.51,1.78,2.06,2.93,2.73a2.3,2.3,0,0,1,1.41,1.9,2.18,2.18,0,0,1-1.73,2.06A7.51,7.51,0,0,1,10.7,241a17.15,17.15,0,0,1-2.2-.62c-.18-.06-.26.23-.08.29Z"/><path class="cls-4" d="M11.33,245.11l5.17-17.28a.15.15,0,0,0-.29-.08L11,245a.15.15,0,0,0,.29.08Z"/><path class="cls-4" d="M9.64,244.58l4.41-16.05a.15.15,0,0,0-.29-.08L9.35,244.5a.15.15,0,0,0,.29.08Z"/><path class="cls-4" d="M17.44,243.42a14.57,14.57,0,0,0,4,.9,2.38,2.38,0,0,0,1.72-.43,2.54,2.54,0,0,0,1-1.79c.11-1.51-1.37-2.2-2.49-2.81A3.48,3.48,0,0,1,20,237.75a2.54,2.54,0,0,1,.68-2.71,4,4,0,0,1,3.43-.82,7.77,7.77,0,0,1,2.46.91c.17.09.32-.17.15-.26a6.65,6.65,0,0,0-4.54-.92,3.14,3.14,0,0,0-2.61,3.38c.23,1.51,1.78,2,2.93,2.73A2.33,2.33,0,0,1,23.9,242,2.2,2.2,0,0,1,22.16,244a7.48,7.48,0,0,1-2.44-.27,16.7,16.7,0,0,1-2.2-.62c-.18-.06-.26.23-.08.29Z"/><path class="cls-4" d="M20.34,247.91l5.17-17.28c.06-.18-.23-.26-.29-.08l-5.17,17.28a.15.15,0,0,0,.29.08Z"/><path class="cls-4" d="M18.65,247.38l4.41-16a.15.15,0,0,0-.29-.08L18.36,247.3a.15.15,0,0,0,.29.08Z"/><path class="cls-1" d="M48.63,145.35c-16.45,8.46-23.41,27.89-28.93,45.54-.84,2.68-1.68,5.57-.8,8.23,1.08,3.25,4.34,5.16,7.36,6.77L261.05,331.75c4.73-4.85,9.51-9.77,12.83-15.67s5.07-13,3.28-19.53c-1.87-6.82-7.21-12.05-12.5-16.74a305.86,305.86,0,0,0-71.81-47.49c-21.72-10.3-44.6-18-66.38-28.22s-42.82-23.26-57.83-42c-5.76-7.2-11.37-15.74-20.32-18"/><path class="cls-2" d="M47.87,144.06c-16,8.32-23.11,26.27-28.36,42.47-1.45,4.49-3.84,9.81-1.47,14.38,2.22,4.28,7.55,6.33,11.56,8.47l31.85,17.08,63.7,34.14,63.7,34.15,63.71,34.15,7.73,4.15a1.54,1.54,0,0,0,1.82-.24c7.28-7.47,15-15.61,16.86-26.3A23.34,23.34,0,0,0,277,292c-2.19-4.41-5.66-8.08-9.24-11.39a293.62,293.62,0,0,0-52.17-38c-19.61-11.34-40.5-19.76-61.45-28.23-19.93-8.06-39.87-16.57-57.64-28.84a129.43,129.43,0,0,1-22.91-19.92c-6.09-6.81-10.9-15.43-18.83-20.35a21.92,21.92,0,0,0-6-2.58,1.5,1.5,0,0,0-.79,2.9c8.78,2.27,14.1,10.59,19.42,17.27a121.28,121.28,0,0,0,21,20.46c16.4,12.65,35.18,21.59,54.2,29.54,20.69,8.66,41.77,16.36,61.63,26.89A304.4,304.4,0,0,1,257,275.17c3.83,3.21,7.69,6.44,11.2,10s6.44,7.42,7.64,12.19c2.61,10.44-3.87,20.37-10.54,27.75-1.72,1.9-3.51,3.74-5.3,5.57l1.82-.23L199.47,297l-62.34-33.42L75,230.33,43.85,213.62l-15.47-8.29c-4-2.16-8.94-4.47-8.28-9.85a40.5,40.5,0,0,1,2-7.24c.66-2.07,1.34-4.12,2.06-6.17a120.32,120.32,0,0,1,4.95-12.26c3.57-7.5,8.26-14.77,15-19.83a36.94,36.94,0,0,1,5.31-3.33c1.71-.89.2-3.48-1.52-2.59Z"/><path class="cls-3" d="M141.31,250.6A34,34,0,0,0,163,276.81a7.54,7.54,0,0,0,3.87.58,3,3,0,0,0,2.6-2.59c.06-1.26-.9-2.31-1.8-3.19a322.63,322.63,0,0,0-26.39-23.18"/><path class="cls-4" d="M40.05,203.89a15.35,15.35,0,0,0,3.72,1.61,2.51,2.51,0,0,0,1.58,0,2.67,2.67,0,0,0,1.51-1.44c.57-1.43-.62-2.48-1.62-3.28a4.62,4.62,0,0,1-1.53-1.67,2.43,2.43,0,0,1,.82-2.71,3.84,3.84,0,0,1,3.6-.41,7.77,7.77,0,0,1,2.41,1.4c.15.12.36-.09.21-.21a6.53,6.53,0,0,0-4.32-1.74,3.12,3.12,0,0,0-3.17,2.91c0,1.52,1.44,2.31,2.45,3.2a2,2,0,0,1-1.08,3.78,7.44,7.44,0,0,1-2.46-.74,18.06,18.06,0,0,1-2-1,.15.15,0,0,0-.15.26Z"/><path class="cls-4" d="M42.09,208.85l8.24-16c.09-.17-.17-.32-.26-.15l-8.24,16c-.09.17.17.32.26.15Z"/><path class="cls-4" d="M40.52,208l7.28-15c.08-.17-.18-.33-.26-.15l-7.28,15c-.08.17.18.33.26.15Z"/><path class="cls-4" d="M23.35,195.09a15.32,15.32,0,0,0,3.72,1.6,2.51,2.51,0,0,0,1.58,0,2.63,2.63,0,0,0,1.51-1.45c.57-1.43-.61-2.47-1.62-3.27A4.62,4.62,0,0,1,27,190.33a2.43,2.43,0,0,1,.82-2.71,3.81,3.81,0,0,1,3.6-.41,7.74,7.74,0,0,1,2.41,1.39c.15.12.36-.09.21-.21a6.56,6.56,0,0,0-4.32-1.74,3.14,3.14,0,0,0-3.17,2.91c0,1.53,1.45,2.32,2.45,3.21a2,2,0,0,1-1.08,3.77,7.42,7.42,0,0,1-2.46-.73,19,19,0,0,1-2-1c-.16-.1-.32.16-.15.26Z"/><path class="cls-4" d="M25.39,200.05l8.24-16c.09-.18-.17-.33-.25-.16l-8.25,16c-.09.18.17.33.26.16Z"/><path class="cls-4" d="M23.82,199.22l7.28-15c.09-.18-.17-.33-.26-.16l-7.28,15c-.08.17.18.32.26.15Z"/><path class="cls-4" d="M31.7,199.49a15.35,15.35,0,0,0,3.72,1.61,2.51,2.51,0,0,0,1.58,0,2.67,2.67,0,0,0,1.51-1.44c.57-1.44-.62-2.48-1.62-3.28a4.62,4.62,0,0,1-1.53-1.67,2.43,2.43,0,0,1,.82-2.71,3.81,3.81,0,0,1,3.6-.41,7.57,7.57,0,0,1,2.41,1.4c.15.12.36-.1.21-.22a6.58,6.58,0,0,0-4.32-1.74A3.14,3.14,0,0,0,34.91,194c0,1.53,1.45,2.32,2.45,3.21A2,2,0,0,1,36.28,201a7.44,7.44,0,0,1-2.46-.74,18.06,18.06,0,0,1-2-1,.15.15,0,0,0-.15.26Z"/><path class="cls-4" d="M33.74,204.45l8.24-16c.09-.17-.17-.32-.26-.15l-8.24,16c-.09.17.17.32.26.15Z"/><path class="cls-4" d="M32.17,203.62l7.28-15c.08-.18-.17-.33-.26-.15l-7.28,15c-.08.17.18.32.26.15Z"/><path class="cls-1" d="M69.48,105.33l-29.3,48.16c-1.72,2.83-3.5,6-2.69,9.25.66,2.6,2.86,4.46,4.94,6.13q106.77,86,213.55,172l30.6-33.33-135.81-161c-10.34-12.26-20.9-24.71-34.45-33.29s-30.81-12.8-45.85-7.24"/><path class="cls-2" d="M68.19,104.57l-18,29.62L41.22,148.9C38.7,153,34.74,158,36,163.14a11.15,11.15,0,0,0,3.56,5.3c2,1.8,4.16,3.42,6.25,5.1l13.42,10.81,27.22,21.93,53.87,43.41,53.88,43.4,54.06,43.56,6.61,5.32a1.54,1.54,0,0,0,2.13,0l30.6-33.33a1.56,1.56,0,0,0,0-2.13l-41-48.64-41-48.64-41-48.64c-6.48-7.68-12.88-15.43-19.48-23A156.18,156.18,0,0,0,125.44,118c-13.61-11-31.3-18.57-49-15.18a41,41,0,0,0-6.33,1.75c-1.8.65-1,3.55.8,2.89,16.92-6.15,35.39.07,49.33,10.26,7.36,5.38,13.8,11.92,19.86,18.69,6.51,7.26,12.69,14.81,19,22.26l40.55,48.07L240,254.65l40.55,48.07,5,5.92v-2.13l-30.61,33.34H257l-53.29-42.93L150.46,254,97.37,211.21l-53.1-42.77c-1.76-1.42-3.77-2.85-4.86-4.88-1.2-2.23-.42-4.72.65-6.83,1.23-2.4,2.74-4.66,4.14-7l4.53-7.46,17.64-29,4.41-7.25c1-1.65-1.59-3.16-2.59-1.51Z"/><path class="cls-3" d="M146,224.9c-3,14,3.74,29.18,15.31,37.59s27.23,10.28,41,6.31c1.56-.46,3.27-1.11,4-2.58,1.25-2.57-1.32-5.28-3.61-7l-31.64-23.57c-7.49-5.58-15.83-11.43-25.16-11"/><path class="cls-4" d="M57.94,171.21a15.71,15.71,0,0,0,3.42,2.08,2.72,2.72,0,0,0,1.5.29,2.65,2.65,0,0,0,1.74-1.13c.85-1.29-.08-2.53-1-3.47a5,5,0,0,1-1.4-2,2.43,2.43,0,0,1,1.26-2.63,3.92,3.92,0,0,1,3.67.2,7.93,7.93,0,0,1,2.08,1.66c.13.14.34-.08.21-.22a6.6,6.6,0,0,0-4-2.28,3.15,3.15,0,0,0-3.6,2.36c-.27,1.49,1,2.5,1.89,3.5a2.3,2.3,0,0,1,.74,2.33,2.17,2.17,0,0,1-2.24,1.35,6.85,6.85,0,0,1-2.19-1,16.61,16.61,0,0,1-2-1.31c-.15-.11-.36.1-.21.22Z"/><path class="cls-4" d="M59.31,176.39l10.35-14.77c.11-.16-.15-.31-.26-.15L59.05,176.24c-.11.16.15.31.26.15Z"/><path class="cls-4" d="M57.87,175.36l9.24-13.85c.11-.16-.15-.31-.25-.15l-9.25,13.85c-.11.16.15.31.26.15Z"/><path class="cls-4" d="M42.59,160.22A15.78,15.78,0,0,0,46,162.3a2.67,2.67,0,0,0,1.49.29,2.63,2.63,0,0,0,1.74-1.13c.85-1.29-.08-2.53-1-3.47a5,5,0,0,1-1.4-2,2.43,2.43,0,0,1,1.26-2.63,3.94,3.94,0,0,1,3.68.2,7.72,7.72,0,0,1,2.07,1.66c.13.14.34-.08.21-.22a6.6,6.6,0,0,0-4-2.28,3.15,3.15,0,0,0-3.6,2.36c-.27,1.49,1,2.5,1.89,3.5a2.3,2.3,0,0,1,.74,2.33,2.17,2.17,0,0,1-2.24,1.35,6.85,6.85,0,0,1-2.19-1,16.61,16.61,0,0,1-2-1.31c-.15-.11-.36.1-.21.22Z"/><path class="cls-4" d="M44,165.4l10.35-14.77c.11-.16-.15-.31-.26-.15L43.7,165.25c-.11.16.15.31.26.15Z"/><path class="cls-4" d="M42.52,164.37l9.25-13.85c.1-.16-.16-.31-.26-.15l-9.25,13.85c-.1.16.16.31.26.15Z"/><path class="cls-4" d="M50.27,165.71a15.37,15.37,0,0,0,3.42,2.09,2.62,2.62,0,0,0,1.5.28A2.68,2.68,0,0,0,56.93,167c.84-1.29-.08-2.53-1-3.46a5.06,5.06,0,0,1-1.4-2,2.44,2.44,0,0,1,1.26-2.63,3.94,3.94,0,0,1,3.68.19,7.92,7.92,0,0,1,2.07,1.66.15.15,0,0,0,.22-.21,6.67,6.67,0,0,0-4-2.29,3.16,3.16,0,0,0-3.6,2.36c-.26,1.5,1,2.51,1.9,3.5a2.35,2.35,0,0,1,.74,2.34,2.22,2.22,0,0,1-2.25,1.35,7,7,0,0,1-2.18-1,17.47,17.47,0,0,1-2-1.31c-.15-.12-.37.09-.21.21Z"/><path class="cls-4" d="M51.64,170.9,62,156.13c.11-.16-.15-.31-.26-.16L51.38,170.75c-.11.15.15.3.26.15Z"/><path class="cls-4" d="M50.2,169.86,59.44,156c.11-.16-.15-.31-.26-.15l-9.24,13.84c-.11.16.15.31.26.15Z"/><path class="cls-1" d="M78.68,110.13,46.21,152.06l227.1,158.18c1.93,1.35,4,2.74,6.34,2.93,3.86.3,7.11-2.66,9.84-5.41,5-5.09,10.41-10.95,10.44-18.11,0-6.63-4.57-12.27-9.05-17.17-49-53.59-112.25-91.81-175.65-127.23-15-8.38-31.6-18.61-35.2-35.42"/><path class="cls-2" d="M77.62,109.07,45.15,151a1.53,1.53,0,0,0,.3,2.35L99.52,191l54.28,37.8,54.08,37.67L262,304.15l6.86,4.78c2,1.42,4,3,6.21,4.21a10.07,10.07,0,0,0,6.39,1.45,12.19,12.19,0,0,0,5.65-2.62,52.79,52.79,0,0,0,9.26-9.57c2.69-3.48,4.81-7.47,5.08-11.94.56-9.33-7.22-16.71-13.07-22.94q-9.85-10.47-20.44-20.22a509,509,0,0,0-44.41-36.38c-15.52-11.39-31.58-22-47.94-32.19s-33.07-19.86-49.87-29.34c-7.59-4.28-15.34-8.34-22.59-13.18-6.57-4.38-13-9.56-17.23-16.28a32.19,32.19,0,0,1-4.37-10.5c-.42-1.88-3.31-1.08-2.9.8,3.52,15.93,17.94,26,31.2,33.65,7.89,4.58,15.92,9,23.85,13.48q12.47,7.11,24.8,14.47c16.3,9.73,32.36,19.86,48,30.63A561.45,561.45,0,0,1,251.71,237q10.86,9.22,21.13,19.13a272.21,272.21,0,0,1,19.48,20.28c2.79,3.32,5.49,7.22,6,11.64s-1.35,8.42-3.87,11.88a49.4,49.4,0,0,1-4.33,5,47.06,47.06,0,0,1-4.72,4.54c-1.63,1.27-3.63,2.41-5.77,2.19s-4.2-1.76-6-3L220.2,271.43,166.76,234.2,113.31,197,59.86,159.74l-12.89-9,.3,2.36,32.47-41.93c1.17-1.51-.94-3.65-2.12-2.12Z"/><path class="cls-3" d="M160.25,202.37a38.81,38.81,0,0,0,41.59,44.31c1.55-.13,3.42-.61,3.83-2.11.34-1.24-.53-2.46-1.35-3.45Q189,222.6,172.87,204.82c-1.83-2-3.81-4.11-6.43-4.87s-6,.44-6.58,3.1"/><path class="cls-4" d="M69.94,159.21a15.71,15.71,0,0,0,3.42,2.08,2.72,2.72,0,0,0,1.5.29,2.65,2.65,0,0,0,1.74-1.13c.85-1.29-.08-2.53-1-3.47a5,5,0,0,1-1.4-2,2.43,2.43,0,0,1,1.26-2.63,3.92,3.92,0,0,1,3.67.2,7.93,7.93,0,0,1,2.08,1.66c.13.14.34-.08.21-.22a6.6,6.6,0,0,0-4-2.28,3.15,3.15,0,0,0-3.6,2.36c-.27,1.49,1,2.5,1.89,3.5a2.3,2.3,0,0,1,.74,2.33,2.17,2.17,0,0,1-2.24,1.35,6.85,6.85,0,0,1-2.19-1A16.61,16.61,0,0,1,70.15,159c-.15-.11-.36.1-.21.22Z"/><path class="cls-4" d="M71.31,164.39l10.35-14.77c.11-.16-.15-.31-.26-.15L71.05,164.24c-.11.16.15.31.26.15Z"/><path class="cls-4" d="M69.87,163.36l9.24-13.85c.11-.16-.15-.31-.25-.15l-9.25,13.85c-.11.16.15.31.26.15Z"/><path class="cls-4" d="M54.59,148.22A15.78,15.78,0,0,0,58,150.3a2.67,2.67,0,0,0,1.49.29,2.63,2.63,0,0,0,1.74-1.13c.85-1.29-.08-2.53-1-3.47a5,5,0,0,1-1.4-2,2.43,2.43,0,0,1,1.26-2.63,3.94,3.94,0,0,1,3.68.2,7.72,7.72,0,0,1,2.07,1.66c.13.14.34-.08.21-.22a6.6,6.6,0,0,0-3.95-2.28,3.15,3.15,0,0,0-3.6,2.36c-.27,1.49,1,2.5,1.89,3.5a2.3,2.3,0,0,1,.74,2.33,2.17,2.17,0,0,1-2.24,1.35,6.85,6.85,0,0,1-2.19-1,16.61,16.61,0,0,1-2-1.31c-.15-.11-.36.1-.21.22Z"/><path class="cls-4" d="M56,153.4l10.35-14.77c.11-.16-.15-.31-.26-.15L55.7,153.25c-.11.16.15.31.26.15Z"/><path class="cls-4" d="M54.52,152.37l9.25-13.85c.1-.16-.16-.31-.26-.15l-9.25,13.85c-.1.16.16.31.26.15Z"/><path class="cls-4" d="M62.27,153.71a15.37,15.37,0,0,0,3.42,2.09,2.62,2.62,0,0,0,1.5.28A2.68,2.68,0,0,0,68.93,155c.84-1.29-.08-2.53-1-3.46a5.06,5.06,0,0,1-1.4-2,2.44,2.44,0,0,1,1.26-2.63,3.94,3.94,0,0,1,3.68.19,7.92,7.92,0,0,1,2.07,1.66.15.15,0,0,0,.22-.21,6.67,6.67,0,0,0-4-2.29,3.16,3.16,0,0,0-3.6,2.36c-.26,1.5,1,2.51,1.9,3.5a2.35,2.35,0,0,1,.74,2.34,2.22,2.22,0,0,1-2.25,1.35,7,7,0,0,1-2.18-1,17.47,17.47,0,0,1-2-1.31c-.15-.12-.37.09-.21.21Z"/><path class="cls-4" d="M63.64,158.9,74,144.13c.11-.16-.15-.31-.26-.16L63.38,158.75c-.11.15.15.3.26.15Z"/><path class="cls-4" d="M62.2,157.86,71.44,144c.11-.16-.15-.31-.26-.15l-9.24,13.84c-.11.16.15.31.26.15Z"/><path class="cls-1" d="M124.11,53.71,79.58,94.81c-2.89,2.66-5.92,5.56-6.84,9.38-1.65,6.81,3.9,13,9,17.88q95.21,90.56,185.89,185.71c3.55-4.64,9.1-7.19,14-10.37s9.63-7.85,9.78-13.69c.09-3.43-1.44-6.67-2.95-9.74a798,798,0,0,0-162-222"/><path class="cls-2" d="M123.05,52.65,96.1,77.51,82.82,89.77c-3.69,3.4-8.3,6.79-10.56,11.4-4.94,10.12,5.09,18.81,11.65,25.06q12.81,12.21,25.55,24.5,25.65,24.77,51,49.87t50.3,50.54q25,25.44,49.62,51.2,3.11,3.26,6.2,6.5a1.51,1.51,0,0,0,2.12,0c6-7.7,16.89-9.67,22.11-18.27,2.78-4.57,2.41-9.5.37-14.29s-4.68-9.63-7.11-14.37q-14.57-28.47-31.39-55.69t-35.9-53.16q-18.92-25.74-39.84-49.92T133.17,56.53q-2.85-2.81-5.73-5.58c-1.39-1.34-3.52.78-2.12,2.12Q148,75,168.94,98.58t39.92,48.86q19,25.2,35.89,51.83t31.58,54.31q3.69,7,7.24,14,1.8,3.57,3.56,7.15a24.11,24.11,0,0,1,2.68,7.42c.59,4.86-2.54,8.91-6.08,11.86-3.7,3.08-8.18,5.06-12.06,7.9a25.67,25.67,0,0,0-5.12,4.81h2.12q-24.26-25.46-48.84-50.58t-49.32-49.76q-24.82-24.7-50-49.1Q107.92,145,95.23,132.89c-4.24-4.06-8.51-8.09-12.75-12.16-3.35-3.22-7-6.94-8.21-11.58-1.3-5,1.75-8.91,5.17-12.16,4.21-4,8.53-7.89,12.8-11.83l26.38-24.35,6.55-6c1.43-1.31-.7-3.43-2.12-2.12Z"/><path class="cls-3" d="M180.58,161.26c-10.3,9.72-13.25,26-8.14,39.23s17.47,23,31.26,26.29c3.78.9,8.6.93,10.57-2.42,1.55-2.61.49-5.93-.65-8.74A225,225,0,0,0,181,159.93"/><path class="cls-4" d="M91.12,118.36a15.29,15.29,0,0,0,3.19,2.41,2.39,2.39,0,0,0,3.3-.52c1-1.18.2-2.48-.59-3.5a5.21,5.21,0,0,1-1.23-2.15,2.46,2.46,0,0,1,1.64-2.53c2.16-.84,4.2.9,5.43,2.48.12.15.33-.06.21-.21a6.46,6.46,0,0,0-3.79-2.68,3.14,3.14,0,0,0-3.69,1.91c-.51,1.53.76,2.7,1.55,3.84a2,2,0,0,1-2,3.43,7.41,7.41,0,0,1-2.07-1.2,18.12,18.12,0,0,1-1.79-1.49c-.14-.13-.35.08-.21.21Z"/><path class="cls-4" d="M91.94,123.67,103.71,110c.13-.15-.08-.36-.21-.22L91.72,123.45c-.12.15.09.36.22.22Z"/><path class="cls-4" d="M90.61,122.49l10.58-12.84c.13-.15-.08-.37-.21-.22L90.4,122.28c-.13.15.09.36.21.21Z"/><path class="cls-4" d="M77,105.89a15.55,15.55,0,0,0,3.19,2.41,2.43,2.43,0,0,0,3.31-.52c1-1.19.19-2.49-.6-3.51a5,5,0,0,1-1.22-2.14,2.44,2.44,0,0,1,1.63-2.53c2.16-.85,4.2.9,5.43,2.48.12.15.33-.07.21-.22a6.54,6.54,0,0,0-3.79-2.68,3.16,3.16,0,0,0-3.69,1.91c-.51,1.53.76,2.71,1.56,3.84a2.22,2.22,0,0,1,.37,2.47,2.2,2.2,0,0,1-2.33,1,7.46,7.46,0,0,1-2.06-1.2,17.24,17.24,0,0,1-1.8-1.5.15.15,0,0,0-.21.22Z"/><path class="cls-4" d="M77.77,111.19,89.55,97.53c.12-.14-.09-.36-.22-.21L77.56,111c-.13.14.08.36.21.21Z"/><path class="cls-4" d="M76.44,110,87,97.17c.12-.15-.09-.36-.22-.21L76.23,109.81c-.12.14.09.36.21.21Z"/><path class="cls-4" d="M84,112.12a15.4,15.4,0,0,0,3.2,2.42,2.41,2.41,0,0,0,3.3-.53c1-1.18.2-2.48-.59-3.5a5.13,5.13,0,0,1-1.23-2.14,2.47,2.47,0,0,1,1.63-2.54c2.17-.84,4.2.9,5.43,2.48.12.16.33-.06.22-.21a6.57,6.57,0,0,0-3.8-2.68,3.16,3.16,0,0,0-3.69,1.91c-.5,1.53.76,2.71,1.56,3.84a2.22,2.22,0,0,1,.37,2.47,2.18,2.18,0,0,1-2.33,1A7,7,0,0,1,86,113.4a17,17,0,0,1-1.79-1.49c-.14-.13-.36.08-.22.21Z"/><path class="cls-4" d="M84.85,117.43l11.78-13.66c.12-.15-.09-.36-.21-.21L84.64,117.22c-.13.14.09.35.21.21Z"/><path class="cls-4" d="M83.52,116.26l10.59-12.85c.12-.15-.09-.36-.21-.21L83.31,116c-.12.15.09.36.21.22Z"/><path class="cls-1" d="M233,24.09c-8.13-4.44-5.37-20.19-14.35-22.43-3.12-.78-6.32.66-9.21,2.07L124.59,44.92c-1.88.91-3.94,2-4.56,4s.41,4,1.4,5.82l86.42,157.3c18.18,33.1,36.47,66.35,59.62,96.19,9.24-5.17,19.55-11.88,20.71-22.4.58-5.36-1.42-10.61-3.34-15.64A823.47,823.47,0,0,1,232,21.57"/><path class="cls-2" d="M233.75,22.79c-3.64-2.08-4.79-6.59-5.92-10.33s-2.24-8-5.4-10.54c-5.16-4.17-11.45-.61-16.5,1.85l-21.22,10.3L142,34.8l-10.47,5.08A102.93,102.93,0,0,0,122,44.63c-2.58,1.61-4.11,4.08-3.4,7.18a16.93,16.93,0,0,0,1.88,4.24q1.47,2.69,2.95,5.37L168.8,144.1q22.57,41.1,45.17,82.19c14.14,25.55,28.74,51,46,74.54q3.15,4.28,6.4,8.48a1.51,1.51,0,0,0,1.82.23c6.72-3.76,13.75-8,18.11-14.57a20.09,20.09,0,0,0,3.45-10.84c.06-5.18-1.89-10.1-3.7-14.86Q275.13,240.53,266.36,211T251,151.49q-6.57-30.18-10.88-60.8t-6.25-61.34c-.17-2.59-.32-5.19-.46-7.78-.11-1.92-3.11-1.93-3,0Q232.1,51.84,236,81.93t10,59.91q6.08,29.7,14.31,58.9t18.6,57.69c1.75,4.8,3.59,9.56,5.36,14.35,1.71,4.61,3.31,9.62,2.2,14.57C284.72,295,278,300.13,271.69,304c-1.63,1-3.3,2-5,2.92l1.82.24c-17.48-22.57-32.19-47.11-46.15-72-14.65-26.11-28.91-52.45-43.32-78.69l-44.39-80.8L123.61,55.61A17.23,17.23,0,0,1,121.44,51c-.35-1.76.61-2.92,2-3.8a95.85,95.85,0,0,1,9.31-4.61l41.33-20.07,20.66-10,10.47-5.08c3.16-1.54,6.43-3.57,9.9-4.3,4.83-1,7.29,2.63,8.7,6.64s2.11,8.08,4.32,11.6a11.69,11.69,0,0,0,4.08,4,1.5,1.5,0,0,0,1.51-2.59Z"/><path class="cls-3" d="M204.07,134.35a42,42,0,0,0,14.16,69.25c2.17.84,4.87,1.41,6.63-.1,1.45-1.26,1.63-3.41,1.65-5.33A99.8,99.8,0,0,0,204,134.5"/><path class="cls-4" d="M135.32,65.24a15.24,15.24,0,0,0,2.17,3.27,2.49,2.49,0,0,0,3.2.72c1.43-.77,1.14-2.35.71-3.63A4.35,4.35,0,0,1,141,63a2.56,2.56,0,0,1,2.49-1.58c2.22.08,3.49,2.25,4.12,4.11.06.18.35.1.29-.08a6.8,6.8,0,0,0-2.39-3.61,3.27,3.27,0,0,0-4.13.07c-1.29,1.19-.61,2.81-.16,4.23a2.36,2.36,0,0,1-.39,2.67,2.18,2.18,0,0,1-2.54.14A7.69,7.69,0,0,1,136.7,67a18,18,0,0,1-1.12-1.89c-.09-.17-.35,0-.26.15Z"/><path class="cls-4" d="M134.35,70.5l15.62-9c.16-.1,0-.36-.15-.26l-15.62,9c-.17.09,0,.35.15.25Z"/><path class="cls-4" d="M133.48,69l14.23-8.64c.16-.1,0-.36-.15-.26L133.33,68.7a.15.15,0,0,0,.15.26Z"/><path class="cls-4" d="M126.05,48.8a15.81,15.81,0,0,0,2.17,3.26,2.5,2.5,0,0,0,3.21.72c1.43-.76,1.13-2.35.7-3.63a4.32,4.32,0,0,1-.36-2.64,2.51,2.51,0,0,1,2.48-1.58c2.23.07,3.5,2.25,4.12,4.1.07.18.36.1.29-.08a6.76,6.76,0,0,0-2.39-3.6,3.25,3.25,0,0,0-4.13.06c-1.29,1.2-.6,2.82-.16,4.24.28.91.45,2-.39,2.67a2.2,2.2,0,0,1-2.54.14,7.67,7.67,0,0,1-1.61-1.93,17,17,0,0,1-1.13-1.88c-.09-.18-.35,0-.26.15Z"/><path class="cls-4" d="M125.08,54.06l15.62-9c.17-.09,0-.35-.15-.26l-15.62,9a.15.15,0,0,0,.15.26Z"/><path class="cls-4" d="M124.21,52.51l14.23-8.64c.17-.1,0-.36-.15-.26l-14.23,8.65a.15.15,0,0,0,.15.25Z"/><path class="cls-4" d="M130.68,57a15.88,15.88,0,0,0,2.17,3.27,2.52,2.52,0,0,0,3.21.72c1.43-.77,1.14-2.35.71-3.63a4.29,4.29,0,0,1-.37-2.65,2.53,2.53,0,0,1,2.49-1.58c2.22.07,3.49,2.25,4.12,4.1a.15.15,0,0,0,.29-.08,6.83,6.83,0,0,0-2.4-3.6,3.28,3.28,0,0,0-4.13.06c-1.29,1.2-.6,2.82-.16,4.24a2.32,2.32,0,0,1-.39,2.67,2.18,2.18,0,0,1-2.53.14,7.84,7.84,0,0,1-1.62-1.92,18.14,18.14,0,0,1-1.13-1.89c-.08-.17-.34,0-.26.15Z"/><path class="cls-4" d="M129.71,62.28l15.62-9a.15.15,0,0,0-.15-.26l-15.62,9c-.16.1,0,.36.15.26Z"/><path class="cls-4" d="M128.85,60.74l14.22-8.65a.15.15,0,1,0-.15-.25L128.7,60.48a.15.15,0,0,0,.15.26Z"/><path class="cls-1" d="M291.1,25.26c0-7.84-.84-17.23-7.75-20.92-6-3.19-13.2-.31-19.41,2.35a272.67,272.67,0,0,1-86.72,21.23q45.12,138.72,82.06,279.92c.78,3,1.62,6,3.69,8.28,2.84,3.06,7.59,3.86,11.59,2.68s7.33-4.07,9.86-7.39c8.54-11.22,8.7-26.49,8.49-40.59q-1.86-124.33-3.7-248.67"/><path class="cls-2" d="M292.6,25.26c0-6.69-.4-14.66-5.3-19.79-6.24-6.53-15.56-3.68-22.77-.64A286.33,286.33,0,0,1,209.9,21.92a270.53,270.53,0,0,1-32.68,4.5,1.52,1.52,0,0,0-1.45,1.9Q185.43,58,194.71,87.81q9.24,29.66,18.1,59.42t17.45,59.94q8.53,30,16.69,60.15,4,14.93,8,29.86c1.27,4.82,2.28,9.8,3.91,14.51,1.32,3.82,3.64,6.94,7.54,8.36,8.21,3,15.95-2.83,20.36-9.31,4.72-6.94,6.59-15.33,7.3-23.58.81-9.28.33-18.66.19-28l-.47-31.72-.94-63.11L291.88,101l-.94-63.43-.23-15.38c0-1.93-3-1.94-3,0l1.85,124.34q.92,61.84,1.84,123.71c.12,8.35.23,16.84-1.54,25.06-1.7,7.87-5.5,16.74-12.85,20.88-3.37,1.9-7.68,2.41-11.13.39-4-2.3-4.71-7.42-5.78-11.48q-3.84-14.64-7.77-29.27-15.87-59.1-33.2-117.79Q201.9,99.6,183.23,41.64q-2.26-7.06-4.57-14.11l-1.44,1.89a275.52,275.52,0,0,0,54-9.56A272.11,272.11,0,0,0,257.29,11c4.22-1.67,8.35-3.65,12.65-5.12,3.84-1.31,8.31-2.33,12.18-.53,7.17,3.33,7.48,13.09,7.48,19.87a1.5,1.5,0,0,0,3,0Z"/><path class="cls-3" d="M240.17,132c-8.3,7.81-13.31,20.9-13,34s5.93,25.76,14.58,32.93c2,1.66,4.6,3.06,6.74,1.67s2.73-4.81,3-7.81a183.09,183.09,0,0,0-.64-41.2A49.76,49.76,0,0,0,248,139c-1.58-3.88-4.13-7.29-7.4-8.71"/><path class="cls-4" d="M191.6,50.67a15.4,15.4,0,0,0,1.45,3.69,2.62,2.62,0,0,0,1.09,1.19,2.69,2.69,0,0,0,2,.12c1.56-.55,1.44-2.25,1.29-3.59a3.55,3.55,0,0,1,.39-2.64,2.6,2.6,0,0,1,2.62-.8c2.15.54,2.93,3,3.15,4.88,0,.19.32.19.3,0a6.79,6.79,0,0,0-1.63-4.1,3.26,3.26,0,0,0-4-.78c-1.52.85-1.25,2.56-1.11,4a2.49,2.49,0,0,1-.81,2.56,2.22,2.22,0,0,1-2.57-.26,6.77,6.77,0,0,1-1.23-2.29,17.14,17.14,0,0,1-.71-2.09.15.15,0,0,0-.29.08Z"/><path class="cls-4" d="M189.53,55.61l17.18-5.48a.15.15,0,0,0-.08-.29l-17.18,5.48c-.18.06-.1.35.08.29Z"/><path class="cls-4" d="M189,53.92l15.74-5.42c.19-.06.11-.35-.08-.28l-15.74,5.41c-.18.06-.1.35.08.29Z"/><path class="cls-4" d="M186.05,32.63a15.8,15.8,0,0,0,1.44,3.69,2.75,2.75,0,0,0,1.1,1.19,2.69,2.69,0,0,0,2,.12c1.56-.56,1.44-2.25,1.29-3.6a3.54,3.54,0,0,1,.39-2.63,2.58,2.58,0,0,1,2.62-.8c2.15.54,2.93,2.94,3.15,4.88,0,.19.32.19.3,0a6.77,6.77,0,0,0-1.63-4.1,3.26,3.26,0,0,0-3.95-.78c-1.52.85-1.25,2.56-1.11,4a2.47,2.47,0,0,1-.82,2.56,2.2,2.2,0,0,1-2.56-.25A7,7,0,0,1,187,34.64a19,19,0,0,1-.7-2.09.15.15,0,0,0-.29.08Z"/><path class="cls-4" d="M184,37.57l17.18-5.48c.18-.06.11-.35-.08-.29L183.9,37.28c-.18.06-.11.35.08.29Z"/><path class="cls-4" d="M183.46,35.88l15.74-5.42a.15.15,0,0,0-.08-.29l-15.74,5.42c-.18.06-.1.35.08.29Z"/><path class="cls-4" d="M188.83,41.65a15.8,15.8,0,0,0,1.44,3.69,2.62,2.62,0,0,0,1.09,1.19,2.72,2.72,0,0,0,2,.12c1.55-.56,1.44-2.25,1.29-3.59a3.55,3.55,0,0,1,.38-2.64,2.6,2.6,0,0,1,2.62-.8c2.15.54,2.93,2.94,3.15,4.88,0,.19.32.19.3,0a6.71,6.71,0,0,0-1.63-4.1,3.25,3.25,0,0,0-4-.78c-1.52.85-1.25,2.56-1.11,4a2.5,2.5,0,0,1-.81,2.57,2.22,2.22,0,0,1-2.56-.26,7,7,0,0,1-1.24-2.29,17.09,17.09,0,0,1-.7-2.09.15.15,0,0,0-.29.08Z"/><path class="cls-4" d="M186.75,46.59l17.19-5.48c.18-.06.1-.35-.08-.29L186.68,46.3c-.19.06-.11.35.07.29Z"/><path class="cls-4" d="M186.24,44.9,202,39.48c.18-.06.1-.35-.08-.29l-15.74,5.42c-.18.06-.11.35.08.29Z"/><path class="cls-1" d="M339.21,11.57,236.93,18.32c-2.58.17-5.44.48-7.12,2.44s-1.54,4.88-1.29,7.47q13.15,136.29,32.71,271.85c10.44,2.12,21.15-4.25,27.26-13s8.52-19.45,10.62-29.9c9.51-47.39,15-95.55,17.54-143.81,1.9-35.57,6.18-70.5,23-101.89"/><path class="cls-2" d="M339.21,10.07l-78.72,5.19L241,16.55c-4.55.3-11.09-.12-13.31,4.89-1,2.32-.8,4.91-.56,7.36q.46,4.85.94,9.69,1,9.84,2,19.67,4,38.9,8.44,77.74t9.48,77.62q5,38.7,10.49,77.32l1.38,9.64a1.45,1.45,0,0,0,1.05,1c8.69,1.66,17.28-1.83,23.69-7.66,7-6.35,10.82-15.29,13.28-24.23,2.77-10,4.46-20.44,6.28-30.69q2.93-16.44,5.25-33,4.62-32.88,7.1-66c1.61-21.1,2.08-42.31,5-63.29C324.17,56.84,329,37.13,337.57,19c1.07-2.27,2.21-4.51,3.39-6.72.91-1.7-1.68-3.22-2.59-1.51-9.34,17.47-15.07,36.55-18.43,56-3.45,20-4.29,40.25-5.61,60.48q-2.11,32.65-6.18,65.13t-10.58,64.91c-1.88,9.3-4,18.84-9,27-4.47,7.26-11.89,13.41-20.56,14.53a19.89,19.89,0,0,1-6.35-.19l1,1.05q-5.49-38.07-10.47-76.22t-9.45-76.18q-4.47-38.11-8.44-76.3-2-18.95-3.82-37.9c-.27-2.8-.86-5.79-.57-8.6s2-3.94,4.52-4.4a78.43,78.43,0,0,1,8.81-.68l9.48-.62,77-5.09,9.48-.62c1.92-.13,1.93-3.13,0-3Z"/><path class="cls-3" d="M263.81,134.24a36,36,0,0,0-7.1,56.57,163.17,163.17,0,0,0,10.44-57.08"/><path class="cls-4" d="M237.13,41.8a15.33,15.33,0,0,0,.67,3.92,2.41,2.41,0,0,0,2.76,1.91c1.57-.22,1.87-1.79,2-3.1a4.08,4.08,0,0,1,.76-2.52,2.5,2.5,0,0,1,2.65-.5,3.79,3.79,0,0,1,2.14,2.58,7.59,7.59,0,0,1,.2,3c0,.2.28.19.3,0a6.41,6.41,0,0,0-1.06-4.72,3.12,3.12,0,0,0-3.84-1c-1.4.73-1.34,2.4-1.51,3.76-.12.93-.45,1.93-1.47,2.18a2.17,2.17,0,0,1-2.35-.95,7.86,7.86,0,0,1-.66-2.28,17.44,17.44,0,0,1-.28-2.26c0-.2-.31-.2-.3,0Z"/><path class="cls-4" d="M234.09,46.23,252,44.33c.19,0,.19-.32,0-.3l-17.94,1.9c-.19,0-.19.32,0,.3Z"/><path class="cls-4" d="M233.93,44.46l16.51-2.12c.19,0,.19-.32,0-.3l-16.51,2.12c-.19,0-.2.33,0,.3Z"/><path class="cls-4" d="M235.34,23a15.34,15.34,0,0,0,.67,3.93,2.72,2.72,0,0,0,.75,1.32,2.65,2.65,0,0,0,2,.58c1.57-.21,1.87-1.78,2-3.1a4.05,4.05,0,0,1,.76-2.51,2.53,2.53,0,0,1,2.65-.51,3.81,3.81,0,0,1,2.14,2.59,7.59,7.59,0,0,1,.2,3c0,.19.28.19.3,0a6.41,6.41,0,0,0-1.06-4.72,3.12,3.12,0,0,0-3.84-1c-1.4.73-1.34,2.4-1.51,3.76-.12.93-.45,1.92-1.47,2.18a2.17,2.17,0,0,1-2.35-.95,7.86,7.86,0,0,1-.66-2.28,17.37,17.37,0,0,1-.28-2.27c0-.19-.31-.19-.3,0Z"/><path class="cls-4" d="M232.3,27.44l17.93-1.9c.19,0,.2-.32,0-.3l-17.93,1.9c-.19,0-.19.32,0,.3Z"/><path class="cls-4" d="M232.13,25.67l16.52-2.12c.18,0,.19-.32,0-.3l-16.52,2.12c-.18,0-.19.33,0,.3Z"/><path class="cls-4" d="M236.23,32.4a15.86,15.86,0,0,0,.67,3.93,2.74,2.74,0,0,0,.75,1.31,2.64,2.64,0,0,0,2,.59c1.57-.21,1.86-1.78,2-3.1a4,4,0,0,1,.75-2.51,2.52,2.52,0,0,1,2.66-.51,3.81,3.81,0,0,1,2.14,2.59,7.39,7.39,0,0,1,.19,3c0,.19.28.19.3,0a6.44,6.44,0,0,0-1-4.72,3.13,3.13,0,0,0-3.84-1c-1.4.74-1.34,2.4-1.51,3.76-.12.93-.45,1.93-1.47,2.18a2.15,2.15,0,0,1-2.35-.94,7.85,7.85,0,0,1-.67-2.29,18.85,18.85,0,0,1-.28-2.26c0-.19-.31-.19-.3,0Z"/><path class="cls-4" d="M233.2,36.83l17.93-1.89c.19,0,.19-.33,0-.3L233.2,36.53c-.2,0-.2.32,0,.3Z"/><path class="cls-4" d="M233,35.07,249.54,33c.19,0,.19-.33,0-.3L233,34.77c-.19,0-.19.32,0,.3Z"/><path class="cls-1" d="M327.45,24.76,282.78,14.11l-7,55.22-28.6,224.09L290,302.33Q313.53,171.17,327.9,38.57c.57-5.33,1.14-10.72.53-16"/><path class="cls-2" d="M327.85,23.32,283.18,12.67a1.53,1.53,0,0,0-1.9,1.44l-13.91,109L253.44,232.25l-7.81,61.17a1.5,1.5,0,0,0,1.1,1.45l42.85,8.91a1.53,1.53,0,0,0,1.85-1q9.78-54.5,18-109.24t14.8-109.56q1.85-15.3,3.56-30.61.86-7.65,1.69-15.3a73,73,0,0,0,.47-15.49c-.21-1.9-3.21-1.92-3,0a65.94,65.94,0,0,1-.3,13.83c-.46,4.52-1,9-1.48,13.56Q323.64,63.53,322,77.13q-3.22,27.21-6.84,54.36Q307.9,186.17,299,240.62q-5,30.69-10.49,61.31l1.84-1L247.53,292l1.1,1.45,13.94-109.19L276.5,75l7.78-60.93-1.9,1.45,44.67,10.65c1.88.45,2.68-2.44.8-2.89Z"/><path class="cls-3" d="M289.86,134.4a42.89,42.89,0,0,0-21.15,47.54,10.58,10.58,0,0,0,1.85,4.34,4.27,4.27,0,0,0,4.19,1.63c2-.53,3-2.78,3.67-4.77a320.11,320.11,0,0,0,12.2-48.68"/><path class="cls-4" d="M286.73,40.5a15.28,15.28,0,0,0-.22,4,2.47,2.47,0,0,0,.53,1.51,2.64,2.64,0,0,0,2,.91c1.55,0,2.06-1.57,2.47-2.79a3.74,3.74,0,0,1,1.18-2,2.51,2.51,0,0,1,3,.21,4,4,0,0,1,1.31,3,7.9,7.9,0,0,1-.49,2.73.15.15,0,0,0,.29.08,6.54,6.54,0,0,0,.11-4.67A3.12,3.12,0,0,0,293,41.62c-1.43.52-1.67,2.17-2.15,3.41-.32.8-.84,1.58-1.79,1.63a2.18,2.18,0,0,1-2.14-1.4,7.65,7.65,0,0,1-.15-2.39,19.53,19.53,0,0,1,.24-2.29c0-.19-.25-.27-.29-.08Z"/><path class="cls-4" d="M282.81,44.14l17.9,2.19c.19,0,.19-.27,0-.3l-17.9-2.19c-.2,0-.19.28,0,.3Z"/><path class="cls-4" d="M283,42.39,299.61,44c.19,0,.19-.28,0-.3L283,42.09c-.19,0-.19.28,0,.3Z"/><path class="cls-4" d="M289.22,21.79a14.87,14.87,0,0,0-.23,4.05,2.63,2.63,0,0,0,.53,1.51,2.67,2.67,0,0,0,2,.91c1.55,0,2.06-1.58,2.46-2.8a3.89,3.89,0,0,1,1.19-2,2.53,2.53,0,0,1,3,.22,4,4,0,0,1,1.3,3,7.7,7.7,0,0,1-.48,2.73c-.07.19.22.26.28.08a6.46,6.46,0,0,0,.11-4.68,3.11,3.11,0,0,0-3.82-1.91c-1.42.52-1.66,2.16-2.15,3.41a2,2,0,0,1-3.92.23,7.1,7.1,0,0,1-.15-2.39,15.87,15.87,0,0,1,.24-2.29c0-.19-.26-.27-.29-.08Z"/><path class="cls-4" d="M285.29,25.43l17.9,2.19c.19,0,.19-.28,0-.3l-17.9-2.19c-.19,0-.19.28,0,.3Z"/><path class="cls-4" d="M285.53,23.67l16.56,1.66c.19,0,.19-.29,0-.3l-16.56-1.66c-.19,0-.19.28,0,.3Z"/><path class="cls-4" d="M288,31.14a15.3,15.3,0,0,0-.22,4,2.47,2.47,0,0,0,.53,1.51,2.62,2.62,0,0,0,2,.91c1.54,0,2.05-1.57,2.46-2.79a3.83,3.83,0,0,1,1.19-2,2.52,2.52,0,0,1,3,.22,4,4,0,0,1,1.3,3,7.71,7.71,0,0,1-.49,2.73c-.06.18.23.26.29.08a6.52,6.52,0,0,0,.11-4.68,3.12,3.12,0,0,0-3.82-1.92c-1.42.53-1.66,2.17-2.15,3.41a2,2,0,0,1-3.93.24,7.39,7.39,0,0,1-.14-2.39,17.74,17.74,0,0,1,.23-2.3c0-.19-.25-.27-.29-.08Z"/><path class="cls-4" d="M284.05,34.79,302,37c.19,0,.19-.28,0-.3l-17.9-2.19c-.19,0-.19.27,0,.3Z"/><path class="cls-4" d="M284.29,33l16.56,1.65c.19,0,.19-.28,0-.3l-16.56-1.65c-.2,0-.2.28,0,.3Z"/><path class="cls-1" d="M429.66,44.5c-10.22,29.3-34.94,48.07-50.09,75.16-12.18,21.79-17.1,47.06-29.45,68.75-8,14.08-19,26.4-26,41-4.95,10.34-7.76,21.58-12.31,32.1s-11.32,20.73-21.55,25.89a33.21,33.21,0,0,1-35.92-4.53Q286.18,152.15,318,21.43c.8-3.27,1.91-6.95,4.93-8.45,2.65-1.32,5.83-.45,8.66.44l97.58,30.7"/><path class="cls-2" d="M428.21,44.1c-6.6,18.76-19.76,33.84-32,49.15a198.28,198.28,0,0,0-17.08,24.12c-5.52,9.53-9.6,19.81-13.42,30.13s-7.43,20.85-12.13,30.88-10.88,19.12-17.2,28.19S324.16,224.77,320,235s-7,21.36-12.19,31.31c-4.46,8.5-10.81,16.56-19.83,20.46a31.89,31.89,0,0,1-26.88-1.11,30.15,30.15,0,0,1-5.74-3.88l.38,1.46,18.16-74.55,18.16-74.55,18.16-74.54q4.54-18.64,9.08-37.27c.53-2.19,1-4.55,2.39-6.4,1.75-2.4,4.53-2.41,7.19-1.76,2.89.7,5.72,1.74,8.55,2.63l9.39,2.95,73.06,23,8.87,2.79c1.84.58,2.63-2.32.79-2.9L355.22,19.28l-18.53-5.83c-4.88-1.53-11.34-4.61-15.93-.81a12.19,12.19,0,0,0-3.51,5.9c-.87,2.73-1.43,5.57-2.11,8.35l-4.67,19.17-18.42,75.61-18.42,75.61-18.48,75.88-2.27,9.32a1.49,1.49,0,0,0,.39,1.46A34.77,34.77,0,0,0,279.76,292c9.87-1.15,18.22-6.62,24.33-14.32,6.67-8.43,10.49-18.5,14-28.55,2-5.61,3.84-11.25,6.25-16.68a110.36,110.36,0,0,1,8-14.61c6.07-9.46,13.05-18.32,18.68-28.06s9.73-20.24,13.62-30.75c3.94-10.68,7.65-21.47,12.61-31.74A152.62,152.62,0,0,1,394,100.85C406.19,85,420.22,70.23,428.38,51.78q1.5-3.39,2.73-6.89c.64-1.82-2.26-2.6-2.9-.79Z"/><path class="cls-3" d="M320.4,130.08c-12.35.86-23.34,9.66-28.62,20.86s-5.33,24.36-2,36.29c1.07,3.89,2.56,7.82,5.39,10.7s7.28,4.49,11,3c4.58-1.82,6.43-7.2,7.75-11.95l14.6-52.56c.63-2.26,1.21-4.86-.1-6.81a5.58,5.58,0,0,0-5.55-2,16.64,16.64,0,0,0-5.67,2.51"/><path class="cls-4" d="M322,42.55a14.71,14.71,0,0,0-.8,4,2.46,2.46,0,0,0,.39,1.61,2.61,2.61,0,0,0,1.9,1.08c1.49.07,2.15-1.39,2.71-2.51A3.74,3.74,0,0,1,327.63,45a2.52,2.52,0,0,1,2.73.46,3.88,3.88,0,0,1,1.05,3.24,7.58,7.58,0,0,1-.88,2.75c-.09.17.17.33.26.15a6.45,6.45,0,0,0,.76-4.7,3.11,3.11,0,0,0-3.46-2.38c-1.51.31-2,1.92-2.65,3.09A2.24,2.24,0,0,1,323.63,49a2.19,2.19,0,0,1-2.09-1.64,7.1,7.1,0,0,1,.21-2.55,16.28,16.28,0,0,1,.55-2.16c.06-.18-.23-.26-.29-.08Z"/><path class="cls-4" d="M317.59,45.57,335,50.3a.15.15,0,0,0,.08-.29l-17.4-4.72a.15.15,0,1,0-.08.28Z"/><path class="cls-4" d="M318.07,43.87l16.16,4a.15.15,0,0,0,.08-.29l-16.16-4c-.18,0-.26.24-.08.29Z"/><path class="cls-4" d="M327.14,24.39a15,15,0,0,0-.8,4,2.39,2.39,0,0,0,.4,1.61,2.59,2.59,0,0,0,1.89,1.08c1.49.08,2.15-1.39,2.72-2.5a3.75,3.75,0,0,1,1.42-1.77,2.49,2.49,0,0,1,2.72.47,3.81,3.81,0,0,1,1.05,3.23,7.5,7.5,0,0,1-.88,2.76c-.08.17.18.32.26.15a6.49,6.49,0,0,0,.77-4.71,3.12,3.12,0,0,0-3.47-2.37c-1.5.3-2,1.92-2.64,3.08a2.27,2.27,0,0,1-1.81,1.36,2.2,2.2,0,0,1-2.1-1.63,7.37,7.37,0,0,1,.21-2.56,17.37,17.37,0,0,1,.55-2.15c.06-.19-.23-.26-.29-.08Z"/><path class="cls-4" d="M322.72,27.41l17.41,4.72a.15.15,0,0,0,.08-.29L322.8,27.12a.15.15,0,0,0-.08.29Z"/><path class="cls-4" d="M323.21,25.71l16.16,4c.18,0,.26-.25.08-.29l-16.16-4a.15.15,0,0,0-.08.29Z"/><path class="cls-4" d="M324.57,33.47a15.49,15.49,0,0,0-.8,4,2.37,2.37,0,0,0,.4,1.6,2.59,2.59,0,0,0,1.89,1.08c1.49.08,2.16-1.38,2.72-2.5a3.74,3.74,0,0,1,1.42-1.76,2.49,2.49,0,0,1,2.73.46,3.84,3.84,0,0,1,1,3.24,7.38,7.38,0,0,1-.87,2.75c-.09.17.17.32.25.15a6.48,6.48,0,0,0,.77-4.71,3.11,3.11,0,0,0-3.47-2.37c-1.5.31-2,1.92-2.64,3.09a2.26,2.26,0,0,1-1.81,1.36,2.19,2.19,0,0,1-2.09-1.64,7.13,7.13,0,0,1,.2-2.56,19.92,19.92,0,0,1,.55-2.15c.06-.18-.23-.26-.29-.08Z"/><path class="cls-4" d="M320.16,36.49l17.4,4.73a.15.15,0,0,0,.08-.29l-17.4-4.73a.15.15,0,0,0-.08.29Z"/><path class="cls-4" d="M320.64,34.79l16.16,4a.15.15,0,0,0,.08-.29l-16.16-4a.15.15,0,0,0-.08.29Z"/><path class="cls-1" d="M357.66,25.5a906.7,906.7,0,0,1,104.48,35L392.32,323.31c-.77,2.89-1.75,6.06-4.34,7.56-2.83,1.63-6.4.57-9.48-.52l-91.56-32.43c-3.05-1.08-6.35-2.38-7.93-5.2-1.74-3.14-.73-7,.31-10.46l78-256.32"/><path class="cls-2" d="M357.26,26.94c27.57,7.53,54.85,16.13,81.63,26.13q11.49,4.29,22.86,8.91l-1.05-1.85-17.07,64.22-17.06,64.23L409.5,252.8,392.44,317c-.67,2.52-1.27,5.07-2,7.56-.56,1.81-1.33,3.81-3,4.88-2,1.27-4.51.7-6.61.07-2.47-.74-4.9-1.69-7.33-2.55l-31.19-11.05-31.18-11.05-15.74-5.57-7.72-2.74a19.87,19.87,0,0,1-5.55-2.61c-4.31-3.3-2-9.1-.69-13.35l4.88-16.05L295.86,233l19.45-63.94,19.36-63.64L354,41.81l4.7-15.47c.57-1.85-2.33-2.64-2.89-.8L336,90.64l-19.8,65.1-19.72,64.81-9.94,32.7-4.89,16.06c-1.59,5.22-3.57,10.48-4.69,15.83-.95,4.49-.17,8.77,3.74,11.54a23.43,23.43,0,0,0,5.6,2.61L294,302l32,11.35,31.75,11.25,16,5.68c4.19,1.48,9.38,4.13,13.88,2.37,4-1.55,5.23-5.78,6.23-9.53l4.38-16.5,8.69-32.7,17.46-65.69,17.46-65.7,17.45-65.69,4.23-15.91a1.55,1.55,0,0,0-1-1.85Q422.82,43,381.66,30.78q-11.76-3.51-23.6-6.73a1.5,1.5,0,0,0-.8,2.89Z"/><path class="cls-3" d="M386.75,153c-15-4.71-31.33-9.4-46.1-4-13.28,4.86-22.91,17.81-24.9,31.81s3.26,28.58,12.84,39,23.16,16.73,37.17,18.64c8.41,1.15,17.18.75,25.08-2.37,16.9-6.66,27.26-25.87,25.37-43.93s-13-32.18-29.55-39.58"/><path class="cls-4" d="M360.73,56.11a15.06,15.06,0,0,0-1,4A2.39,2.39,0,0,0,360,61.7a2.61,2.61,0,0,0,1.82,1.2c1.52.18,2.27-1.29,2.91-2.38a3.56,3.56,0,0,1,1.59-1.66,2.55,2.55,0,0,1,2.7.79,4,4,0,0,1,.69,3.46,7.79,7.79,0,0,1-1,2.42c-.1.17.16.32.25.15A6.5,6.5,0,0,0,370,61.11a3.13,3.13,0,0,0-3.27-2.66c-1.55.18-2.14,1.79-2.89,2.93a2.16,2.16,0,0,1-2.13,1.21A2.19,2.19,0,0,1,360,60.76a7.84,7.84,0,0,1,.38-2.45,17.44,17.44,0,0,1,.68-2.12c.07-.18-.22-.26-.29-.08Z"/><path class="cls-4" d="M356.15,58.84l17.07,5.81c.18.06.26-.23.08-.29l-17.07-5.81a.15.15,0,0,0-.08.29Z"/><path class="cls-4" d="M356.74,57.17l15.87,5a.15.15,0,0,0,.08-.29l-15.87-5a.15.15,0,0,0-.08.29Z"/><path class="cls-4" d="M367,38.3a15.08,15.08,0,0,0-1.05,4,2.4,2.4,0,0,0,.29,1.64,2.58,2.58,0,0,0,1.81,1.2c1.52.18,2.27-1.28,2.92-2.38a3.44,3.44,0,0,1,1.59-1.65,2.53,2.53,0,0,1,2.69.78,4,4,0,0,1,.7,3.46,8,8,0,0,1-1,2.43c-.1.16.16.31.26.15a6.54,6.54,0,0,0,1.07-4.58A3.14,3.14,0,0,0,373,40.64c-1.56.19-2.14,1.79-2.89,2.93A2.16,2.16,0,0,1,368,44.78,2.19,2.19,0,0,1,366.23,43a7.87,7.87,0,0,1,.37-2.45,17.48,17.48,0,0,1,.69-2.12c.07-.18-.22-.26-.29-.08Z"/><path class="cls-4" d="M362.41,41l17.08,5.81c.18.06.26-.23.07-.29l-17.07-5.81c-.18-.06-.26.23-.08.29Z"/><path class="cls-4" d="M363,39.36l15.88,5c.18.06.26-.23.08-.29l-15.88-5a.15.15,0,0,0-.08.29Z"/><path class="cls-4" d="M363.87,47.2a14.77,14.77,0,0,0-1.05,4,2.41,2.41,0,0,0,.29,1.64,2.59,2.59,0,0,0,1.81,1.2c1.52.17,2.27-1.29,2.92-2.39A3.44,3.44,0,0,1,369.43,50a2.54,2.54,0,0,1,2.69.78,4,4,0,0,1,.69,3.47,8,8,0,0,1-1,2.42.15.15,0,0,0,.26.15,6.54,6.54,0,0,0,1.07-4.58,3.13,3.13,0,0,0-3.27-2.65c-1.56.18-2.15,1.78-2.9,2.92a2.14,2.14,0,0,1-2.12,1.21,2.19,2.19,0,0,1-1.76-1.82,7.84,7.84,0,0,1,.38-2.45,19.54,19.54,0,0,1,.68-2.13c.08-.17-.21-.25-.28-.08Z"/><path class="cls-4" d="M359.28,49.94l17.07,5.81c.19.06.26-.23.08-.29l-17.07-5.81c-.18-.07-.26.22-.08.29Z"/><path class="cls-4" d="M359.87,48.27l15.87,5a.15.15,0,1,0,.08-.28L360,48c-.19-.06-.26.23-.08.29Z"/><path class="cls-4" d="M329.58,176.61,387.73,195l16.68,5.27c3.7,1.16,5.28-4.63,1.6-5.79l-58.15-18.34-16.68-5.27c-3.69-1.16-5.27,4.63-1.6,5.79Z"/><path class="cls-4" d="M326.8,184.48l62.59,21.3,17.89,6.08a3,3,0,0,0,3.69-2.09,3.06,3.06,0,0,0-2.1-3.69l-62.59-21.3-17.89-6.09a3,3,0,0,0-1.59,5.79Z"/><path class="cls-4" d="M346.82,168.78a71.06,71.06,0,0,0-5.05,19.62,12.85,12.85,0,0,0,2.41,9.5c2.76,3.63,7.25,6.3,11.94,5.81,8.23-.86,11.1-8.84,15.12-14.81.21-.32.44-.64.67-1,0-.06.35-.44.06-.08.12-.15.24-.3.37-.44a14.66,14.66,0,0,1,1.8-1.81c.46-.38.17-.12.07-.05.15-.11.3-.22.46-.32a9.46,9.46,0,0,1,1.21-.66,9.29,9.29,0,0,1,2.1-.5,10.41,10.41,0,0,1,8.92,4.34c2.73,4,3.05,9.08,2,13.69-.25,1.14-.54,2.28-.87,3.41-.12.4-.24.79-.38,1.19-.06.18-.53,1.28-.23.63-.86,1.84-1.94,3.57-2.95,5.32-1.93,3.35,3.25,6.37,5.18,3a39.55,39.55,0,0,0,4.47-9.68c1.26-4.78,1.81-9.69.6-14.55a17.8,17.8,0,0,0-8-11.1A14.89,14.89,0,0,0,373.68,179c-3.57,1.47-6.08,4.39-8.11,7.58-.94,1.47-1.78,3-2.67,4.51-.42.71-.85,1.42-1.31,2.12-.21.32-.43.63-.66.94-.34.48-.12.18,0,.07-.17.22-.35.44-.53.65a13.26,13.26,0,0,1-1.56,1.53c.43-.36-.46.32-.59.4a4.39,4.39,0,0,1-.47.27c-.08,0-.79.37-.51.26a6.29,6.29,0,0,1-4.57-.1,9.38,9.38,0,0,1-3.73-3,9.5,9.5,0,0,1-.75-1.22c0,.05-.44-1-.26-.52.11.3,0-.06,0-.14-.05-.27-.13-.56-.19-.83.17.74,0-.07,0-.38a19,19,0,0,1,.05-2.39c0-.47.09-.93.15-1.4-.07.52,0,0,0-.07.05-.3.09-.6.14-.9.35-2.05.82-4.07,1.35-6.08a83.51,83.51,0,0,1,3.23-10c.6-1.5-.67-3.3-2.1-3.69a3.08,3.08,0,0,0-3.69,2.09Z"/></g></g></g></svg>