<svg xmlns="http://www.w3.org/2000/svg" xmlns:xlink="http://www.w3.org/1999/xlink" viewBox="0 0 247.1 496.1"><defs><style>.cls-1{fill:#f0e8d9;}.cls-2{fill:#080752;}.cls-3{fill:url(#linear-gradient);}</style><linearGradient id="linear-gradient" x1="128.39" y1="214.73" x2="131.93" y2="439.96" gradientUnits="userSpaceOnUse"><stop offset="0" stop-color="#4eab9e"/><stop offset="0.46" stop-color="#4eab9e" stop-opacity="0.1"/><stop offset="0.63" stop-color="#d9d80c" stop-opacity="0.1"/><stop offset="1" stop-color="#d9d80c"/></linearGradient></defs><title>Asset 14</title><g id="Layer_2" data-name="Layer 2"><g id="Time"><path class="cls-1" d="M130.35,3.91C158.75,0,180.09,8.27,206.8,20.68c29,13.49,40,52.36,36.76,84.2-4.35,43.18-37.41,77.5-70.92,105.06-9.25,7.6-19.16,15.67-22.73,27.09-4,12.88,1.24,27.1,9.62,37.67s19.61,18.43,29.87,27.19c25.62,21.87,46.21,51.18,51.68,84.41s-6.42,70.28-34.06,89.52c-27,18.83-62.64,18-95.55,16.52-22-1-44.73-2.24-64.14-12.55a82.36,82.36,0,0,1-30.82-29.26C3.38,429.49-.57,402.85,6.31,379c13.85-48,65.4-75.55,87.21-120.53,3-6.18,5.44-13,4.49-19.78C96.42,227.2,86,219.37,76.77,212.26c-23.38-18.07-44.17-40.29-56.69-67S3.94,86.77,14.23,59.08C22.57,36.64,37.84,10.62,61.57,7.45c22.49-3,48.19-4.08,69.94-4"/><path class="cls-2" d="M130.35,6.91A99.38,99.38,0,0,1,166.88,8.7c12.17,2.94,23.75,7.84,35.09,13.05C211.2,26,219,31.45,225.11,39.69a79.38,79.38,0,0,1,12.38,26.54,103.5,103.5,0,0,1-2.37,61.93c-8,22-23,40.83-39.43,57.13-8.37,8.3-17.27,16-26.36,23.5-8.78,7.23-17.79,15-21.82,26-4.15,11.31-1.27,23.92,4.51,34.12,6.18,10.92,15.87,19.21,25.47,27,9.41,7.66,18.57,15.46,26.72,24.47a152.48,152.48,0,0,1,20.58,28.66c10.91,19.84,16.55,42.37,13.9,65-2.45,20.95-12,41.48-28.19,55.28-18.19,15.49-42.72,19.83-65.91,20.55-12.18.37-24.37-.16-36.54-.75-12.89-.62-25.85-1.43-38.44-4.41-12.16-2.88-23.68-7.94-33.32-16a84.19,84.19,0,0,1-21.86-28.28,86.9,86.9,0,0,1-2.35-69.11c7.59-19.13,21.44-35,35.3-49.88,14.27-15.32,29.34-30.17,40.87-47.76,6.15-9.38,13.16-20.83,13-32.39s-8.56-20.28-17.09-27.14c-9.31-7.49-18.65-14.77-27.16-23.18a179.54,179.54,0,0,1-23.23-27.8c-13.93-20.83-22.67-45.2-22.5-70.44.14-22.45,8.36-45.49,22-63.36C39.1,21.78,46.7,14.78,56.05,11.77,61.68,10,67.78,9.63,73.63,9c6.52-.66,13.06-1.16,19.6-1.55,12.74-.75,25.52-1.06,38.28-1,3.86,0,3.87-6,0-6-13.66-.07-27.33.29-41,1.17-6.81.44-13.62,1-20.4,1.75-5.67.62-11.49,1-16.9,3-20,7.2-32,27.67-39.69,46.27C3.58,76.66,3,103,10.29,127.81c7.08,24.06,21.21,45.45,38.47,63.45a249.59,249.59,0,0,0,27.62,24.46c8.51,6.59,19.07,14.62,18.83,26.53-.12,6.53-3.16,12.76-6.16,18.41a132,132,0,0,1-8.69,14.07A243.76,243.76,0,0,1,60,299.35C45.54,315,30.05,329.94,18.09,347.67,5.21,366.78-1.94,389,.46,412.21,3,436.93,15.28,460.32,35.14,475.49,56.31,491.66,83.2,494,108.9,495.22c24.67,1.17,50.28,2.34,74.23-4.83,22.1-6.61,40.4-21,51.09-41.54a102.24,102.24,0,0,0,9.62-64.12c-4.12-24-16.14-46-31.75-64.39a199,199,0,0,0-26.42-25.42c-9.84-8-20.41-16-27.24-27-6.35-10.15-9.59-23.11-3.93-34.3,5.44-10.79,16-18,25-25.58,18.29-15.45,35.72-32.54,48.68-52.82,12.31-19.27,19.43-41.19,18.85-64.17-.53-20.44-6.21-41.79-19.4-57.79a59.36,59.36,0,0,0-10.63-10c-4.47-3.3-9.45-5.55-14.49-7.83-11.5-5.2-23.26-10.09-35.61-12.89A103.52,103.52,0,0,0,130.35.91a3.1,3.1,0,0,0-3,3c0,1.46,1.39,3.21,3,3Z"/><path class="cls-3" d="M141.93,97.78,18,86.44a3.76,3.76,0,0,0-4.09,4.07c3.89,42.14,27.15,82.17,62,106.26,12.58,8.7,27,15.81,35.63,28.42,9.94,14.48,10.33,33.24,10.37,50.81l.19,93.36c0,6.74,0,13.7-2.74,19.87-4.42,10.06-14.89,15.83-24.66,20.87l-69,35.62A3.78,3.78,0,0,0,23.75,450c2.42,9.23,9.73,16.86,18.24,21.38,9.43,5,20.21,6.75,30.82,7.92A334.75,334.75,0,0,0,195.45,470c10.19-2.73,21.27-6.83,27.35-15a3.76,3.76,0,0,0-2.3-6c-17.19-3.18-32.95-12.12-48.21-20.89-12.32-7.08-25.17-14.66-32.48-26.86s-7.94-27.34-8.31-41.67l-2.38-91.48c-.4-15.2-.54-31.39,7.51-44.28,7.55-12.1,20.88-19,32.71-27A172.77,172.77,0,0,0,239,100a3.74,3.74,0,0,0-4.17-4.68,406.26,406.26,0,0,1-97,3"/></g></g></svg>